<svg width="20" height="20" viewBox="0 0 20 20" fill="none" xmlns="http://www.w3.org/2000/svg">
  <style>
    path {
      fill: #000000; <!-- set icon color for light mode -->
    }

    @media (prefers-color-scheme: dark) {
      path {
        fill: #FFFFFF; <!-- set icon color for dark mode -->
      }
    }
  </style>
  <path fill-rule="evenodd" clip-rule="evenodd" d="M8.06544 3.31266C7.94622 2.51863 8.31235 1.69476 9.04892 1.26935C10.0094 0.714627 11.2416 1.04438 11.7957 2.00453C12.0269 2.40506 12.1041 2.85298 12.0458 3.27931L14.9903 4.80909C15.0303 4.78195 15.0716 4.75607 15.1141 4.73152C16.0668 4.18126 17.2891 4.50836 17.8387 5.46078C18.3884 6.4132 18.0605 7.63571 17.1078 8.18596C16.3968 8.59659 15.5358 8.5186 14.9161 8.05682L12.0731 9.35627C12.2143 10.1589 11.8513 11.0016 11.1055 11.4324C10.9121 11.5441 10.7077 11.6196 10.5 11.6611V14.1754C11.0015 14.2942 11.4548 14.6109 11.7321 15.0914C12.2664 16.0171 11.9477 17.2054 11.0216 17.7403C10.0955 18.2752 8.90744 17.9571 8.37314 17.0314C7.83884 16.1056 8.15757 14.9174 9.08369 14.3825C9.25081 14.286 9.42646 14.2172 9.60526 14.1748V11.6348C9.1065 11.5049 8.65795 11.1835 8.38061 10.703C8.13971 10.2856 8.06736 9.81632 8.14228 9.3745L5.21449 8.03634C5.14445 8.09045 5.07 8.1405 4.99128 8.18596C4.0385 8.73624 2.81624 8.40903 2.26656 7.45662C1.71688 6.5042 2.04479 5.2818 2.99756 4.73152C3.69217 4.33034 4.53004 4.39552 5.14608 4.82938L8.06544 3.31266ZM8.40819 4.16748L5.76578 5.54031C6.05899 6.10559 6.05446 6.75434 5.80275 7.29809L8.49744 8.52972C8.65654 8.31105 8.86278 8.12146 9.11166 7.97772C9.99724 7.46625 11.1157 7.71277 11.7105 8.51489L14.3135 7.32514C14.0285 6.73445 14.0614 6.06038 14.356 5.51243L11.7162 4.14095C11.5512 4.38437 11.3301 4.59514 11.0588 4.75183C10.1505 5.27643 8.99925 5.00995 8.40819 4.16748Z" fill="black"/>
</svg>

