<svg width="20" height="20" viewBox="0 0 20 20" fill="none" xmlns="http://www.w3.org/2000/svg">
  <style>
    path {
      fill: #000000; <!-- set icon color for light mode -->
    }

    @media (prefers-color-scheme: dark) {
      path {
        fill: #FFFFFF; <!-- set icon color for dark mode -->
      }
    }
  </style>
  <path fill-rule="evenodd" clip-rule="evenodd" d="M8.13581 2.72078C7.99556 1.78663 8.42629 0.817363 9.29285 0.31688C10.4228 -0.335733 11.8724 0.0522161 12.5244 1.1818C12.7963 1.65301 12.8871 2.17997 12.8186 2.68154L16.2827 4.48128C16.3298 4.44935 16.3783 4.4189 16.4283 4.39002C17.5492 3.74266 18.9871 4.12749 19.6338 5.24798C20.2805 6.36847 19.8947 7.80672 18.7739 8.45408C17.9374 8.93717 16.9245 8.84541 16.1955 8.30214L12.8507 9.8309C13.0168 10.7752 12.5898 11.7666 11.7123 12.2734C11.4849 12.4048 11.2443 12.4936 11 12.5425V15.5004C11.5899 15.6402 12.1233 16.0128 12.4496 16.5781C13.0781 17.6672 12.7032 19.0652 11.6137 19.6945C10.5241 20.3238 9.1264 19.9496 8.49781 18.8604C7.86922 17.7713 8.2442 16.3734 9.33375 15.7441C9.53036 15.6306 9.73701 15.5497 9.94737 15.4998V12.5115C9.36059 12.3587 8.83289 11.9806 8.5066 11.4153C8.22319 10.9242 8.13807 10.3721 8.22621 9.85235L4.78175 8.27804C4.69935 8.3417 4.61176 8.40059 4.51915 8.45408C3.39824 9.10146 1.96029 8.71651 1.3136 7.59602C0.666919 6.47553 1.05269 5.03741 2.1736 4.39002C2.99079 3.91805 3.97652 3.99473 4.70127 4.50515L8.13581 2.72078ZM8.53904 3.72644L5.43033 5.34154C5.77528 6.00658 5.76996 6.76981 5.47382 7.40952L8.64404 8.85849C8.83123 8.60124 9.07386 8.37819 9.36666 8.20908C10.4085 7.60735 11.7243 7.89738 12.4241 8.84105L15.4865 7.44134C15.1512 6.74641 15.1899 5.95339 15.5365 5.30874L12.4308 3.69523C12.2367 3.98162 11.9766 4.22958 11.6574 4.41392C10.5888 5.0311 9.23441 4.71759 8.53904 3.72644Z" fill="black"/>
</svg>
