<svg width="16" height="16" viewBox="0 0 16 16" fill="none" xmlns="http://www.w3.org/2000/svg">
<path fill-rule="evenodd" clip-rule="evenodd" d="M9.95013 4.70765L4.78183 9.86903C4.71519 9.73989 4.65502 9.60533 4.60113 9.46577C4.42063 8.9968 4.33039 8.49925 4.33039 7.97375C4.33039 7.44782 4.42063 6.95048 4.60113 6.48151C4.78183 6.01233 5.0321 5.60532 5.35214 5.25985C5.67218 4.91459 6.05677 4.64151 6.50571 4.44041C6.95485 4.23951 7.44766 4.13896 7.98434 4.13896C8.52122 4.13896 9.01674 4.24201 9.47069 4.44834C9.63949 4.5249 9.7993 4.61127 9.95013 4.70765ZM9.49409 11.5377C9.04494 11.7388 8.55213 11.8392 8.01546 11.8392C7.47857 11.8392 6.98305 11.7361 6.52889 11.53C6.36031 11.4532 6.20049 11.3669 6.04987 11.2703L11.218 6.10932C11.2846 6.23825 11.3448 6.3726 11.3987 6.51237C11.5792 6.98134 11.6694 7.47889 11.6694 8.0046C11.6694 8.53032 11.5792 9.02766 11.3987 9.49684C11.218 9.96581 10.9677 10.3728 10.6477 10.7181C10.3276 11.0633 9.94323 11.3366 9.49409 11.5377ZM10.276 13.138C10.9677 12.8391 11.5664 12.4346 12.0722 11.9241C12.5779 11.414 12.97 10.8186 13.2487 10.1383C13.5276 9.45805 13.667 8.73644 13.667 7.97374C13.667 7.21083 13.5276 6.48923 13.2487 5.80872C13.0835 5.40525 12.88 5.03266 12.6385 4.69074L16 1.33389L14.6643 0L11.2925 3.36707C10.9898 3.16096 10.6612 2.9828 10.3069 2.83239C9.61525 2.53865 8.8515 2.39158 8.01546 2.39158C7.17921 2.39158 6.41546 2.54116 5.72378 2.84011C5.03209 3.13905 4.43337 3.54356 3.92761 4.05384C3.42186 4.56411 3.02953 5.1595 2.75086 5.8398C2.47218 6.5201 2.33284 7.24171 2.33284 8.00462C2.33284 8.76732 2.47218 9.48871 2.75086 10.1692C2.91631 10.5729 3.11978 10.9455 3.36127 11.2876L0 14.644L1.33574 15.9779L4.70725 12.6111C5.00995 12.8172 5.33856 12.9953 5.69286 13.1458C6.38454 13.4395 7.1483 13.5864 7.98433 13.5864C8.82058 13.5864 9.58433 13.4368 10.276 13.138Z" fill="black"/>
</svg>
