<svg width="153" height="16" viewBox="0 0 153 16" fill="none" xmlns="http://www.w3.org/2000/svg">
  <path d="M10 15.569H8.65605C7.38628 15.5862 6.11852 15.4624 4.87605 15.2C4.00489 15.0257 3.16462 14.7224 2.38305 14.3C1.83159 13.9803 1.35653 13.5442 0.991049 13.022C0.689671 12.615 0.464997 12.1565 0.328047 11.669C0.227295 11.2475 0.177939 10.8153 0.18105 10.382V10.169H4.20105C4.3857 10.1707 4.56535 10.2292 4.71562 10.3366C4.86589 10.4439 4.9795 10.5949 5.04105 10.769C5.45705 11.897 6.85005 12.46 9.22005 12.458H9.49305C10.249 12.467 11.0048 12.4249 11.7551 12.332C12.2078 12.2895 12.6495 12.1676 13.06 11.972C13.28 11.8637 13.4673 11.6991 13.603 11.495C13.6991 11.3185 13.7467 11.1198 13.741 10.919C13.7561 10.6526 13.6728 10.39 13.507 10.181C13.351 9.99798 12.988 9.83898 12.415 9.70098C11.6008 9.54022 10.773 9.45884 9.94305 9.45798L7.44705 9.40098C2.73505 9.27298 0.378049 7.85698 0.376049 5.15298V4.99998C0.372419 4.56172 0.432032 4.12522 0.553047 3.70398C0.694288 3.25648 0.93419 2.8464 1.25505 2.50398C1.64022 2.08064 2.10642 1.7389 2.62605 1.49898C3.35282 1.18103 4.11688 0.956248 4.90005 0.82998C6.00716 0.644292 7.12854 0.556953 8.25105 0.568982H9.59505C10.7698 0.556371 11.9434 0.647726 13.102 0.841981C13.9376 0.970084 14.7533 1.20501 15.529 1.54098C16.0859 1.79654 16.5889 2.15596 17.011 2.59998C17.3549 2.9521 17.6234 3.37062 17.8 3.82998C17.9462 4.25356 18.0193 4.69891 18.016 5.14698V5.34198H13.9C13.7332 5.3409 13.5698 5.29421 13.4276 5.20696C13.2853 5.11972 13.1696 4.99523 13.093 4.84698C13.0311 4.72399 12.9556 4.60828 12.868 4.50198C12.6805 4.30851 12.4547 4.15627 12.2051 4.05498C11.8122 3.91097 11.4048 3.81037 10.99 3.75498C10.3678 3.65885 9.73868 3.6137 9.10905 3.61998H8.80905C7.96614 3.59684 7.1232 3.66524 6.29505 3.82398C5.71305 3.95898 5.35905 4.10298 5.23305 4.25298C5.1044 4.42575 5.03972 4.63782 5.05005 4.85298C5.04079 5.07143 5.11355 5.28545 5.25405 5.45298C5.53173 5.6834 5.86467 5.83746 6.22005 5.89998C6.93383 6.05211 7.66229 6.12455 8.39205 6.11598L10.825 6.15498C13.527 6.20698 15.479 6.57398 16.681 7.25598C17.883 7.93798 18.483 9.00598 18.481 10.46V10.733C18.4876 11.2156 18.4291 11.697 18.307 12.164C18.1603 12.6416 17.915 13.0831 17.587 13.46C17.1871 13.9286 16.6922 14.307 16.135 14.57C15.3471 14.9253 14.5145 15.1715 13.66 15.302C12.4501 15.4968 11.2255 15.5861 10 15.569V15.569Z" fill="#030404"/>
  <path d="M25.033 15.314V4.24998H19.714C19.4753 4.24998 19.2464 4.15516 19.0776 3.98637C18.9088 3.81759 18.814 3.58867 18.814 3.34998V0.820978H35.878V3.33498C35.878 3.57367 35.7832 3.80259 35.6144 3.97137C35.4456 4.14016 35.2167 4.23498 34.978 4.23498H29.611V15.299L25.033 15.314Z" fill="#030404"/>
  <path d="M49.1411 14.819L48.0341 12.665H39.247L38.2001 14.804C38.1238 14.9569 38.0066 15.0855 37.8614 15.1756C37.7162 15.2657 37.5489 15.3136 37.3781 15.314H33.3251L40.3961 1.32198C40.4719 1.17326 40.5868 1.04803 40.7284 0.959758C40.8701 0.871482 41.0332 0.823501 41.2001 0.820978H46.0001C46.1656 0.821229 46.328 0.866254 46.4701 0.951282C46.6122 1.03631 46.7286 1.15818 46.8071 1.30398L54.3071 15.314H49.954C49.7858 15.3157 49.6205 15.2702 49.4768 15.1828C49.3331 15.0953 49.2168 14.9692 49.1411 14.819ZM46.3571 9.39198L43.552 3.95598L40.852 9.39198H46.3571Z" fill="#030404"/>
  <path d="M86.02 10.484H79.69V14.384C79.69 14.5034 79.6663 14.6217 79.6201 14.7319C79.5739 14.8421 79.5063 14.942 79.4211 15.0257C79.336 15.1095 79.235 15.1755 79.124 15.2198C79.0131 15.2642 78.8945 15.286 78.775 15.284H75.151V0.820978H86.02C90.526 0.820978 92.779 2.39298 92.779 5.53698V5.73198C92.779 8.89998 90.526 10.484 86.02 10.484ZM79.69 4.11498V7.22898H85.942C87.342 7.22898 88.042 6.72298 88.042 5.71098V5.65098C88.042 4.62898 87.342 4.11698 85.942 4.11498H79.69Z" fill="#030404"/>
  <path d="M103.87 0.568978H104.707C105.856 0.560385 107.004 0.647687 108.139 0.829976C109.021 0.968384 109.886 1.20071 110.719 1.52298C111.373 1.78507 111.986 2.13859 112.54 2.57298C113.001 2.93125 113.411 3.35117 113.758 3.82098C114.053 4.24357 114.292 4.70234 114.469 5.18598C114.632 5.61053 114.749 6.05093 114.82 6.49998C114.873 6.90685 114.899 7.31672 114.898 7.72698V8.31198C114.898 8.71324 114.872 9.11408 114.82 9.51198C114.749 9.9668 114.631 10.4131 114.469 10.844C114.292 11.3328 114.056 11.7982 113.767 12.23C113.426 12.71 113.015 13.1366 112.549 13.496C111.994 13.9347 111.381 14.2951 110.728 14.567C109.897 14.8983 109.032 15.1367 108.148 15.278C107.011 15.4688 105.86 15.5602 104.707 15.551H103.87C102.715 15.56 101.562 15.4687 100.423 15.278C99.5354 15.1374 98.6661 14.899 97.831 14.567C97.1782 14.2942 96.5656 13.9339 96.01 13.496C95.5432 13.1341 95.1301 12.7079 94.783 12.23C94.4889 11.8009 94.2529 11.3349 94.081 10.844C93.9236 10.4125 93.81 9.96624 93.742 9.51198C93.6887 9.11422 93.6626 8.71329 93.664 8.31198V7.73598C93.6616 7.32866 93.6877 6.92167 93.742 6.51798C93.8112 6.06689 93.9247 5.62374 94.081 5.19498C94.2517 4.70728 94.4878 4.24504 94.783 3.82098C95.1292 3.35053 95.5391 2.9305 96.001 2.57298C96.5549 2.13799 97.1681 1.78441 97.822 1.52298C98.6614 1.19863 99.5335 0.966275 100.423 0.829976C101.563 0.648068 102.716 0.560771 103.87 0.568978V0.568978ZM110.143 8.14698V7.87398C110.145 7.52449 110.099 7.17637 110.008 6.83898C109.894 6.47298 109.715 6.13051 109.48 5.82798C109.207 5.46278 108.863 5.15663 108.469 4.92798C107.937 4.64397 107.366 4.4417 106.774 4.32798C105.955 4.15531 105.118 4.07382 104.281 4.08498C100.373 4.08498 98.418 5.35098 98.416 7.88298V8.11698C98.4132 8.56933 98.4956 9.01816 98.659 9.43998C98.8531 9.90489 99.1341 10.3285 99.487 10.688C99.9915 11.1684 100.612 11.5104 101.287 11.681C103.235 12.167 105.273 12.167 107.221 11.681C107.899 11.5135 108.525 11.1794 109.042 10.709C109.409 10.3584 109.701 9.93686 109.9 9.46998C110.063 9.04816 110.146 8.59933 110.143 8.14698V8.14698Z" fill="#030404"/>
  <path d="M121.072 10.172V14.399C121.072 14.6377 120.977 14.8666 120.808 15.0354C120.64 15.2042 120.411 15.299 120.172 15.299H116.533V0.820978H128.233C132.433 0.820978 134.533 2.07398 134.533 4.57998V4.81398C134.533 6.34598 133.633 7.40498 131.833 7.99098C132.593 8.19015 133.282 8.59863 133.822 9.16998C134.343 9.76204 134.615 10.5329 134.581 11.321V15.314H130.927C130.808 15.316 130.689 15.2942 130.578 15.2498C130.467 15.2055 130.366 15.1395 130.281 15.0557C130.196 14.972 130.128 14.8721 130.082 14.7619C130.036 14.6517 130.012 14.5334 130.012 14.414V12.74C130.012 11.84 129.787 11.195 129.331 10.79C128.875 10.385 128.098 10.19 126.994 10.19L121.072 10.172ZM121.072 4.11498V6.95898H127.948C128.441 6.99802 128.931 6.85971 129.331 6.56898C129.479 6.44174 129.596 6.28291 129.674 6.10426C129.752 5.92562 129.788 5.73173 129.781 5.53698V5.51598C129.787 5.32407 129.749 5.13335 129.671 4.95787C129.593 4.78239 129.477 4.6266 129.331 4.50198C128.931 4.21231 128.44 4.07507 127.948 4.11498H121.072Z" fill="#030404"/>
  <path d="M59.689 10.172V14.399C59.6891 14.5184 59.6653 14.6367 59.6191 14.7469C59.573 14.8571 59.5053 14.957 59.4202 15.0407C59.335 15.1245 59.234 15.1905 59.1231 15.2348C59.0121 15.2792 58.8935 15.301 58.774 15.299H55.15V0.820978H66.85C71.05 0.820978 73.15 2.07398 73.15 4.57998V4.81398C73.15 6.34598 72.25 7.40498 70.45 7.99098C71.2092 8.19066 71.8972 8.59911 72.436 9.16998C72.9573 9.76204 73.2293 10.5329 73.195 11.321V15.314H69.547C69.4276 15.316 69.3089 15.2942 69.198 15.2498C69.0871 15.2055 68.9861 15.1395 68.9009 15.0557C68.8158 14.972 68.7481 14.8721 68.7019 14.7619C68.6558 14.6517 68.632 14.5334 68.632 14.414V14.414V12.74C68.632 11.84 68.404 11.195 67.948 10.79C67.492 10.385 66.715 10.19 65.611 10.19L59.689 10.172ZM59.689 4.11498V6.95898H66.565C67.0578 6.99802 67.5483 6.85971 67.948 6.56898C68.0957 6.44174 68.2128 6.28291 68.2906 6.10426C68.3685 5.92562 68.4053 5.73173 68.398 5.53698V5.51598C68.4036 5.32407 68.3661 5.13335 68.2882 4.95787C68.2103 4.78239 68.0941 4.6266 67.948 4.50198C67.5479 4.21231 67.0574 4.07507 66.565 4.11498H59.689Z" fill="#030404"/>
  <path d="M141.658 15.314V4.24998H136.339C136.102 4.24537 135.875 4.14907 135.708 3.98128C135.54 3.81348 135.444 3.58723 135.439 3.34998V0.820978H152.5V3.33498C152.495 3.57479 152.397 3.80325 152.226 3.97145C152.055 4.13965 151.825 4.23424 151.585 4.23498H146.245V15.299L141.658 15.314Z" fill="#030404"/>
  </svg>
  