<?xml version="1.0" standalone="no"?>
<!DOCTYPE svg PUBLIC "-//W3C//DTD SVG 20010904//EN"
 "http://www.w3.org/TR/2001/REC-SVG-20010904/DTD/svg10.dtd">
<svg version="1.0" xmlns="http://www.w3.org/2000/svg"
 width="260.000000pt" height="260.000000pt" viewBox="0 0 260.000000 260.000000"
 preserveAspectRatio="xMidYMid meet">
<metadata>
Created by potrace 1.11, written by Peter Selinger 2001-2013
</metadata>
<g transform="translate(0.000000,260.000000) scale(0.100000,-0.100000)"
fill="#000000" stroke="none">
<path d="M1202 2582 c-125 -45 -204 -157 -207 -292 l-1 -44 -109 -58 c-61 -32
-160 -83 -221 -115 l-111 -56 -49 24 c-66 33 -187 34 -254 3 -60 -28 -120 -88
-150 -149 -35 -69 -35 -188 -1 -259 28 -60 84 -116 148 -147 72 -36 187 -33
264 5 l56 28 54 -25 c30 -14 128 -59 219 -101 l164 -75 3 -56 c5 -135 80 -239
203 -284 l25 -9 -2 -183 c-1 -101 -2 -189 -2 -195 -1 -7 -13 -15 -28 -18 -14
-4 -45 -20 -68 -36 -190 -130 -165 -415 45 -514 62 -29 177 -29 241 0 66 31
114 78 146 141 38 79 39 185 0 259 -31 62 -106 130 -158 146 l-39 11 0 191 0
192 64 27 c109 48 178 152 179 270 l1 60 85 40 c47 22 144 66 215 98 l128 58
52 -26 c42 -22 65 -27 131 -27 68 -1 89 3 136 26 62 31 107 75 139 138 59 115
37 250 -55 345 -92 94 -232 121 -345 66 l-45 -22 -85 44 c-203 104 -345 179
-351 185 -4 4 -9 35 -12 69 -7 75 -34 135 -82 186 -82 85 -215 117 -323 79z
m553 -567 c94 -48 178 -92 187 -96 16 -8 16 -12 2 -46 -25 -59 -25 -142 0
-221 6 -19 2 -25 -36 -41 -24 -10 -72 -32 -108 -48 -36 -17 -87 -40 -115 -53
-27 -12 -67 -31 -89 -41 l-39 -18 -35 35 c-112 112 -308 114 -420 3 l-41 -40
-53 25 c-29 14 -121 55 -203 93 l-151 68 12 40 c17 57 17 127 -2 181 -14 42
-14 47 1 57 9 7 98 54 199 106 l184 94 38 -38 c48 -47 124 -83 188 -89 93 -8
202 37 264 109 16 18 27 23 35 17 7 -5 89 -48 182 -97z"/>
</g>
</svg>
