<svg
  width="210"
  height="120"
  viewBox="0 0 210 120"
  fill="none"
  xmlns="http://www.w3.org/2000/svg"
>
<path
    fill-rule="evenodd"
    clip-rule="evenodd"
    d="M76.8749 66.4143L76.9339 66.4645C77.7031 67.0936 78.2176 67.9806 78.3817 68.9606C78.5457 69.9407 78.3483 70.9467 77.8259 71.7922C77.4677 72.4183 76.9525 72.9406 76.331 73.3074C75.7097 73.6738 75.0034 73.8723 74.2819 73.8828C73.7514 73.8792 73.2261 73.7793 72.7313 73.5877L72.6841 73.5697C72.3937 73.6375 72.0963 73.6722 71.7983 73.6732C71.6621 73.6738 71.5258 73.667 71.3906 73.6525H71.3582L70.6256 73.5107C70.4389 73.5838 70.2477 73.644 70.0528 73.6909H69.9906L68.5141 73.7531L66.1308 74.6065L64.1403 76.2189L63.3429 77.4178C63.1807 77.5838 63.0048 77.7361 62.8172 77.8726L62.5603 78.5724C62.361 78.9936 62.0868 79.3747 61.7511 79.6976V79.7775C61.5996 80.6863 61.1263 81.5102 60.4177 82.099C59.7091 82.6878 58.8123 83.0021 57.8911 82.9845H57.8527C56.9242 82.9946 56.0236 82.6675 55.3177 82.0643C54.6118 81.4611 54.1484 80.6224 54.0135 79.7035V79.6593C53.6706 79.3276 53.394 78.9336 53.1984 78.4988L52.9591 77.8078C52.7595 77.6604 52.5736 77.4954 52.4039 77.3146L52.3803 77.2848L51.6538 76.142L51.6007 76.1095L49.6721 74.4765L47.2741 73.555L45.6911 73.4548C45.4897 73.406 45.2922 73.3418 45.1005 73.2629L44.3179 73.3984C43.8776 73.4335 43.4345 73.3958 43.0066 73.2864L42.9475 73.31C42.0157 73.6434 40.9962 73.6368 40.0687 73.2917C39.1412 72.9468 38.3653 72.285 37.878 71.4238C37.3907 70.5625 37.2232 69.5569 37.405 68.5842C37.5869 67.6115 38.1064 66.7342 38.872 66.1072L38.9665 66.0274C39.0931 65.633 39.2815 65.2612 39.5247 64.9259L39.5454 64.8993L40.0828 64.2821C40.1107 64.1084 40.1502 63.9367 40.201 63.7683L40.2246 63.7092L40.9659 62.2917L41.4118 59.8376L41.0161 57.3835V57.3392L40.4254 56.1402C40.3608 55.9062 40.3163 55.6671 40.2925 55.4255L39.8525 54.8999C39.5854 54.511 39.3912 54.0766 39.2796 53.6182L39.2559 53.6005C38.5547 53.0001 38.0873 52.172 37.9358 51.2614C37.7843 50.3509 37.9583 49.416 38.4274 48.621C38.8965 47.8259 39.6306 47.2215 40.5009 46.9137C41.3712 46.606 42.3222 46.6146 43.1867 46.9381C43.647 46.8065 44.128 46.7635 44.6043 46.8111H44.6191L45.2747 46.9381C45.5055 46.8368 45.7446 46.7558 45.9894 46.6959H46.0308L47.3214 46.6428L47.3509 46.6221L47.404 46.5926L49.684 45.7775L51.6479 44.1887L52.5871 42.7682C52.714 42.6416 52.8481 42.5223 52.9887 42.4109L53.284 41.6017C53.4668 41.2222 53.7091 40.8742 54.0017 40.5711L54.0282 40.4411C54.2099 39.4717 54.7269 38.5971 55.4888 37.9706C56.2507 37.3442 57.2087 37.0059 58.195 37.0151C59.1813 37.0242 60.1329 37.3803 60.883 38.0207C61.6332 38.6612 62.1339 39.5453 62.2974 40.5179L62.3152 40.6154C62.6111 40.9328 62.8526 41.2971 63.0299 41.6933V41.7228L63.2838 42.4729C63.4346 42.5948 63.5767 42.727 63.7091 42.8686L63.7475 42.9159L64.5862 44.2419L66.5531 45.9104L68.9157 46.817L68.9482 46.8407L70.3007 46.9233C70.547 46.9889 70.7874 47.0759 71.0186 47.1832L71.6948 47.0651C72.1808 47.0253 72.6697 47.0784 73.1361 47.2216H73.1538C74.0239 46.9161 74.9736 46.9265 75.8368 47.2508C76.6997 47.5752 77.4215 48.1928 77.8747 48.9957C78.3283 49.7985 78.4852 50.7353 78.3175 51.6419C78.1495 52.5486 77.6681 53.3674 76.9575 53.9548L76.9044 53.9962C76.7852 54.4405 76.5848 54.859 76.3136 55.2306L75.8263 55.7947C75.7972 56.0235 75.7497 56.2497 75.6845 56.471V56.5064L75.0528 57.7113L74.6009 60.2038L75.0024 62.6963L75.7025 64.102C75.752 64.2845 75.7906 64.4699 75.8175 64.6572L76.3284 65.2714C76.572 65.6199 76.7564 66.006 76.8749 66.4143ZM72.8318 72.7517C73.9725 72.325 74.9235 71.505 75.5133 70.4394C76.1682 69.4003 76.425 68.1596 76.237 66.9459L75.7585 66.5383C75.2794 68.8692 74.0429 70.9758 72.2411 72.5303L72.8318 72.7517ZM63.5142 75.953C63.6294 75.9088 63.7386 75.8617 63.842 75.8142L63.9483 75.7257L64.3411 75.135L63.7948 75.1939L63.5142 75.953ZM62.0937 77.8166C62.2565 77.7269 62.4143 77.6284 62.5662 77.5213L62.8615 76.7032C62.6725 76.7592 62.4746 76.8093 62.2709 76.8598L62.0937 77.8166ZM57.862 80.7462C59.198 80.7531 60.4933 80.2864 61.5178 79.4291L61.6891 78.5076C60.5029 78.9874 59.2325 79.2244 57.9532 79.2045H57.8439C56.5475 79.2136 55.2627 78.9605 54.0666 78.4605L54.2202 79.3905C55.2357 80.2589 56.5259 80.739 57.862 80.7462ZM53.978 77.9404C55.1906 78.4997 56.5115 78.7853 57.8468 78.7765C59.2024 78.8095 60.5482 78.54 61.7865 77.9879L61.9814 76.9364C60.689 77.2 59.3726 77.3284 58.0536 77.3205C56.6241 77.3287 55.1979 77.1804 53.8008 76.8775L53.978 77.9404ZM53.5114 76.8064C53.3017 76.7563 53.098 76.7003 52.903 76.6381L53.1866 77.459C53.3426 77.575 53.5053 77.6814 53.6738 77.778L53.5114 76.8064ZM51.4293 75.0227L51.831 75.6576L51.8812 75.7022C52.0023 75.7611 52.1322 75.8171 52.2651 75.8705L51.9964 75.0937L51.4293 75.0227ZM39.5867 66.5738C39.3638 67.7948 39.5949 69.0552 40.2364 70.1175C40.8059 71.1828 41.7338 72.0126 42.856 72.4596L43.4791 72.2408C42.6042 71.467 41.868 70.5491 41.3025 69.5271C40.6983 68.4879 40.2862 67.3485 40.0858 66.1633L39.5867 66.5738ZM41.5549 57.0762C41.5378 57.1772 41.5211 57.2761 41.5211 57.3717L41.53 57.4189L41.8489 58.0598C41.9198 57.8973 41.9936 57.732 42.0704 57.5666L41.5713 56.9759C41.5662 57.0095 41.5605 57.043 41.5549 57.0762ZM40.6883 54.8408C40.6855 55.0282 40.6934 55.2155 40.7119 55.4019L41.2405 56.0428C41.2878 55.8419 41.3439 55.647 41.403 55.4521L40.6883 54.8408ZM43.3019 47.2866C42.0316 47.6939 40.9654 48.572 40.3221 49.7407C39.6057 50.877 39.356 52.2461 39.6251 53.5621L40.3073 54.1527C40.7212 51.5655 42.0914 49.2279 44.1466 47.6026L43.3019 47.2866ZM44.6486 47.7886C43.5579 48.5565 42.6503 49.5558 41.9907 50.7152V50.7064C41.2842 51.8575 40.8443 53.1521 40.7031 54.4953L41.4886 55.1686C42.3826 52.5762 43.7886 50.19 45.6232 48.1519L44.6486 47.7886ZM46.018 47.7383C46.0986 47.6574 46.1792 47.5763 46.2582 47.5022L45.446 47.3427C45.27 47.4209 45.0985 47.5086 44.9321 47.6055L45.8181 47.9363C45.8839 47.8732 45.9509 47.8058 46.018 47.7383ZM48.352 47.0385L47.6019 47.0681L47.599 47.071C47.4808 47.1507 47.3597 47.2393 47.2387 47.3338L48.0154 47.4815L48.352 47.0385ZM69.025 47.5465C68.9039 47.4461 68.7829 47.3515 68.6618 47.2689L68.6529 47.2659L67.8821 47.2187C67.9762 47.345 68.0704 47.4755 68.1663 47.6085C68.1847 47.634 68.2032 47.6596 68.2217 47.6853L69.025 47.5465ZM71.3641 47.8802C71.1964 47.772 71.0228 47.6734 70.8444 47.5849L70.0024 47.7473C70.1501 47.892 70.2978 48.0456 70.4455 48.205L71.3641 47.8802ZM76.5648 53.9401C76.8667 52.6201 76.6421 51.2344 75.9387 50.0773V50.0685C75.3181 48.9049 74.2796 48.0196 73.0326 47.5908L72.1467 47.8861C74.1735 49.5567 75.4975 51.9287 75.8558 54.5307L76.5648 53.9401ZM74.7158 55.8065C74.7692 56.0132 74.8193 56.2081 74.8606 56.3971L75.413 55.7681C75.4366 55.5849 75.4494 55.4005 75.4514 55.2159L74.7158 55.8065ZM74.5239 57.8058L74.5475 57.6729C74.5377 57.5607 74.5259 57.4475 74.5121 57.3333L73.9954 57.9239C74.0691 58.0923 74.1372 58.2576 74.202 58.4171L74.5239 57.8058ZM66.1417 73.0247C66.1134 73.0816 66.0852 73.1383 66.057 73.1947L67.0345 73.1505L67.2648 72.8552L66.3169 72.675C66.2574 72.7919 66.1993 72.9087 66.1417 73.0247ZM64.0222 74.5829C64.2555 74.5593 64.4858 74.5325 64.7073 74.503L64.7871 74.4765L65.2035 73.8474L64.3175 73.7796L64.0222 74.5829ZM53.2633 73.6408L53.4317 74.6448H53.4287C56.4201 74.8753 59.4237 74.9009 62.4185 74.7217L62.6046 73.7262V73.6732C59.6277 73.5196 56.255 73.4872 53.2633 73.5789C53.2648 73.5995 53.2648 73.6201 53.2633 73.6408ZM62.0907 76.3902L62.2915 75.3151H62.2827C61.1014 75.3862 59.8196 75.4333 58.5261 75.4245C56.8221 75.4245 55.0944 75.3626 53.538 75.2414L53.7182 76.3309C56.4737 76.9397 59.3268 76.9597 62.0907 76.3902ZM50.5995 73.7056L51.0218 74.37L51.0366 74.373C51.2284 74.4032 51.4274 74.4296 51.6309 74.4566C51.6874 74.4642 51.7443 74.4717 51.8015 74.4794L51.5061 73.6525C51.1902 73.6673 50.8948 73.685 50.5995 73.7056ZM48.5174 72.6662L48.7537 72.9822L49.7548 73.0559C49.7347 73.0135 49.7145 72.9709 49.6943 72.9282C49.6285 72.7894 49.562 72.6489 49.492 72.5067H49.4447L48.5174 72.6662ZM42.7142 56.2081C44.0275 53.6167 45.5072 51.1131 47.1442 48.713L46.1312 48.3379C44.2362 50.4099 42.7974 52.8568 41.908 55.52L42.7142 56.2081ZM48.6828 49.2888L47.7082 48.9256H47.6994C46.0175 51.3751 44.5049 53.9365 43.172 56.5921L43.9576 57.2624C45.5789 54.7877 47.28 51.9053 48.6828 49.2888ZM49.4861 47.7561C49.6249 47.4874 49.7578 47.2216 49.8848 46.9647L49.1288 47.006C48.9752 47.1862 48.8216 47.387 48.6621 47.5967L49.4861 47.7561ZM64.7546 46.7255L65.36 46.6871L64.8195 45.8366L64.4327 45.7805L64.7132 46.5955C64.725 46.6369 64.7398 46.6812 64.7546 46.7255ZM67.338 47.4415C67.2687 47.3462 67.2009 47.2531 67.132 47.1626L66.3493 47.1153C66.4008 47.2241 66.4527 47.331 66.5053 47.4393C66.5825 47.5984 66.6613 47.7605 66.7421 47.9363L67.5956 47.7886C67.5044 47.6701 67.42 47.5543 67.338 47.4415ZM72.114 57.6079L72.9232 56.9405H72.9085C71.6254 54.2471 70.1599 51.6443 68.523 49.15L67.5307 49.5074C68.8921 52.1623 70.549 55.0889 72.114 57.6079ZM70.1383 48.583L69.1048 48.9492H69.09C70.6793 51.3894 72.1078 53.9306 73.3663 56.5566L74.2197 55.8744C73.3856 53.1847 71.9951 50.7004 70.1383 48.583ZM73.83 59.117V59.0461H73.8241C73.7452 58.8433 73.6597 58.6376 73.567 58.4289L73.0178 59.0609L73.0266 59.0743C73.1859 59.3176 73.3396 59.5524 73.4934 59.7815L73.83 59.117ZM74.2244 64.1426L73.511 63.529C73.5272 63.4967 73.5433 63.4638 73.5594 63.431C73.5933 63.362 73.6268 63.2938 73.6587 63.2337L74.276 63.972C74.265 63.9955 74.2591 64.0216 74.2529 64.0491C74.2462 64.0792 74.239 64.1109 74.2244 64.1426ZM74.9287 64.7428L74.7397 64.5154L74.7339 64.5065C74.728 64.5331 74.725 64.5508 74.725 64.5686L74.9287 64.7428ZM73.1331 64.2821C71.8972 66.7049 70.5165 69.0509 68.9984 71.3079L70.0234 71.7034C71.7544 69.7465 73.0902 67.4732 73.9571 65.0086L73.1331 64.2821ZM64.8018 72.3296C64.7073 72.5951 64.6187 72.8581 64.5331 73.1211L65.5726 73.2065C65.5983 73.1545 65.624 73.1023 65.6497 73.0499C65.7277 72.8912 65.8065 72.7308 65.8886 72.5686C65.5313 72.4831 65.171 72.4032 64.8018 72.3296ZM63.2395 72.0548C63.1569 72.3738 63.0801 72.6986 63.0092 73.0235L63.0033 73.0294C63.399 73.05 63.7859 73.0706 64.158 73.0975C64.2317 72.8995 64.3009 72.7001 64.3698 72.5012C64.3976 72.4212 64.4253 72.3412 64.4533 72.2615C64.0517 72.1848 63.6471 72.117 63.2395 72.0548ZM51.391 72.1141C51.4884 72.4003 51.58 72.675 51.6656 72.9704L52.8528 72.92C52.7879 72.5892 52.717 72.2615 52.6402 71.9337C52.2208 71.987 51.8044 72.046 51.391 72.1141ZM49.9232 72.3973C50.0324 72.622 50.1358 72.8404 50.2362 73.0588L50.2303 73.0706C50.5 73.0453 50.7697 73.0272 51.0576 73.0079C51.1386 73.0024 51.221 72.9969 51.3053 72.9911C51.2226 72.7222 51.134 72.4507 51.0425 72.1789C50.6645 72.2438 50.2894 72.3178 49.9232 72.3973ZM50.5109 70.7083C50.0945 70.8206 49.684 70.9444 49.2735 71.0803L49.6013 71.7093C49.997 71.6239 50.3987 71.541 50.8062 71.4673C50.7272 71.2754 50.6534 71.0817 50.5795 70.8877C50.5567 70.8279 50.5339 70.7681 50.5109 70.7083ZM44.0993 62.8676L43.1867 63.6206C44.3998 66.1343 45.7709 68.5687 47.2918 70.909L48.417 70.5105L48.4761 70.4928C47.1766 67.9706 45.6173 65.2301 44.1407 62.8321L44.0993 62.8676ZM45.7118 71.4523L46.7868 71.0744C45.305 68.7821 43.9647 66.4013 42.7733 63.9454L41.905 64.6601C42.7221 67.1494 44.015 69.4563 45.7118 71.4523ZM62.4628 46.6782L62.2768 45.5678H62.2886C59.4933 45.3656 56.6879 45.3409 53.8895 45.494L53.6827 46.5955L53.6561 46.7284C56.4854 46.8672 59.6483 46.8997 62.4894 46.817C62.4864 46.8009 62.4823 46.7851 62.4783 46.7694C62.4705 46.7392 62.4628 46.7093 62.4628 46.6782ZM54.1936 43.852L53.9839 44.9772L53.9958 44.9831C56.7262 44.836 59.4632 44.8567 62.1911 45.0451L62.0021 43.9111C59.4279 43.3837 56.7755 43.3636 54.1936 43.852ZM66.0451 48.0692C65.8798 47.7384 65.7292 47.4136 65.5844 47.0976L64.8609 47.1419C64.9702 47.5051 65.0883 47.8684 65.2153 48.2346C65.4958 48.1814 65.7705 48.1282 66.0451 48.0692ZM70.8532 58.7124C71.0952 58.485 71.3434 58.2635 71.5943 58.045C69.97 55.4521 68.2719 52.4576 66.8809 49.72C66.5561 49.8233 66.2312 49.9238 65.9034 50.0153C67.1772 53.1128 68.8404 56.0354 70.8532 58.7124ZM73.0599 60.508C73.0834 60.4744 73.1068 60.4409 73.1302 60.4075L73.1243 60.4105C72.935 60.1329 72.746 59.8464 72.56 59.5482C72.374 59.746 72.191 59.9468 72.0079 60.1536C72.247 60.4341 72.4893 60.7117 72.7342 60.9775C72.8433 60.8176 72.9524 60.6616 73.0599 60.508ZM66.9423 70.5504C66.5241 70.4003 66.103 70.256 65.679 70.1293C66.9589 67.2244 68.5819 64.4831 70.5136 61.9639C70.8286 62.271 71.1525 62.5663 71.4852 62.8498C69.9296 65.2701 68.3033 68.0237 66.9423 70.5504ZM52.4601 48.3556C52.5693 47.9422 52.6668 47.5258 52.7554 47.1064L52.085 47.0651C51.9609 47.452 51.831 47.8388 51.6892 48.2257C51.9432 48.2729 52.2002 48.3143 52.4601 48.3556ZM70.475 59.4478C70.2595 59.6604 70.0499 59.8789 69.84 60.1004L69.8223 60.0975C70.1354 60.4312 70.4455 60.7531 70.7703 61.075C70.8072 61.0299 70.8439 60.9848 70.8805 60.9397C71.0143 60.7754 71.1474 60.6118 71.2842 60.4518C71.0107 60.125 70.7409 59.7903 70.475 59.4478ZM69.6527 59.889C67.2265 57.1419 65.3877 53.9275 64.2496 50.4435C64.5626 50.3756 64.8727 50.3047 65.1828 50.225C66.4946 53.4361 68.217 56.4637 70.3066 59.2322C70.1027 59.4204 69.9106 59.6204 69.7173 59.8217C69.6958 59.8441 69.6743 59.8665 69.6527 59.889ZM63.6973 69.6096C64.8885 66.2514 66.7232 63.1578 69.0988 60.502L69.093 60.4991C66.5392 57.628 64.6112 54.2569 63.4315 50.6C59.8704 51.2655 56.2129 51.2193 52.6698 50.4642C51.4378 54.0688 49.4753 57.3805 46.9049 60.192C49.2686 62.9051 51.0749 66.057 52.2208 69.4678C56.0141 68.7114 59.9239 68.7597 63.6973 69.6096ZM63.7741 48.8222C63.8922 49.28 64.0222 49.72 64.1639 50.1659L64.158 50.1748C64.4622 50.1069 64.7693 50.036 65.0794 49.9503C64.9081 49.5477 64.7644 49.1423 64.6216 48.7395L64.6069 48.6982C64.3313 48.7435 64.0537 48.7848 63.7741 48.8222ZM63.3444 50.3268C59.8449 50.9755 56.2521 50.9298 52.7702 50.1925C52.9198 49.7377 53.0586 49.277 53.1866 48.8104C56.4262 49.2479 59.7072 49.2855 62.956 48.9226C63.0708 49.4024 63.2003 49.8675 63.3444 50.3268ZM53.5941 47.1537C53.4996 47.5908 53.3992 48.0397 53.284 48.4767C56.47 48.9036 59.6962 48.9402 62.891 48.586C62.7759 48.1312 62.6814 47.6941 62.5957 47.2452C59.7044 47.3309 56.4735 47.2984 53.5941 47.1537ZM51.9757 50.0183C52.1204 49.5871 52.2563 49.1441 52.3803 48.7011L51.5741 48.5653C51.4235 48.9728 51.261 49.3833 51.0897 49.7909C51.3851 49.8736 51.6804 49.9474 51.9757 50.0183ZM46.3704 59.5747C48.819 56.8813 50.6948 53.7184 51.8842 50.2781H51.8694C51.5682 50.2043 51.2669 50.1275 50.9834 50.0478C49.6199 53.2125 47.8573 56.1898 45.7384 58.9073C45.954 59.1259 46.1636 59.3474 46.3704 59.5747ZM45.2245 60.753C45.5494 60.4361 45.8654 60.1122 46.1725 59.7815C45.9688 59.557 45.765 59.3385 45.5553 59.1288C45.2796 59.4694 45.003 59.8021 44.7254 60.127C44.8908 60.3308 45.0591 60.5404 45.2245 60.753ZM51.9432 69.5271C50.8151 66.1718 49.0413 63.0697 46.7218 60.3957V60.3928C46.3989 60.7373 46.0662 61.0779 45.7236 61.4146C47.6635 64.0257 49.2789 66.8628 50.5345 69.8637C51.0011 69.7396 51.4707 69.6273 51.9432 69.5271ZM52.4571 71.2162C52.3744 70.9129 52.2888 70.6087 52.2002 70.3035V70.3006C51.7454 70.3952 51.2935 70.5016 50.8446 70.6195C50.948 70.8854 51.0454 71.1513 51.1399 71.414C51.5711 71.3403 52.0112 71.2751 52.4571 71.2162ZM52.4697 70.2532C56.0924 69.5467 59.8216 69.593 63.4256 70.3893C63.3281 70.6847 63.2366 70.9948 63.148 71.302C59.6957 70.8108 56.1943 70.7711 52.7317 71.1837C52.6493 70.8716 52.561 70.5624 52.4697 70.2532ZM63.6932 70.4487C64.1327 70.5521 64.578 70.6672 65.0086 70.7937C64.9022 71.0508 64.7989 71.3079 64.7132 71.5646C64.2909 71.4821 63.8656 71.4081 63.4315 71.3403C63.508 71.0402 63.5962 70.743 63.6932 70.4487ZM69.2731 60.7058C66.9383 63.3228 65.133 66.3676 63.9572 69.6718L63.9601 69.6685C64.4208 69.775 64.8786 69.8991 65.3275 70.035C66.6277 67.0763 68.2797 64.2851 70.2477 61.7217C69.914 61.391 69.5891 61.0543 69.2731 60.7058ZM71.497 60.7294C71.3316 60.9185 71.1692 61.1163 71.0038 61.3201C71.1873 61.4913 71.3696 61.6604 71.5497 61.8275C71.674 61.9428 71.7973 62.0572 71.9191 62.1706L72.2885 61.6154L72.2846 61.611C72.02 61.3171 71.7554 61.0233 71.497 60.7294ZM72.5872 61.9598C72.5627 61.9961 72.5381 62.0326 72.5134 62.0694C72.4271 62.1978 72.339 62.3289 72.244 62.46L72.2823 62.4954L73.0945 63.1894C73.1371 63.0983 73.1811 63.0071 73.2245 62.917C73.2444 62.8756 73.2642 62.8345 73.2838 62.7937L72.5872 61.9598ZM71.0009 58.9309C71.2488 59.2588 71.5029 59.5895 71.7626 59.8848H71.7744C71.8654 59.7814 71.957 59.6799 72.0477 59.5795C72.1485 59.4678 72.2482 59.3574 72.3445 59.247C72.1399 58.9339 71.9329 58.612 71.7243 58.2812C71.4793 58.4939 71.237 58.7095 71.0009 58.9309ZM65.3305 48.5801C65.4722 48.9699 65.6228 49.3656 65.7823 49.7614H65.7941C66.1131 49.6698 66.432 49.5723 66.748 49.4749C66.5649 49.1126 66.3877 48.7553 66.2164 48.4029C65.9211 48.4649 65.6258 48.524 65.3305 48.5801ZM63.6766 48.4885L64.474 48.3704H64.4858C64.3529 47.9688 64.2259 47.5789 64.099 47.1891L63.399 47.2157C63.4817 47.6439 63.5732 48.0662 63.6766 48.4885ZM63.2997 46.6386C63.3124 46.6883 63.3252 46.7379 63.3252 46.7875L63.972 46.7609L63.5998 45.683L63.1273 45.6358L63.2779 46.5394C63.2827 46.5725 63.2912 46.6056 63.2997 46.6386ZM52.8322 46.6812C52.8499 46.6014 52.8676 46.5217 52.8824 46.442L53.0478 45.5501L52.5989 45.5856L52.212 46.6457L52.8322 46.6812ZM51.4855 46.4863V46.4686L51.7749 45.6712L51.4116 45.7126L50.8623 46.5424L51.453 46.5896C51.4562 46.5778 51.4614 46.5656 51.4667 46.5531C51.4759 46.5313 51.4855 46.5088 51.4855 46.4863ZM50.9421 48.081C51.072 47.7236 51.1961 47.3663 51.3112 47.0119L50.6142 46.9529C50.4941 47.2004 50.3682 47.4516 50.2397 47.7081C50.2072 47.773 50.1745 47.8382 50.1417 47.9038C50.4075 47.9658 50.6733 48.0249 50.9421 48.081ZM50.821 48.4147C50.5375 48.3556 50.2569 48.2907 49.9793 48.2257L49.4359 49.277C49.5376 49.3096 49.6396 49.3429 49.742 49.3762C49.9458 49.4426 50.1509 49.5094 50.3573 49.5723C50.5257 49.1855 50.6763 48.8016 50.821 48.4147ZM50.2481 49.8263C49.932 49.7289 49.6161 49.6225 49.303 49.5133L49.3089 49.5162C47.8707 52.2125 46.1282 55.1627 44.4596 57.7231C44.7047 57.9417 44.9469 58.1631 45.1832 58.3905C47.2254 55.7604 48.9271 52.8829 50.2481 49.8263ZM45.0207 58.6031C44.7904 58.3817 44.5541 58.1631 44.3149 57.9505C44.0993 58.2813 43.8867 58.6002 43.674 58.9132C43.8631 59.1229 44.0521 59.3326 44.2381 59.5511C44.5039 59.2411 44.7638 58.925 45.0207 58.6031ZM43.6923 59.4604C43.6187 59.3785 43.5447 59.2962 43.4703 59.2145C43.3292 59.4228 43.1882 59.6222 43.0482 59.8201C42.9918 59.8998 42.9356 59.9793 42.8796 60.0591C42.9255 60.1279 42.9718 60.1967 43.0185 60.2661C43.098 60.3844 43.1787 60.5044 43.2606 60.629C43.5126 60.3593 43.7607 60.0847 44.0048 59.8051C43.9008 59.6925 43.7969 59.5768 43.6923 59.4604ZM44.7475 60.7163C44.6625 60.6098 44.5767 60.5024 44.4891 60.3957V60.3898C44.2204 60.697 43.9487 60.9923 43.677 61.2758L44.0284 61.831C44.3503 61.5563 44.6693 61.2817 44.9646 60.9864C44.8924 60.8978 44.8203 60.8074 44.7475 60.7163ZM43.5796 62.2296L43.7006 62.1263L43.3787 61.6006L42.6522 62.4393L42.8294 62.8498L43.5796 62.2296ZM44.4709 62.5436C44.8126 62.249 45.1426 61.9543 45.4667 61.6597C47.3703 64.2265 48.9569 67.0138 50.1919 69.961C49.7548 70.0831 49.3207 70.2161 48.8895 70.3598C47.5672 67.78 45.9822 64.982 44.4709 62.5436ZM52.9103 71.9129C56.2482 71.524 59.6221 71.5627 62.9501 72.0283C62.8674 72.3571 62.7906 72.6878 62.7198 73.0205C60.812 72.917 58.7565 72.864 56.7305 72.864C55.499 72.864 54.2822 72.8846 53.1157 72.9233C53.0599 72.5794 52.9895 72.2476 52.9103 71.9129ZM65.0579 71.6331C65.4559 71.7126 65.845 71.7982 66.2312 71.8894L66.5531 71.2898C66.1544 71.1513 65.7557 71.0184 65.3511 70.8972C65.2485 71.1436 65.1517 71.3868 65.0579 71.6331ZM67.0138 71.4523L66.9607 71.4346V71.4287C66.9124 71.5268 66.86 71.6258 66.8074 71.7252C66.7603 71.8143 66.713 71.9036 66.6683 71.9929L67.7521 72.2025C67.8122 72.1203 67.8723 72.0356 67.9324 71.9509C67.9609 71.9107 67.9894 71.8704 68.018 71.8305L67.0138 71.4523ZM71.8042 63.1599C70.2831 65.5254 68.6883 68.2217 67.3505 70.7024L68.5023 71.1366C70.062 68.8338 71.4744 66.4351 72.7313 63.9543L71.8042 63.1599ZM73.0237 61.3171L73.6322 62.0466V62.0407C73.6833 61.9324 73.7304 61.8251 73.774 61.7188L73.3427 60.8535L73.0237 61.3171ZM74.391 62.9561L74.0723 62.3153L73.9954 62.4836L74.391 62.9561ZM72.2989 57.9418C72.4735 58.2105 72.6481 58.4792 72.82 58.7479L73.4076 58.0863C73.3854 58.0364 73.3629 57.9857 73.3401 57.9344C73.2388 57.7062 73.1317 57.4651 73.0208 57.224L72.247 57.8619L72.2989 57.9418ZM67.3889 49.2593H67.4037L68.3664 48.9167C68.1774 48.6332 67.9914 48.3645 67.8053 48.1046L66.8868 48.2641C67.0479 48.5892 67.2148 48.9171 67.3846 49.2509L67.3889 49.2593ZM64.0044 44.5697L64.2377 45.2518L64.4533 45.2784L64.0044 44.5697ZM63.0555 45.1227L62.8822 44.1296L63.0948 44.1976L63.4226 45.1485C63.3409 45.1446 63.2578 45.1381 63.1743 45.1316C63.1348 45.1286 63.0951 45.1255 63.0555 45.1227ZM62.7168 43.0872L62.7877 43.5036L62.8704 43.5272L62.7168 43.0872ZM54.4978 42.2928L54.3206 43.2437C56.8317 42.7972 59.4034 42.8162 61.9076 43.2998L61.7481 42.3371C59.4253 41.3992 56.832 41.3833 54.4978 42.2928ZM53.1511 45.0451L53.3313 44.0824L53.1423 44.1385L52.7997 45.0717L53.1511 45.0451ZM53.5055 43.161L53.3903 43.4563H53.4494L53.5055 43.161ZM52.2002 44.546L51.7897 45.1692L51.9816 45.1367L52.2002 44.546ZM48.8039 49.0555C48.9781 48.7307 49.1494 48.4058 49.3119 48.0899L48.4229 47.9186C48.2369 48.1696 48.0508 48.4295 47.8589 48.7011L48.8039 49.0555ZM43.2222 58.3994C43.4171 58.1041 43.612 57.8088 43.8128 57.5134L43.0568 56.8608C42.9121 57.1531 42.7792 57.4367 42.6522 57.7143L43.2222 58.3994ZM42.5252 59.4123C42.6877 59.179 42.8501 58.9398 43.0155 58.6947L42.4898 58.0598C42.3815 58.296 42.2831 58.5234 42.1944 58.742L42.5252 59.4123ZM42.7101 60.5813C42.6908 60.5531 42.6715 60.5249 42.6522 60.4961L42.1826 61.3614C42.224 61.4677 42.2683 61.577 42.3155 61.6863L42.9062 61.007L42.9475 60.9627C42.8755 60.8235 42.7937 60.7037 42.7101 60.5813ZM41.5713 62.5604L41.9582 62.1145L41.8932 61.952L41.5713 62.5604ZM41.6894 63.786L42.4307 63.1776H42.4248C42.4153 63.1568 42.4056 63.1359 42.396 63.1151C42.3578 63.0326 42.3196 62.9501 42.2889 62.8676L41.651 63.6058L41.6514 63.6077C41.6631 63.6662 41.6748 63.7246 41.6894 63.786ZM40.9954 64.3618L41.1756 64.2112C41.173 64.1961 41.1691 64.1813 41.1638 64.167L40.9954 64.3618ZM45.1241 71.6769C43.4971 69.7196 42.2429 67.4804 41.4236 65.0706L40.6942 65.6731C41.0187 68.1523 42.2779 70.4139 44.2145 71.9959L45.1241 71.6769ZM47.2623 71.7892L46.332 72.12L46.4974 72.2765L47.4779 72.1049L47.2623 71.7892ZM45.3102 72.4802L45.7856 72.4003L45.7325 72.3325L45.3102 72.4802ZM48.6917 71.2663L47.7614 71.5941L48.0331 71.9988L49.1494 71.804C49.052 71.6029 48.9545 71.4081 48.8541 71.2132C48.8349 71.2196 48.8153 71.2256 48.7955 71.2317C48.7607 71.2423 48.7256 71.2531 48.6917 71.2663ZM52.9739 73.5789L51.8635 73.6231L52.1706 74.5118C52.4866 74.5475 52.8115 74.5829 53.1482 74.6124L52.9916 73.6761L52.9739 73.5789ZM62.8583 73.7123C62.8525 73.7308 62.8468 73.7494 62.8468 73.7678L62.6666 74.7008C62.9944 74.6772 63.3252 74.6507 63.6205 74.6212L63.9483 73.7442C63.5939 73.7203 63.2336 73.6967 62.8674 73.6791C62.8652 73.6901 62.8618 73.7012 62.8583 73.7123ZM68.4787 73.0824L67.8171 72.9557V72.9645C67.8074 72.977 67.7978 72.9895 67.7883 73.0019C67.7575 73.0421 67.7276 73.0811 67.696 73.1152L68.4787 73.0824ZM69.3971 72.3355L68.5111 71.9988L68.2896 72.2942L69.2406 72.4773L69.3971 72.3355ZM70.3541 72.6898L70.0175 72.5627L69.9641 72.6132L70.3541 72.6898ZM75.153 66.0008L74.4473 65.4102L74.4532 65.4191C73.5788 67.7956 72.2777 69.9924 70.6138 71.9012L71.5 72.232C73.4626 70.6925 74.7682 68.4655 75.153 66.0008ZM73.7504 60.192L73.9983 60.6851L74.0396 60.44L73.9423 59.8258L73.7504 60.192ZM73.4875 56.8135C73.6076 57.0695 73.7226 57.3205 73.833 57.5666L74.4355 56.8726C74.391 56.6423 74.3409 56.406 74.276 56.1638L73.4875 56.8135ZM75.4396 54.8497C75.3279 53.4947 74.912 52.1825 74.2227 51.0105H74.2285C73.5945 49.8443 72.7126 48.8312 71.6447 48.0426L70.6403 48.397C72.4333 50.4792 73.7891 52.9006 74.6274 55.5171L75.4396 54.8497ZM69.9128 48.3542L68.9364 48.713C68.9136 48.6791 68.8908 48.6453 68.868 48.6116C68.7262 48.4011 68.5862 48.1935 68.4462 47.9924L69.3735 47.8329C69.5534 47.9953 69.7331 48.169 69.9128 48.3542ZM66.116 46.6723L66.5738 46.6989L66.0688 46.2736L65.7971 46.1703L66.116 46.6723ZM61.6182 41.5456L61.5089 40.8811C60.5686 40.1054 59.3817 39.6916 58.1628 39.7147H58.1038C56.891 39.6802 55.706 40.0815 54.7636 40.8457L54.6425 41.5013C56.9076 40.7378 59.363 40.7534 61.6182 41.5456ZM50.1092 46.4833L50.4046 46.0433L50.1506 46.1319L49.6574 46.5335L50.0915 46.5158L50.1092 46.4833ZM47.2918 48.4708C47.4572 48.2346 47.6226 48.0012 47.785 47.7768L46.8872 47.6055C46.7041 47.7621 46.521 47.9333 46.3408 48.1164L47.2918 48.4708ZM42.5931 56.4532L41.8282 55.7976V55.8065C41.7573 56.0487 41.6954 56.282 41.6422 56.5064L42.2328 57.2033C42.348 56.9582 42.4661 56.7072 42.5931 56.4532ZM42.2506 59.8169L42.0645 59.4419L41.9552 60.0531L41.9966 60.3042L42.2506 59.8169ZM47.9681 72.7756L47.2387 72.8787L47.2593 72.9023L48.0951 72.9557L47.9681 72.7756ZM50.0974 73.7233L49.5068 73.685L49.7224 73.871L50.3426 74.1074L50.0974 73.7233ZM53.2633 75.2208L52.398 75.1379L52.7081 76.0359C52.9385 76.1184 53.1807 76.1924 53.4347 76.2602L53.2633 75.2208ZM62.3897 76.3153C62.5774 76.268 62.7586 76.2159 62.9395 76.1638C62.9922 76.1486 63.0449 76.1334 63.0978 76.1184L63.4197 75.2326L62.578 75.2974L62.3897 76.3153ZM65.7055 73.8739L65.4663 74.2315L66.0658 74.0157L66.2725 73.8503L65.7055 73.8739ZM74.97 56.8621C74.9774 56.891 74.9847 56.9194 74.9847 56.9464L75.1766 56.5743L74.9611 56.8253C74.9637 56.8376 74.9669 56.8499 74.97 56.8621ZM75.9003 55.21L76.0687 55.0121H76.0539C76.1918 54.8326 76.3097 54.6385 76.4053 54.4333L75.9003 54.8497V55.21ZM78.1289 51.4545C78.2454 50.6484 78.082 49.8268 77.6665 49.1264H77.6517C77.2699 48.4171 76.6591 47.8581 75.919 47.5406C75.1789 47.2231 74.353 47.1658 73.5759 47.3781C74.7155 47.9293 75.658 48.8179 76.275 49.9232C76.8923 51.0284 77.1543 52.2969 77.0256 53.5562C77.6226 53.0024 78.0119 52.2606 78.1289 51.4545ZM72.5306 47.449C72.2758 47.4083 72.0171 47.3983 71.7597 47.4195L71.5501 47.4549C71.6654 47.5228 71.7774 47.5967 71.8897 47.6734L72.5306 47.449ZM69.6897 47.4224L70.1354 47.3456L69.5596 47.3102L69.6897 47.4224ZM59.9631 38.3454C59.4265 38.0056 58.8038 37.827 58.1688 37.8305C57.5312 37.8155 56.9027 37.9836 56.3577 38.3149C55.8129 38.6462 55.3744 39.1269 55.0944 39.6999C56.0396 39.2143 57.0883 38.9649 58.1509 38.9732C59.2135 38.9814 60.2583 39.2469 61.1959 39.7471C60.9275 39.1716 60.4996 38.6851 59.9631 38.3454ZM46.5889 47.198L46.71 47.0976L46.1843 47.1183L46.5889 47.198ZM44.5541 47.1478C44.4459 47.1418 44.3375 47.1418 44.2292 47.1478C44.0893 47.1439 43.9492 47.1488 43.8099 47.1626L44.4183 47.39C44.5305 47.3161 44.6398 47.2482 44.7491 47.1862L44.5541 47.1478ZM39.9525 47.4425C39.4124 47.7615 38.9647 48.2156 38.6535 48.7602C38.2305 49.4462 38.0524 50.2554 38.1484 51.0556C38.2444 51.8558 38.6088 52.5999 39.1821 53.1664C39.0858 51.9103 39.3756 50.6549 40.0127 49.5682C40.6498 48.4815 41.6037 47.6153 42.7467 47.0858C42.4172 46.9916 42.0764 46.943 41.7337 46.9411C41.1065 46.9507 40.4926 47.1235 39.9525 47.4425ZM40.2719 54.4746L39.7875 54.0612C39.8755 54.282 39.9885 54.4921 40.1242 54.6872L40.2571 54.8467C40.2571 54.7851 40.2607 54.7241 40.2644 54.6629C40.2681 54.6009 40.2719 54.5385 40.2719 54.4746ZM41.146 56.4562L40.9127 56.1786L41.1194 56.5921L41.146 56.4562ZM38.14 69.1888C38.1133 69.8244 38.27 70.4545 38.5914 71.0036C38.8916 71.5564 39.3428 72.0129 39.8923 72.3191C40.4419 72.6256 41.0671 72.7694 41.6954 72.734C40.8123 72.1504 40.0828 71.3625 39.5687 70.4374C39.0547 69.512 38.7711 68.4765 38.7421 67.4184C38.3757 67.9386 38.1667 68.5531 38.14 69.1888ZM52.4807 76.4933L52.3301 76.4373L52.6225 76.8981L52.4807 76.4933ZM53.4287 78.1238L53.5114 78.3658L53.4996 78.3864C53.6077 78.6026 53.7384 78.8063 53.8895 78.9949L53.7772 78.3128C53.6561 78.2535 53.541 78.1916 53.4287 78.1238ZM57.8468 82.71H57.8823L57.8705 82.7159C58.6815 82.7336 59.4742 82.4739 60.1175 81.9798C60.7609 81.4859 61.2163 80.7871 61.4085 79.9989C60.3983 80.7403 59.1703 81.1244 57.9177 81.0917H57.8498C56.5876 81.1113 55.3542 80.7138 54.3413 79.9606C54.5269 80.7485 54.9751 81.4499 55.6121 81.9496C56.2492 82.4494 57.0372 82.7176 57.8468 82.71ZM61.881 79.0244C62.0223 78.8413 62.1431 78.6432 62.2413 78.4336L62.3299 78.1916C62.2265 78.2535 62.1173 78.3098 62.0051 78.3658L61.881 79.0244ZM63.2986 76.5732L63.1746 76.9069L63.4256 76.529L63.2986 76.5732ZM75.8067 72.6534C76.3588 72.3577 76.8163 71.9117 77.1258 71.3668L77.114 71.3727C77.4464 70.837 77.6186 70.2174 77.6108 69.587C77.6029 68.9566 77.4153 68.3415 77.0698 67.8141C77.0141 68.8666 76.7066 69.8906 76.1731 70.7996C75.64 71.7087 74.896 72.4763 74.0042 73.0382C74.6294 73.0827 75.2542 72.9491 75.8067 72.6534ZM105.913 44.2477C106.959 44.7984 107.811 45.6571 108.352 46.7077C108.962 47.9316 109.259 49.2868 109.218 50.6532V59.3769H106.297V55.328H98.1134V59.3769H95.2372V50.6532C95.1985 49.2867 95.4969 47.9318 96.1053 46.7077C96.648 45.6578 97.4994 44.7993 98.5447 44.2477C99.6975 43.6971 100.959 43.4113 102.236 43.4113C103.514 43.4113 104.775 43.6971 105.928 44.2477H105.913ZM106.297 52.8799V50.3844C106.297 48.9315 105.938 47.8339 105.219 47.0916C104.501 46.3494 103.496 45.9783 102.207 45.9783C100.915 45.9783 99.911 46.3494 99.1945 47.0916C98.4779 47.8339 98.1174 48.9315 98.1134 50.3844V52.8799H106.297ZM128.03 43.6431V59.3805H125.221V57.3783C124.154 58.8608 122.505 59.603 120.274 59.605C118.416 59.605 116.955 59.0242 115.892 57.8626C114.829 56.701 114.296 55.0561 114.294 52.9279V43.6431H117.218V52.8156C117.218 54.2095 117.552 55.2619 118.219 55.9726C118.887 56.6833 119.804 57.0397 120.972 57.0416C122.229 57.0416 123.234 56.6636 123.984 55.9076C124.734 55.1516 125.109 54.0235 125.109 52.5233V43.6431H128.03ZM140.453 54.7672L143.669 59.383H146.824L143.206 54.212C144.212 53.8476 145.079 53.18 145.69 52.3013C146.282 51.3939 146.583 50.3278 146.555 49.2447C146.583 48.19 146.301 47.1501 145.746 46.2532C145.179 45.392 144.369 44.7195 143.418 44.3218C142.292 43.8493 141.078 43.6189 139.857 43.6455H133.383V59.3771H136.304V54.7908H139.848C140.05 54.7932 140.252 54.7854 140.453 54.7672ZM139.712 46.1203C140.986 46.1203 141.953 46.39 142.612 46.9295C142.947 47.2139 143.211 47.5727 143.383 47.9772C143.555 48.3818 143.629 48.8209 143.602 49.2595C143.626 49.6969 143.55 50.1341 143.379 50.5372C143.207 50.9403 142.945 51.2984 142.612 51.5837C141.951 52.131 140.984 52.4046 139.712 52.4046H136.295V46.1203H139.712ZM161.472 44.2478C162.516 44.8001 163.367 45.6584 163.911 46.7078C164.518 47.9321 164.816 49.287 164.776 50.6532V59.3769H161.852V55.3281H153.684V59.3769H150.804V50.6532C150.765 49.287 151.062 47.9321 151.669 46.7078C152.213 45.6584 153.064 44.8001 154.109 44.2478C155.262 43.6972 156.523 43.4114 157.801 43.4114C159.078 43.4114 160.34 43.6972 161.492 44.2478H161.472ZM161.852 52.8799V50.3845C161.852 48.9315 161.493 47.834 160.774 47.0917C160.056 46.3495 159.052 45.9783 157.762 45.9783C156.475 45.9783 155.471 46.3495 154.75 47.0917C154.029 47.834 153.674 48.9315 153.684 50.3845V52.8799H161.852ZM168.903 58.3929C168.996 58.6232 169.137 58.8316 169.314 59.0049C169.576 59.2612 169.907 59.4343 170.267 59.5023C170.627 59.5703 170.998 59.5302 171.335 59.3871C171.672 59.2439 171.959 59.0041 172.159 58.698C172.36 58.3919 172.466 58.0331 172.463 57.6671C172.473 57.4187 172.432 57.1709 172.344 56.9384C172.256 56.706 172.122 56.4938 171.949 56.3145C171.777 56.1352 171.57 55.9926 171.342 55.8952C171.113 55.7978 170.867 55.7476 170.618 55.7476C170.37 55.7476 170.124 55.7978 169.895 55.8952C169.666 55.9926 169.459 56.1352 169.287 56.3145C169.115 56.4938 168.981 56.706 168.893 56.9384C168.804 57.1709 168.764 57.4187 168.774 57.6671C168.766 57.9154 168.81 58.1626 168.903 58.3929ZM100.07 67.2985C100.572 67.8005 100.823 68.53 100.823 69.4868V73.3673H99.5972V69.6168C99.6371 69.082 99.4678 68.5524 99.1246 68.1401C98.9468 67.9668 98.7343 67.8328 98.5014 67.7468C98.2683 67.6608 98.0197 67.6248 97.7721 67.6411C97.4839 67.6267 97.1964 67.6718 96.9266 67.7734C96.6567 67.875 96.4108 68.031 96.2038 68.2317C96.0014 68.4567 95.8462 68.7201 95.7473 69.006C95.6484 69.2923 95.6078 69.5952 95.6278 69.8974V73.3673H94.4023V66.6045H95.5836V67.6263C95.8367 67.2713 96.1832 66.9932 96.5847 66.823C97.0373 66.6252 97.5262 66.5245 98.02 66.5277C98.396 66.5109 98.7716 66.5705 99.124 66.7029C99.4763 66.8354 99.7979 67.038 100.07 67.2985ZM108.073 70.4127H113.557C113.575 70.2941 113.585 70.1749 113.59 70.0554C113.603 69.4253 113.455 68.8025 113.162 68.245C112.893 67.7307 112.483 67.3035 111.98 67.0135C111.454 66.7151 110.858 66.5631 110.253 66.5735C109.643 66.5647 109.042 66.7165 108.51 67.0135C107.999 67.3025 107.58 67.7292 107.299 68.245C107.009 68.7904 106.858 69.3991 106.858 70.0168C106.858 70.6347 107.009 71.2431 107.299 71.7887C107.598 72.3146 108.044 72.7426 108.581 73.0203C109.169 73.3226 109.822 73.4739 110.483 73.4604C111.005 73.4686 111.523 73.3733 112.007 73.1798C112.448 73.0039 112.84 72.7243 113.15 72.3647L112.474 71.5732C112.227 71.8431 111.925 72.0559 111.588 72.1967C111.251 72.3375 110.887 72.403 110.522 72.3883C109.92 72.4089 109.331 72.2177 108.856 71.848C108.637 71.6724 108.455 71.455 108.321 71.2087C108.186 70.9622 108.102 70.6917 108.073 70.4127ZM108.073 69.5324C108.12 68.9937 108.368 68.4921 108.767 68.1269L108.761 68.1357C109.174 67.7859 109.697 67.5938 110.238 67.5938C110.779 67.5938 111.302 67.7859 111.715 68.1357C112.111 68.4997 112.359 68.997 112.411 69.5324H108.073ZM123.433 72.9766C123.239 73.14 123.012 73.2599 122.768 73.328C122.504 73.4102 122.229 73.4508 121.953 73.4492C121.666 73.4672 121.378 73.4279 121.106 73.3336C120.834 73.2392 120.584 73.0919 120.37 72.9C120.174 72.6911 120.023 72.4441 119.926 72.1743C119.83 71.9045 119.79 71.6176 119.809 71.3317V67.6196H118.66V66.6097H119.809V65.1331H121.034V66.6097H122.978V67.6196H121.037V71.2964C121.016 71.6019 121.115 71.9038 121.312 72.138C121.414 72.2398 121.537 72.3187 121.672 72.3698C121.807 72.4206 121.951 72.4422 122.095 72.4333C122.441 72.4425 122.78 72.3299 123.052 72.1144L123.433 72.9766ZM136.829 73.3675L139.354 66.6136L138.247 66.6047L136.232 72.015L134.23 66.6047H133.197L131.153 71.9915L129.189 66.6047H128.028L130.541 73.3675H131.723L133.696 68.2408L135.648 73.3675H136.829ZM145.826 73.0051C145.303 72.7179 144.868 72.2919 144.571 71.7738C144.273 71.2283 144.117 70.6162 144.117 69.9944C144.117 69.3728 144.273 68.7608 144.571 68.2152C144.867 67.6974 145.302 67.2728 145.826 66.9897C146.384 66.6916 147.008 66.5402 147.64 66.5496C148.269 66.5398 148.89 66.6913 149.444 66.9897C149.967 67.2747 150.4 67.6989 150.696 68.2152C150.993 68.7614 151.148 69.3731 151.148 69.9944C151.148 70.6159 150.993 71.2276 150.696 71.7738C150.399 72.2906 149.966 72.7163 149.444 73.0051C148.892 73.308 148.27 73.4619 147.64 73.4511C147.007 73.4616 146.382 73.3077 145.826 73.0051ZM148.806 72.081C149.15 71.8812 149.431 71.5898 149.618 71.2394C149.811 70.8523 149.911 70.4263 149.911 69.9944C149.911 69.5624 149.811 69.1364 149.618 68.7497C149.433 68.3997 149.151 68.1098 148.806 67.914C148.447 67.7222 148.047 67.6218 147.64 67.6218C147.233 67.6218 146.832 67.7222 146.473 67.914C146.128 68.1104 145.844 68.4 145.655 68.7497C145.459 69.1354 145.357 69.5618 145.357 69.9944C145.357 70.4273 145.459 70.8536 145.655 71.2394C145.846 71.5895 146.129 71.8806 146.473 72.081C146.831 72.2765 147.232 72.379 147.64 72.379C148.047 72.379 148.449 72.2765 148.806 72.081ZM160.814 66.5755C160.292 66.5555 159.773 66.6565 159.296 66.8708C158.894 67.0579 158.56 67.3682 158.346 67.7568V66.605H157.164V73.3677H158.387V70.0249C158.346 69.4076 158.551 68.7992 158.957 68.3326C159.162 68.1309 159.407 67.9742 159.676 67.8725C159.945 67.7708 160.232 67.7264 160.519 67.742C160.618 67.7405 160.716 67.7454 160.814 67.7568V66.5755ZM169.29 70.2263L167.887 71.5287V73.3687H166.662V63.9184H167.887V69.9902L171.573 66.6206H173.049L170.205 69.4171L173.333 73.3687H171.829L169.29 70.2263Z"
    fill="black"
  />
</svg>
