<svg
  width="210"
  height="120"
  viewBox="0 0 210 120"
  fill="none"
  xmlns="http://www.w3.org/2000/svg"
>
<g clip-path="url(#clip0_4121_7300)">
<path
      fill-rule="evenodd"
      clip-rule="evenodd"
      d="M129.552 71.7814L129.396 71.9416C128.458 72.8898 127.333 73.6339 126.093 74.1283L126.031 74.1248C124.891 74.571 123.678 74.8017 122.454 74.8066C120.663 74.8381 118.889 74.4542 117.272 73.6842L117.175 73.6793L116.936 73.5556L116.868 73.5171C115.368 72.7101 114.137 71.4828 113.328 69.9849L113.173 69.7178L109.865 73.2696C109.865 73.2696 109.203 76.6668 108.909 78.3325L108.904 78.4444L108.984 78.5255L109.03 78.5766C112.4 82.2647 117.166 84.3647 122.161 84.3634L122.427 84.3766L122.644 84.3878C125.912 84.3836 129.127 83.55 131.987 81.9661L132.073 81.9214C133.648 81.0326 135.089 79.927 136.356 78.636L136.511 78.4759L129.552 71.7814Z"
      fill="#1D1D1D"
    />
<path
      fill-rule="evenodd"
      clip-rule="evenodd"
      d="M82.815 55.3408L82.8115 55.4037L84.1681 60.4499L84.4416 60.0157C85.8919 57.9038 88.1122 56.4443 90.6262 55.9513L90.7381 55.9569C91.6207 55.7744 92.5228 55.7052 93.4228 55.7485C94.778 55.838 96.0969 56.2226 97.2871 56.8744L97.383 56.9282C99.0249 57.8506 100.477 59.0758 101.661 60.5395L101.852 60.787L105.017 56.3324L106.031 51.6219L105.924 51.5394L105.561 51.2275C103.489 49.3177 101.031 47.8785 98.3515 47.0065C96.9088 46.5694 95.4123 46.3337 93.9053 46.3065L93.8354 46.303C90.4402 46.3156 87.1017 47.1701 84.1178 48.7897L84.0241 48.8408L82.687 54.8233L82.815 55.3408Z"
      fill="#1D1D1D"
    />
<path
      fill-rule="evenodd"
      clip-rule="evenodd"
      d="M112.493 68.206L112.497 68.1151C112.516 67.7445 112.435 66.2913 112.415 65.443L112.426 65.2193C112.377 62.9745 113.114 60.7822 114.509 59.0227L114.555 58.9619C114.756 58.7059 114.972 58.4647 115.201 58.2241C117.023 56.3465 119.525 55.2828 122.141 55.2758C122.559 55.2723 122.976 55.2933 123.391 55.3388L123.461 55.3423C125.611 55.6255 127.611 56.5982 129.161 58.115L129.321 58.2766L136.026 51.5213L135.866 51.359C132.477 48.073 128.022 46.11 123.31 45.8261L123.24 45.8226L121.969 45.7583C119.139 45.7331 116.334 46.2757 113.718 47.3527C111.988 48.0856 110.4 49.1177 109.027 50.4003L108.953 50.4667L108.869 50.4625L108.867 50.5045L108.816 50.5506L108.743 50.6171C108.267 51.0856 107.823 51.5849 107.414 52.1115L107.412 52.1534L106.334 56.8744L102.76 61.8059L102.762 65.2514C102.733 69.0578 100.534 72.5144 97.0973 74.1529L97.033 74.1844C95.7784 74.7522 94.4176 75.0459 93.0399 75.048C87.6126 75.0928 83.1454 70.7879 82.9895 65.3626L82.9412 62.1528L82.9517 61.9437L81.1979 55.0562L82.6888 48.6618L82.53 38.6128L72.8223 35.1833L73.1957 57.4052L73.1908 57.5031L73.3174 65.4144C73.3041 65.6801 73.339 65.9549 73.3537 66.2221C73.3481 66.2703 73.3453 66.3193 73.3467 66.3682C73.73 71.7977 76.3859 76.8124 80.6615 80.1803L80.7286 80.2327C84.2615 83.0334 88.6434 84.5453 93.1518 84.5204L93.8525 84.5062L93.9994 84.5138C98.9512 84.3355 103.037 82.7348 106.198 79.7572L106.257 79.704C106.713 79.2648 107.149 78.804 107.566 78.3138L107.603 78.2663L108.646 72.7173L112.48 68.3172L112.493 68.206Z"
      fill="#1D1D1D"
    />
</g>
<defs>
<clipPath id="clip0_4121_7300">
<rect
        width="64"
        height="49.6326"
        fill="white"
        transform="translate(72.6665 35.1836)"
      />
</clipPath>
</defs>
</svg>
