<svg
  width="210"
  height="120"
  viewBox="0 0 210 120"
  fill="none"
  xmlns="http://www.w3.org/2000/svg"
>
<path
    d="M104.999 28C87.3259 28 73 42.3259 73 60C73 77.6741 87.3259 92 105 92C122.674 92 137 77.6741 137 60C137 42.3259 122.671 28 104.999 28ZM104.999 74.438C97.0372 74.438 90.5591 67.9613 90.5591 59.9985C90.5591 52.0358 97.0372 45.5591 104.999 45.5591C112.96 45.5591 119.438 52.0358 119.438 59.9985C119.438 67.9613 112.961 74.438 104.999 74.438ZM76.5398 59.9985C76.5398 44.9015 88.3594 32.5173 103.229 31.6003V42.1062C94.1299 42.9953 87.0178 50.6661 87.0178 59.9985C87.0178 69.3309 94.1299 77.0018 103.229 77.8908V88.3968C88.3594 87.4798 76.5398 75.097 76.5398 59.9985ZM106.768 88.3968V77.8908C115.867 77.0018 122.979 69.3309 122.979 59.9985C122.979 50.6661 115.867 42.9953 106.768 42.1062V31.6018C121.638 32.5188 133.457 44.9015 133.457 60C133.457 75.0985 121.638 87.4812 106.768 88.3983V88.3968Z"
    fill="black"
  />
</svg>
