<svg
  width="210"
  height="120"
  viewBox="0 0 210 120"
  fill="none"
  xmlns="http://www.w3.org/2000/svg"
>
<path
    fill-rule="evenodd"
    clip-rule="evenodd"
    d="M21.4927 61.2617C21.7101 62.0958 22.1372 62.8314 22.774 63.4684C23.4109 64.1054 24.1464 64.5326 24.9804 64.75C25.8194 64.9623 26.6584 64.9623 27.4975 64.75C28.3467 64.5377 29.0871 64.1155 29.719 63.4836L31.3036 61.8986L33.6312 64.2267L32.0466 65.8117C31.4148 66.4436 30.9877 67.1792 30.7653 68.0184C30.553 68.8576 30.553 69.6968 30.7653 70.536C30.9826 71.3702 31.4122 72.1083 32.0542 72.7503C32.691 73.3873 33.424 73.812 34.2529 74.0243C35.0919 74.2367 35.931 74.2367 36.77 74.0243C37.6142 73.8069 38.3522 73.3823 38.984 72.7503C39.6259 72.1083 40.053 71.3677 40.2652 70.5285C40.4775 69.6892 40.4775 68.85 40.2652 68.0108C40.058 67.1766 39.636 66.4411 38.9991 65.8041L37.4297 64.2343L39.7649 61.8986L41.3343 63.4684C41.9712 64.1054 42.7041 64.5301 43.5331 64.7424C44.3721 64.9548 45.2086 64.9572 46.0426 64.75C46.8816 64.5377 47.6221 64.1105 48.2641 63.4684C48.901 62.8314 49.3255 62.0933 49.5378 61.2541C49.7551 60.4199 49.7551 59.5858 49.5378 58.7516C49.3255 57.9124 48.901 57.1743 48.2641 56.5373C47.6221 55.8953 46.8816 55.4681 46.0426 55.2557C45.2086 55.0383 44.3721 55.0358 43.5331 55.2481C42.699 55.4655 41.9636 55.8927 41.3267 56.5297L39.7573 58.0995L37.4297 55.7714L38.9991 54.2017C39.636 53.5647 40.058 52.824 40.2652 51.9797C40.4775 51.1405 40.475 50.3038 40.2577 49.4697C40.0454 48.6305 39.6208 47.8924 38.984 47.2554C38.3471 46.6184 37.6091 46.1937 36.77 45.9814C35.936 45.764 35.0995 45.7615 34.2605 45.9738C33.4214 46.1861 32.6835 46.6108 32.0466 47.2478C31.4047 47.8898 30.9776 48.6305 30.7653 49.4697C30.558 50.3038 30.5605 51.1405 30.7728 51.9797C30.9901 52.8139 31.4173 53.5495 32.0542 54.1865L33.6312 55.7638L31.296 58.0995L29.719 56.5221C29.0821 55.8851 28.3442 55.4605 27.5051 55.2481C26.666 55.0358 25.827 55.0358 24.9879 55.2481C24.1489 55.4605 23.4084 55.8877 22.7665 56.5297C22.1346 57.1617 21.7101 57.8998 21.4927 58.744C21.2804 59.5832 21.2804 60.4225 21.4927 61.2617ZM25.6703 62.1489C25.2912 62.0529 24.9576 61.8607 24.6695 61.5726C24.3814 61.2844 24.1868 60.9482 24.0857 60.564C23.9897 60.1849 23.9897 59.8057 24.0857 59.4265C24.1868 59.0524 24.3814 58.7213 24.6695 58.4331C24.9626 58.1399 25.2988 57.9453 25.6779 57.8492C26.057 57.7532 26.4361 57.7532 26.8151 57.8492C27.1993 57.9402 27.5354 58.1298 27.8235 58.4179L29.4005 59.9953L27.8159 61.5802C27.5278 61.8683 27.1942 62.0604 26.8151 62.1565C26.4361 62.2526 26.0544 62.25 25.6703 62.1489ZM35.5267 53.868L33.9496 52.2906C33.6615 52.0025 33.4644 51.6688 33.3582 51.2897C33.2622 50.9105 33.2622 50.5313 33.3582 50.1522C33.4644 49.773 33.6615 49.4393 33.9496 49.1512C34.2428 48.858 34.5764 48.6658 34.9504 48.5748C35.3295 48.4788 35.7086 48.4788 36.0877 48.5748C36.4668 48.6709 36.8003 48.863 37.0885 49.1512C37.3766 49.4393 37.5687 49.773 37.6647 50.1522C37.7658 50.5364 37.7684 50.9181 37.6723 51.2973C37.5813 51.6714 37.3892 52.005 37.096 52.2982L35.5267 53.868ZM42.7857 61.5726L41.2163 60.0028L42.7857 58.4331C43.0789 58.1399 43.41 57.9453 43.779 57.8492C44.158 57.7532 44.9811 57.7532 45.3602 57.8492C45.7393 57.9453 46.0754 58.1399 46.3686 58.4331C46.6567 58.7213 46.8488 59.0549 46.9449 59.4341C47.0409 59.8133 47.0384 60.1899 46.9373 60.564C46.8463 60.9381 46.6542 61.2718 46.361 61.565C46.0679 61.8582 45.7318 62.0529 45.3527 62.1489C44.9786 62.25 44.158 62.2526 43.779 62.1565C43.4049 62.0554 43.0738 61.8607 42.7857 61.5726ZM34.9504 71.4308C34.5713 71.3348 34.2377 71.1427 33.9496 70.8545C33.6565 70.5613 33.4619 70.2251 33.3658 69.846C33.2698 69.4668 33.2698 69.0876 33.3658 68.7084C33.4669 68.3343 33.6615 68.0032 33.9496 67.7151L35.5342 66.1301L37.1036 67.6999C37.3917 67.988 37.5813 68.3242 37.6723 68.7084C37.7684 69.0876 37.7658 69.4643 37.6647 69.8384C37.5687 70.2175 37.3741 70.5537 37.0809 70.8469C36.7928 71.1351 36.4592 71.3272 36.0801 71.4232C35.7061 71.5244 35.3295 71.5269 34.9504 71.4308ZM35.5267 62.3309L33.199 60.0028L35.5342 57.6672L37.8618 59.9953L35.5267 62.3309ZM62.293 52.849C64.9363 52.849 66.6355 54.6562 67.2829 56.5982V47.2118H70.6275V67.7108H67.2829V64.6089C66.4467 66.6049 64.5047 68.0344 62.293 68.0344C58.7326 68.0344 56.1972 64.8517 56.1972 60.4282C56.1972 56.0048 58.7596 52.849 62.293 52.849ZM59.6227 60.4282C59.6227 63.6379 60.9983 65.6609 63.5067 65.6609C66.0152 65.6609 67.3908 63.6379 67.3908 60.4282C67.3908 57.2455 66.0152 55.2226 63.5067 55.2226C60.9983 55.2226 59.6227 57.2455 59.6227 60.4282ZM79.1376 65.6595L74.7141 53.1714H71.3156L75.9818 66.1451H78.9757L76.8449 72.996H80.3244L86.555 53.1714H83.0216L79.1376 65.6595ZM99.6898 56.4342C100.283 54.6541 101.686 52.8469 104.275 52.8469C107.512 52.8469 109.022 55.2475 109.022 58.565V67.7086H105.651V59.2124C105.651 56.4882 104.68 55.2475 102.792 55.2475C100.877 55.2475 99.9056 56.4882 99.9056 59.2663V67.7086H96.5341V59.2124C96.5341 56.4882 95.5631 55.2475 93.675 55.2475C91.76 55.2475 90.789 56.4882 90.789 59.2663V67.7086H87.4174V53.1706H90.762V56.1645C91.4093 54.4113 92.731 52.8469 95.1855 52.8469C97.6939 52.8469 99.1504 54.5731 99.6898 56.4342ZM124.785 60.3452C124.785 55.8139 121.98 52.8469 117.692 52.8469C113.322 52.8469 110.544 55.9757 110.544 60.4261C110.544 64.8496 113.241 68.0323 117.692 68.0323C121.09 68.0323 123.545 66.5219 124.462 63.42H121.036C120.524 64.8226 119.58 65.6587 117.718 65.6587C115.669 65.6587 114.239 64.2292 113.969 61.4241H124.704C124.758 61.0465 124.785 60.6689 124.785 60.3452ZM117.692 55.2205C119.768 55.2205 121.171 56.7579 121.333 59.0775H113.996C114.347 56.4612 115.723 55.2205 117.692 55.2205ZM129.761 56.1375C130.436 54.3574 131.865 52.8469 134.374 52.8469C137.718 52.8469 139.31 55.3284 139.31 58.565V67.7086H135.938V59.2124C135.938 56.4612 134.778 55.2475 132.863 55.2475C130.975 55.2475 129.788 56.4882 129.788 59.2663V67.7086H126.417V53.1706H129.761V56.1375ZM147.11 68.0325C150.832 68.0325 153.557 66.3602 153.557 63.4742C153.557 61.1546 152.235 59.806 149.187 59.1587L146.895 58.6732C145.141 58.2955 144.251 57.9449 144.251 56.9469C144.251 55.8411 145.573 55.2207 147.029 55.2207C148.324 55.2207 149.511 55.8141 149.888 56.893H153.287C152.667 54.1958 150.077 52.8471 147.002 52.8471C143.685 52.8471 140.988 54.5464 140.988 57.2167C140.988 59.4284 142.606 60.6421 145.249 61.2085L147.542 61.721C149.646 62.1526 150.32 62.692 150.32 63.7979C150.32 64.9307 149.241 65.659 147.191 65.659C145.816 65.659 144.413 65.1465 144.062 63.3933H140.664C141.095 66.4681 143.712 68.0325 147.11 68.0325ZM158.596 47.2112V50.9333H155.062V47.2112H158.596ZM158.515 53.172V67.7101H155.143V53.172H158.515ZM167.484 68.0325C171.988 68.0325 174.821 64.9307 174.821 60.4264C174.821 55.949 171.988 52.8471 167.484 52.8471C163.007 52.8471 160.175 55.949 160.175 60.4264C160.175 64.9307 163.007 68.0325 167.484 68.0325ZM167.484 65.659C165.003 65.659 163.6 63.636 163.6 60.4264C163.6 57.2436 165.003 55.2207 167.484 55.2207C169.993 55.2207 171.368 57.2436 171.368 60.4264C171.368 63.636 169.993 65.659 167.484 65.659ZM179.785 56.1378C180.459 54.3576 181.889 52.8471 184.397 52.8471C187.742 52.8471 189.333 55.3286 189.333 58.5653V67.7089H185.962V59.2126C185.962 56.4614 184.802 55.2477 182.887 55.2477C180.999 55.2477 179.812 56.4884 179.812 59.2665V67.7089H176.44V53.1708H179.785V56.1378Z"
    fill="black"
  />
</svg>
