<svg
  width="210"
  height="120"
  viewBox="0 0 210 120"
  fill="none"
  xmlns="http://www.w3.org/2000/svg"
>
<path
    fill-rule="evenodd"
    clip-rule="evenodd"
    d="M81.9309 58.7317H91.0216C90.9554 58.0764 90.7931 57.4691 90.5286 56.922C90.1618 56.1585 89.6447 55.5632 88.9654 55.1364C88.304 54.7035 87.5104 54.4931 86.5845 54.4931C85.6405 54.4931 84.8168 54.7155 84.1014 55.1604C83.3919 55.6053 82.8328 56.2306 82.4359 57.0242C82.1834 57.5353 82.0151 58.1064 81.9309 58.7317ZM83.3799 65.724C84.42 66.3011 85.6105 66.5957 86.9512 66.5957C87.7268 66.5957 88.5385 66.4454 89.3802 66.1508C90.2219 65.8382 90.9194 65.4474 91.4665 64.9844C91.6649 64.8161 91.7551 64.6177 91.7371 64.3892C91.7371 64.1548 91.6288 63.9443 91.4124 63.7459C91.244 63.6137 91.0456 63.5535 90.8172 63.5716C90.5827 63.5716 90.3783 63.6437 90.1979 63.794C89.8372 64.1067 89.3441 64.3712 88.7369 64.5876C88.1417 64.786 87.5464 64.8822 86.9512 64.8822C85.9592 64.8822 85.0814 64.6598 84.3178 64.2149C83.5542 63.77 82.953 63.1567 82.5081 62.3812C82.1654 61.7679 81.961 61.0825 81.8948 60.325H91.9174C92.182 60.325 92.3984 60.2528 92.5607 60.1025C92.7231 59.9402 92.8072 59.7237 92.8072 59.4592C92.8072 58.1665 92.5487 57.0182 92.0377 56.0082C91.5266 54.9981 90.7991 54.2165 89.8552 53.6513C88.9293 53.0742 87.835 52.7856 86.5784 52.7856C85.3038 52.7856 84.1795 53.0802 83.2055 53.6814C82.2315 54.2766 81.462 55.0943 80.8968 56.1404C80.3497 57.1685 80.0791 58.3589 80.0791 59.7117C80.0791 61.0524 80.3677 62.2429 80.9449 63.283C81.5461 64.3111 82.3518 65.1287 83.3799 65.724ZM111.391 58.7317H102.301C102.385 58.1064 102.553 57.5413 102.812 57.0182C103.209 56.2246 103.762 55.6053 104.477 55.1544C105.187 54.7095 106.016 54.4871 106.96 54.4871C107.886 54.4871 108.68 54.7035 109.341 55.1304C110.021 55.5572 110.538 56.1584 110.904 56.916C111.163 57.4691 111.331 58.0704 111.391 58.7317ZM107.327 66.5957C105.986 66.5957 104.796 66.3072 103.756 65.724C102.728 65.1287 101.922 64.3111 101.327 63.265C100.75 62.2248 100.455 61.0344 100.455 59.6937C100.455 58.3349 100.726 57.1445 101.273 56.1224C101.832 55.0823 102.601 54.2586 103.581 53.6634C104.555 53.0682 105.68 52.7675 106.954 52.7675C108.211 52.7675 109.305 53.0561 110.231 53.6333C111.175 54.1985 111.902 54.9801 112.414 55.9901C112.925 57.0002 113.183 58.1485 113.183 59.4411C113.183 59.7057 113.099 59.9221 112.937 60.0845C112.768 60.2348 112.558 60.3069 112.293 60.3069H102.271C102.343 61.0645 102.547 61.7499 102.89 62.3631C103.335 63.1387 103.942 63.7519 104.7 64.1968C105.463 64.6418 106.335 64.8642 107.333 64.8642C107.928 64.8642 108.524 64.768 109.119 64.5696C109.732 64.3532 110.219 64.0886 110.58 63.776C110.76 63.6257 110.971 63.5535 111.199 63.5535C111.427 63.5355 111.626 63.5956 111.794 63.7279C112.011 63.9263 112.119 64.1427 112.119 64.3712C112.137 64.6057 112.047 64.8041 111.848 64.9664C111.301 65.4294 110.61 65.8202 109.762 66.1328C108.914 66.4454 108.103 66.5957 107.327 66.5957ZM157.759 64.8582C158.721 64.8582 159.568 64.6357 160.314 64.1908C161.077 63.7459 161.673 63.1327 162.1 62.3571C162.544 61.5635 162.767 60.6797 162.767 59.6997C162.767 58.7076 162.544 57.8239 162.1 57.0423C161.673 56.2667 161.071 55.6534 160.314 55.2085C159.568 54.7456 158.715 54.5111 157.759 54.5111C156.815 54.5111 155.961 54.7456 155.203 55.2085C154.44 55.6534 153.839 56.2667 153.394 57.0423C152.949 57.8178 152.726 58.7076 152.726 59.6997C152.726 60.6737 152.949 61.5635 153.394 62.3571C153.839 63.1327 154.446 63.7459 155.203 64.1908C155.961 64.6357 156.815 64.8582 157.759 64.8582ZM157.56 66.5957C156.286 66.5957 155.143 66.3011 154.133 65.7059C153.123 65.0927 152.323 64.269 151.728 63.2229C151.151 62.1827 150.862 61.0043 150.862 59.6997C150.862 58.377 151.163 57.1926 151.758 56.1524C152.372 55.1123 153.195 54.2947 154.241 53.6934C155.282 53.0802 156.46 52.7736 157.765 52.7736C159.069 52.7736 160.236 53.0802 161.264 53.6934C162.304 54.2886 163.128 55.1063 163.723 56.1524C164.336 57.1926 164.649 58.377 164.667 59.6997V65.5316C164.667 65.8141 164.577 66.0426 164.396 66.223C164.216 66.3913 163.981 66.4695 163.705 66.4695C163.422 66.4695 163.194 66.3853 163.007 66.223C162.827 66.0426 162.737 65.8081 162.737 65.5316V64.0225C162.232 64.7319 161.582 65.3211 160.801 65.7781C159.845 66.3252 158.769 66.5957 157.56 66.5957ZM143.095 58.1064V65.5255C143.095 65.8202 143.01 66.0546 142.848 66.217C142.68 66.3853 142.451 66.4635 142.151 66.4635C141.856 66.4635 141.621 66.3793 141.453 66.217C141.291 66.0486 141.207 65.8202 141.207 65.5255V53.8437C141.207 53.5491 141.291 53.3147 141.453 53.1463C141.615 52.978 141.85 52.8998 142.151 52.8998C142.451 52.8998 142.68 52.984 142.848 53.1463C143.016 53.3086 143.095 53.5431 143.095 53.8437V54.9139C143.539 54.3127 144.075 53.8197 144.706 53.4469C145.499 52.984 146.377 52.7495 147.339 52.7495C148.103 52.7495 148.686 52.8577 149.101 53.0742C149.516 53.2906 149.672 53.6033 149.57 54.0181C149.504 54.2646 149.389 54.4329 149.221 54.5111C149.071 54.5953 148.884 54.6253 148.65 54.6133C148.505 54.6013 148.347 54.5919 148.174 54.5816L148.174 54.5816C148.088 54.5765 147.998 54.5712 147.904 54.5652C146.978 54.481 146.149 54.5832 145.421 54.8598C144.712 55.1244 144.141 55.5392 143.708 56.0983C143.299 56.6635 143.095 57.3308 143.095 58.1064ZM136.535 66.4695C135.657 66.4695 134.87 66.2651 134.178 65.8502C133.499 65.4354 132.964 64.8762 132.567 64.1608C132.17 63.4333 131.972 62.6036 131.972 61.6777V55.0522H130.36C130.114 55.0522 129.903 54.9801 129.741 54.8298C129.573 54.6614 129.495 54.463 129.495 54.2345C129.495 53.988 129.579 53.7896 129.741 53.6393C129.903 53.471 130.114 53.3928 130.36 53.3928H131.972V49.545C131.972 49.2624 132.056 49.0339 132.218 48.8476C132.399 48.6672 132.633 48.577 132.916 48.577C133.198 48.577 133.427 48.6672 133.613 48.8476C133.793 49.0279 133.884 49.2624 133.884 49.545V53.3928H136.685C136.932 53.3928 137.142 53.477 137.305 53.6393C137.473 53.7896 137.551 53.988 137.551 54.2345C137.551 54.469 137.467 54.6674 137.305 54.8298C137.142 54.9801 136.932 55.0522 136.685 55.0522H133.884V61.6777C133.884 62.5194 134.13 63.2168 134.629 63.764C135.128 64.293 135.765 64.5576 136.541 64.5576H137.208C137.473 64.5576 137.689 64.6478 137.852 64.8281C138.02 65.0085 138.098 65.243 138.098 65.5255C138.098 65.8081 137.996 66.0366 137.798 66.217C137.599 66.3853 137.353 66.4635 137.052 66.4635H136.535V66.4695ZM118.997 65.6999C120.025 66.2951 121.192 66.5897 122.496 66.5897C124.3 66.5897 125.803 66.0366 127.011 64.9243C127.192 64.756 127.27 64.5636 127.234 64.3291C127.216 64.1007 127.108 63.8902 126.909 63.7099C126.729 63.5595 126.53 63.4934 126.314 63.5114C126.098 63.5295 125.893 63.6197 125.695 63.782C125.28 64.1487 124.799 64.4193 124.258 64.5997C123.729 64.768 123.14 64.8462 122.496 64.8462C121.534 64.8462 120.687 64.6237 119.941 64.1788C119.195 63.7339 118.618 63.1207 118.203 62.3451C117.789 61.5695 117.584 60.6797 117.584 59.6877C117.584 58.6776 117.777 57.7878 118.155 57.0062C118.552 56.2306 119.099 55.6173 119.791 55.1724C120.5 54.7275 121.324 54.4991 122.25 54.4991C123.705 54.4991 124.913 55.0462 125.875 56.1344C126.044 56.3328 126.23 56.4591 126.446 56.5072C126.681 56.5372 126.885 56.4891 127.066 56.3569C127.294 56.1945 127.438 56.0021 127.486 55.7857C127.535 55.5512 127.468 55.3408 127.288 55.1424C126.645 54.3488 125.887 53.7536 125.027 53.3567C124.186 52.9599 123.26 52.7615 122.25 52.7615C120.975 52.7615 119.851 53.0682 118.877 53.6814C117.903 54.2766 117.133 55.0943 116.568 56.1404C116.009 57.1805 115.726 58.365 115.726 59.6877C115.726 60.9923 116.015 62.1707 116.592 63.2108C117.187 64.263 117.987 65.0927 118.997 65.6999ZM96.571 65.9284C97.1001 66.2891 97.6953 66.4755 98.3566 66.4755H98.6813C99.012 66.4755 99.2765 66.3913 99.4749 66.229C99.6914 66.0486 99.7996 65.8141 99.7996 65.5376C99.7996 65.255 99.7274 65.0325 99.5771 64.8642C99.4268 64.6838 99.2284 64.5937 98.9819 64.5937H98.3627C97.9177 64.5937 97.545 64.3712 97.2444 63.9263C96.9618 63.4814 96.8235 62.8982 96.8235 62.1888V48.0419C96.8235 47.7593 96.7333 47.5369 96.5529 47.3745C96.3846 47.1942 96.1621 47.104 95.8795 47.104C95.597 47.104 95.3685 47.1942 95.1881 47.3745C95.0198 47.5429 94.9416 47.7654 94.9416 48.0419V62.1888C94.9416 63.0305 95.0799 63.776 95.3625 64.4193C95.6511 65.0566 96.0599 65.5616 96.571 65.9284ZM133.288 73.7621C133.589 73.7621 133.853 73.6899 134.094 73.5516C134.334 73.4134 134.515 73.221 134.653 72.9805C134.791 72.734 134.863 72.4574 134.863 72.1508C134.863 71.8382 134.791 71.5676 134.653 71.3211C134.521 71.0806 134.334 70.8882 134.094 70.7499C133.859 70.6056 133.589 70.5335 133.288 70.5335C132.993 70.5335 132.729 70.6056 132.488 70.7499C132.254 70.8882 132.068 71.0806 131.929 71.3211C131.797 71.5616 131.731 71.8382 131.731 72.1508C131.731 72.4574 131.797 72.734 131.929 72.9805C132.062 73.221 132.248 73.4134 132.488 73.5516C132.729 73.6899 132.993 73.7621 133.288 73.7621ZM131.442 76.0768C131.352 76.0768 131.274 76.0467 131.22 75.9926C131.166 75.9445 131.142 75.8664 131.142 75.7762V72.1207C131.148 71.7179 131.244 71.3572 131.43 71.0385C131.623 70.7139 131.875 70.4553 132.194 70.275C132.518 70.0886 132.885 69.9984 133.288 69.9984C133.703 69.9984 134.07 70.0946 134.394 70.287C134.719 70.4734 134.978 70.7259 135.158 71.0505C135.35 71.3752 135.447 71.7419 135.447 72.1568C135.447 72.5656 135.356 72.9324 135.17 73.257C134.99 73.5817 134.743 73.8402 134.424 74.0326C134.112 74.219 133.751 74.3092 133.354 74.3092C133.006 74.3092 132.693 74.237 132.41 74.0927C132.134 73.9424 131.905 73.7501 131.737 73.5036V75.7822C131.737 75.8724 131.707 75.9505 131.653 75.9986C131.599 76.0467 131.532 76.0768 131.442 76.0768ZM136.691 74.1821C136.745 74.2362 136.818 74.2603 136.908 74.2603C137.004 74.2603 137.076 74.2362 137.124 74.1821C137.178 74.134 137.202 74.0559 137.202 73.9657V71.4723C137.227 71.3027 137.288 71.151 137.383 71.0197C137.515 70.8453 137.695 70.7191 137.918 70.6349C138.146 70.5507 138.405 70.5207 138.693 70.5447C138.784 70.5507 138.862 70.5567 138.928 70.5628C139.006 70.5688 139.06 70.5567 139.108 70.5327C139.156 70.5026 139.193 70.4545 139.217 70.3764C139.253 70.2501 139.199 70.1479 139.072 70.0818C138.946 70.0156 138.76 69.9796 138.525 69.9796C138.231 69.9796 137.954 70.0517 137.707 70.196C137.511 70.3139 137.343 70.4678 137.202 70.6578V70.3162C137.202 70.2261 137.178 70.1539 137.124 70.0998C137.07 70.0457 136.998 70.0217 136.908 70.0217C136.818 70.0217 136.745 70.0457 136.691 70.0998C136.637 70.1539 136.613 70.2261 136.613 70.3162V73.9657C136.613 74.0559 136.643 74.128 136.691 74.1821ZM136.866 71.645H136.866V71.651L136.866 71.645ZM141.778 73.7621C142.078 73.7621 142.349 73.6899 142.584 73.5516C142.824 73.4134 143.004 73.221 143.143 72.9805C143.275 72.74 143.347 72.4634 143.347 72.1508C143.347 71.8382 143.281 71.5616 143.143 71.3211C143.01 71.0746 142.824 70.8822 142.584 70.7379C142.349 70.5996 142.078 70.5275 141.778 70.5275C141.477 70.5275 141.213 70.5936 140.972 70.7379C140.732 70.8762 140.545 71.0686 140.407 71.3211C140.275 71.5616 140.209 71.8382 140.209 72.1508C140.209 72.4574 140.275 72.734 140.407 72.9805C140.545 73.221 140.732 73.4134 140.972 73.5516C141.213 73.6899 141.477 73.7621 141.778 73.7621ZM141.778 74.3032C141.363 74.3032 140.996 74.207 140.672 74.0266C140.347 73.8402 140.088 73.5877 139.908 73.263C139.722 72.9384 139.631 72.5656 139.631 72.1568C139.631 71.7359 139.722 71.3692 139.908 71.0385C140.094 70.7139 140.347 70.4613 140.672 70.275C140.996 70.0886 141.363 69.9984 141.778 69.9984C142.193 69.9984 142.559 70.0886 142.878 70.275C143.203 70.4613 143.455 70.7139 143.642 71.0385C143.828 71.3632 143.924 71.7359 143.93 72.1568C143.93 72.5716 143.834 72.9384 143.642 73.263C143.455 73.5877 143.203 73.8402 142.878 74.0266C142.559 74.207 142.193 74.3032 141.778 74.3032ZM144.627 70.6293C144.675 70.6774 144.741 70.7015 144.819 70.7015H145.318V72.7637C145.318 73.0522 145.379 73.3108 145.505 73.5392C145.631 73.7617 145.799 73.9421 146.01 74.0683C146.226 74.1946 146.473 74.2607 146.743 74.2607V74.2547H146.912C147.008 74.2547 147.086 74.2306 147.146 74.1765C147.206 74.1224 147.236 74.0503 147.236 73.9601C147.236 73.8699 147.212 73.7978 147.158 73.7437C147.104 73.6895 147.038 73.6595 146.954 73.6595H146.743C146.503 73.6595 146.304 73.5753 146.148 73.413C145.992 73.2446 145.914 73.0282 145.914 72.7637V70.7015H146.791C146.87 70.7015 146.93 70.6774 146.984 70.6293C147.038 70.5752 147.062 70.5151 147.062 70.4429C147.062 70.3648 147.032 70.3046 146.984 70.2565C146.936 70.2024 146.87 70.1784 146.791 70.1784H145.914V68.9759C145.914 68.8918 145.884 68.8196 145.829 68.7595C145.775 68.7054 145.697 68.6753 145.613 68.6753C145.523 68.6753 145.451 68.7054 145.397 68.7595C145.342 68.8136 145.318 68.8858 145.318 68.9759V70.1784H144.819C144.741 70.1784 144.681 70.2024 144.627 70.2565C144.573 70.3046 144.549 70.3648 144.549 70.4429C144.549 70.5151 144.579 70.5752 144.627 70.6293ZM150.135 73.7624C150.436 73.7624 150.7 73.6903 150.941 73.552C151.175 73.4137 151.362 73.2213 151.5 72.9808C151.632 72.7403 151.698 72.4638 151.698 72.1511C151.698 71.8385 151.632 71.5619 151.5 71.3214C151.368 71.0749 151.181 70.8826 150.941 70.7383C150.7 70.6 150.436 70.5278 150.135 70.5278C149.835 70.5278 149.564 70.594 149.33 70.7383C149.095 70.8765 148.903 71.0689 148.764 71.3214C148.632 71.5619 148.56 71.8385 148.56 72.1511C148.56 72.4578 148.626 72.7343 148.764 72.9808C148.903 73.2213 149.089 73.4137 149.33 73.552C149.564 73.6903 149.835 73.7624 150.135 73.7624ZM150.135 74.3035C149.72 74.3035 149.354 74.2073 149.029 74.027C148.704 73.8406 148.446 73.5881 148.265 73.2634C148.079 72.9387 147.989 72.566 147.989 72.1571C147.989 71.7363 148.079 71.3695 148.265 71.0389C148.452 70.7142 148.704 70.4617 149.029 70.2753C149.354 70.0889 149.72 69.9987 150.135 69.9987C150.55 69.9987 150.917 70.0889 151.235 70.2753C151.56 70.4617 151.819 70.7142 152.005 71.0389C152.191 71.3635 152.288 71.7363 152.294 72.1571C152.294 72.572 152.197 72.9387 152.005 73.2634C151.819 73.5881 151.566 73.8406 151.235 74.027C150.911 74.2073 150.544 74.3035 150.135 74.3035ZM154.242 74.0264C154.567 74.2067 154.928 74.3029 155.336 74.3029C155.896 74.3029 156.364 74.1286 156.737 73.7919C156.797 73.7378 156.821 73.6776 156.809 73.6055C156.803 73.5333 156.767 73.4732 156.707 73.4131C156.647 73.371 156.587 73.347 156.521 73.353C156.455 73.359 156.389 73.383 156.328 73.4371C156.196 73.5454 156.046 73.6356 155.877 73.6897C155.715 73.7438 155.535 73.7678 155.33 73.7678C155.03 73.7678 154.765 73.6957 154.531 73.5574C154.302 73.4191 154.122 73.2267 153.99 72.9862C153.863 72.7397 153.797 72.4632 153.797 72.1565C153.797 71.8439 153.857 71.5613 153.978 71.3208C154.104 71.0803 154.272 70.8879 154.489 70.7497C154.711 70.6054 154.964 70.5392 155.252 70.5392C155.709 70.5392 156.082 70.7076 156.383 71.0503C156.437 71.1104 156.497 71.1525 156.563 71.1645C156.635 71.1705 156.701 71.1585 156.755 71.1164C156.827 71.0623 156.87 71.0022 156.888 70.936C156.906 70.8639 156.882 70.7978 156.827 70.7376C156.629 70.4851 156.395 70.3048 156.124 70.1785C155.859 70.0523 155.571 69.9921 155.258 69.9921C154.861 69.9921 154.513 70.0883 154.206 70.2807C153.899 70.4671 153.659 70.7196 153.485 71.0443C153.31 71.3689 153.22 71.7357 153.22 72.1505C153.22 72.5594 153.31 72.9261 153.491 73.2508C153.677 73.5754 153.929 73.834 154.242 74.0264ZM159.984 73.7624C160.285 73.7624 160.555 73.6903 160.79 73.552C161.03 73.4137 161.21 73.2213 161.349 72.9808C161.481 72.7403 161.553 72.4638 161.553 72.1511C161.553 71.8385 161.487 71.5619 161.349 71.3214C161.216 71.0749 161.03 70.8826 160.79 70.7383C160.555 70.6 160.285 70.5278 159.984 70.5278C159.683 70.5278 159.419 70.594 159.178 70.7383C158.938 70.8765 158.751 71.0689 158.613 71.3214C158.481 71.5619 158.415 71.8385 158.415 72.1511C158.415 72.4578 158.481 72.7343 158.613 72.9808C158.751 73.2213 158.938 73.4137 159.178 73.552C159.419 73.6903 159.683 73.7624 159.984 73.7624ZM159.984 74.3035C159.569 74.3035 159.202 74.2073 158.878 74.027C158.553 73.8406 158.294 73.5881 158.108 73.2634C157.922 72.9387 157.831 72.566 157.831 72.1571C157.831 71.7363 157.922 71.3695 158.108 71.0389C158.294 70.7142 158.547 70.4617 158.878 70.2753C159.208 70.0889 159.575 69.9987 159.984 69.9987C160.399 69.9987 160.766 70.0889 161.084 70.2753C161.409 70.4617 161.667 70.7142 161.848 71.0389C162.034 71.3635 162.13 71.7363 162.136 72.1571C162.136 72.572 162.04 72.9387 161.848 73.2634C161.661 73.5881 161.409 73.8406 161.084 74.027C160.766 74.2073 160.399 74.3035 159.984 74.3035ZM163.651 74.0925C163.82 74.2067 164.006 74.2608 164.21 74.2608H164.313C164.415 74.2608 164.499 74.2368 164.559 74.1827C164.625 74.1286 164.661 74.0564 164.661 73.9662C164.661 73.8761 164.637 73.8099 164.589 73.7558C164.541 73.7017 164.481 73.6716 164.403 73.6716H164.21C164.072 73.6716 163.952 73.5995 163.862 73.4612C163.771 73.3229 163.729 73.1426 163.729 72.9201V68.5071C163.729 68.4169 163.705 68.3508 163.645 68.2967C163.591 68.2426 163.519 68.2125 163.435 68.2125C163.351 68.2125 163.278 68.2426 163.218 68.2967C163.164 68.3508 163.14 68.4169 163.14 68.5071V72.9201C163.14 73.1847 163.182 73.4131 163.272 73.6175C163.363 73.822 163.489 73.9783 163.651 74.0925Z"
    fill="black"
  />
<rect
    x="44.6665"
    y="43.9231"
    width="30.0617"
    height="30.0613"
    rx="15.0306"
    fill="black"
  />
<path
    d="M53.7743 61.4573L57.8972 59.079V57.407L59.5512 56.4532L60.9999 57.2862L64.7968 55.0951L65.0201 55.4814L61.2112 57.6786V59.3144L59.5572 60.2682L58.1386 59.4472L53.9977 61.8376L53.7743 61.4573ZM53.4846 60.3225C53.382 59.8758 53.3276 59.411 53.3276 58.9402C53.3276 55.415 56.1828 52.5598 59.7081 52.5598C61.3983 52.5598 62.9315 53.2178 64.0724 54.2862C64.1147 54.3285 64.1026 54.3948 64.0543 54.425L61.8812 55.6806C61.2595 55.1373 60.4506 54.8114 59.5572 54.8114C57.6014 54.8114 56.0138 56.3989 56.0138 58.3547C56.0138 58.584 56.038 58.8074 56.0802 59.0247L53.6959 60.401C53.6053 60.4553 53.5027 60.413 53.4846 60.3225ZM68.3281 57.5518C68.316 57.4734 68.2254 57.4311 68.153 57.4734L66.167 58.6203C66.1067 58.6565 66.0705 58.7229 66.0705 58.7953C66.0705 58.8436 66.0765 58.8919 66.0765 58.9462C66.0765 62.4714 63.2213 65.3266 59.696 65.3266C57.6074 65.3266 55.7543 64.3246 54.5953 62.7732C54.547 62.7129 54.5651 62.6163 54.6375 62.5801L57.2513 61.071C57.867 61.5962 58.6698 61.9161 59.5512 61.9161C61.5069 61.9161 63.0945 60.3285 63.0945 58.3728C63.0945 58.1555 63.0704 57.9382 63.0342 57.7329L67.4588 55.1796C67.5132 55.1494 67.5313 55.083 67.5071 55.0287C66.0342 52.1071 62.9677 50.1211 59.4425 50.2177C54.9031 50.3505 51.1787 54.0025 50.9674 58.5418C50.738 63.558 54.7341 67.6928 59.696 67.6928C64.5191 67.6928 68.4367 63.7813 68.4367 58.9523C68.4428 58.4633 68.4005 58.0046 68.3281 57.5518Z"
    fill="white"
  />
</svg>
