<svg
  width="210"
  height="120"
  viewBox="0 0 210 120"
  fill="none"
  xmlns="http://www.w3.org/2000/svg"
>
<path
    fill-rule="evenodd"
    clip-rule="evenodd"
    d="M21.333 51.4193L36.2369 43.1436L42.2906 46.5029L41.6711 49.3474L36.2369 46.3179L24.1704 53.0257V69.5663L21.333 67.9955V51.4193ZM35.127 66.7756L35.8377 67.1828L42.235 63.5192L45.0268 65.2239L35.8377 70.4775L32.2705 68.442V57.9476L35.8377 55.8994L38.7188 57.5531L35.127 59.6141V66.7756ZM26.8028 54.7559V71.6218L35.8633 76.8562L50.493 68.4037V51.5004L47.7085 53.1286V66.7645L35.8633 73.6144L29.5882 69.9826V56.3968L35.8633 52.7651L42.1385 56.3841L44.923 54.7805V54.7559L35.8633 49.5224L26.8028 54.7559ZM70.2615 51.7993H59.3731V67.7441H62.0155V61.184H69.1681V58.9289H62.0155V54.0544H70.2615V51.7993ZM75.0761 51.7993H72.4337V67.7441H75.0761V51.7993ZM90.489 62.5962V67.7441H87.8466V63.234L86.2065 61.4345H81.0129V67.7441H78.3705V51.7993H88.0744L90.3979 54.1455V59.0428L88.735 60.7056L90.489 62.5962ZM81.0129 59.2478H86.8899L87.801 58.3367V54.9427L86.8899 54.0316H81.0129V59.2478ZM96.0924 51.7993H93.564V67.7441H96.0924V57.0839H96.138L100.124 65.7168H101.856L105.865 57.0839H105.91V67.7441H108.439V51.7993H105.887L101.013 62.7784H100.967L96.0924 51.7993ZM116.046 51.7993H118.552L124.315 67.7441H121.627L120.26 63.9629H114.315L112.948 67.7441H110.26L116.046 51.7993ZM119.645 61.7534L117.299 55.0111H117.253L114.953 61.7534H119.645ZM125.569 54.3733V65.1702L128.143 67.7441H135.615L138.143 65.2157V63.1201H135.501V64.2818L134.294 65.4663H129.51L128.212 64.1907V55.3527L129.51 54.0772H134.294L135.501 55.2616V56.4233H138.143V54.3277L135.615 51.7993H128.143L125.569 54.3733ZM140.546 51.7993H143.188V58.6556H150.432V51.7993H153.074V67.7441H150.432V60.9334H143.188V67.7441H140.546V51.7993ZM163.198 51.7993H160.692L154.906 67.7441H157.594L158.961 63.9629H164.906L166.273 67.7441H168.961L163.198 51.7993ZM161.945 55.0111L164.291 61.7534H159.599L161.9 55.0111H161.945ZM170.891 51.7993H173.533V67.7441H170.891V51.7993ZM179.242 51.7993H176.828V67.7441H179.356V56.1728H179.402L186.919 67.7441H189.333V51.7993H186.805V63.3935H186.759L179.242 51.7993Z"
    fill="#1D1D1D"
  />
</svg>
