<svg
  width="210"
  height="120"
  viewBox="0 0 210 120"
  fill="none"
  xmlns="http://www.w3.org/2000/svg"
>
<path
    d="M104.667 27.999C122.34 27.999 136.667 42.3259 136.667 60C136.667 77.6741 122.34 92.0009 104.667 92.0009C86.9929 92.0009 72.6665 77.6741 72.6665 60C72.6665 42.3259 86.9929 27.999 104.667 27.999Z"
    fill="black"
  />
<g opacity="0.2">
<path
      d="M109.651 70.7161L120.87 46.0994C121.612 44.4657 123.539 43.7425 125.172 44.4849C126.806 45.2273 127.529 47.1538 126.774 48.8162L115.555 73.433C114.825 75.0378 112.899 75.761 111.265 75.0186C109.631 74.2762 108.908 72.3513 109.651 70.7161Z"
      fill="white"
    />
</g>
<path
    d="M123.838 50.6876C122.045 50.6876 120.59 49.2332 120.59 47.4395C120.59 45.6459 122.045 44.1914 123.838 44.1914C125.632 44.1914 127.086 45.6459 127.086 47.4395C127.086 49.2332 125.632 50.6876 123.838 50.6876Z"
    fill="white"
  />
<path
    d="M112.606 75.3602C110.813 75.3602 109.358 73.9058 109.358 72.1121C109.358 70.3185 110.813 68.864 112.606 68.864C114.4 68.864 115.854 70.3185 115.854 72.1121C115.854 73.9058 114.4 75.3602 112.606 75.3602Z"
    fill="white"
  />
<path
    d="M107.415 61.1647C106.672 62.7983 104.746 63.5216 103.112 62.7791C101.479 62.0367 100.755 60.1103 101.498 58.4766L107.274 45.6506C108.016 44.017 109.943 43.2938 111.576 44.0362C113.21 44.7786 113.933 46.7051 113.191 48.3387L107.415 61.1647Z"
    fill="white"
  />
<path
    d="M87.7955 73.4049C87.0531 75.0386 85.1267 75.7618 83.4931 75.0194C81.8595 74.2769 81.1363 72.3505 81.8787 70.7168L93.0979 46.1001C93.8403 44.4664 95.7667 43.7432 97.4003 44.4856C99.0339 45.2281 99.7571 47.1545 99.0147 48.7882L87.7955 73.4049Z"
    fill="white"
  />
</svg>
