<svg
  width="210"
  height="120"
  viewBox="0 0 210 120"
  fill="none"
  xmlns="http://www.w3.org/2000/svg"
>
<path
    fill-rule="evenodd"
    clip-rule="evenodd"
    d="M149.717 52.9742C147.908 54.8264 147.003 57.1951 147.003 60.0803C147.003 62.9478 147.899 65.2897 149.69 67.1064C151.481 68.9052 153.99 69.8046 157.218 69.8046C160.463 69.8046 162.982 68.9052 164.773 67.1064C166.564 65.2897 167.459 62.9478 167.459 60.0803C167.495 57.2307 166.59 54.862 164.746 52.9742C162.919 51.0863 160.41 50.1602 157.218 50.1958C154.026 50.1958 151.526 51.1219 149.717 52.9742ZM160.836 55.8327C161.705 56.8835 162.139 58.2904 162.139 60.0536C162.139 61.7812 161.705 63.1704 160.836 64.2212C159.967 65.2541 158.77 65.7706 157.245 65.7706C155.702 65.7706 154.496 65.2541 153.627 64.2212C152.758 63.1704 152.323 61.7812 152.323 60.0536C152.323 58.3082 152.758 56.9013 153.627 55.8327C154.514 54.7641 155.719 54.2298 157.245 54.2298C158.77 54.2298 159.967 54.7641 160.836 55.8327ZM115.462 54.4971V69.3506H120.516V54.4971H126.554V50.6501H109.45V54.4971H115.462ZM50.2889 50.6504V69.3508H55.157V62.0844C55.157 59.4129 54.3587 56.7503 52.7629 54.0966L54.1994 53.215L63.217 69.3508H68.9626V50.6504H64.0946V56.1002C64.0946 57.525 64.272 58.7717 64.6268 59.8403C64.9813 60.8911 65.5844 62.0755 66.4356 63.3934L64.9991 64.3284L57.338 50.6504H50.2889ZM72.7837 50.6506V69.3511H87.2013V65.3706H77.7048V61.6572H85.0465V57.9438H77.7048V54.6312H87.2013V50.6506H72.7837ZM90.0785 61.7374V50.6507H95.1059V61.0695C95.1059 64.0972 96.3205 65.611 98.7501 65.611C101.18 65.611 102.394 64.0972 102.394 61.0695V50.6507H107.422V61.7374C107.422 64.3198 106.65 66.3145 105.108 67.7215C103.583 69.1107 101.463 69.8053 98.7501 69.8053C96.0015 69.8053 93.8646 69.1107 92.3395 67.7215C90.8319 66.3145 90.0785 64.3198 90.0785 61.7374ZM128.765 69.3508V50.6504H138.58C140.62 50.6504 142.216 51.0867 143.369 51.9594C144.539 52.8321 145.124 54.0076 145.124 55.4858C145.124 56.6969 144.805 57.623 144.166 58.2641C143.581 58.8519 142.881 59.2526 142.065 59.4663C141.249 59.68 140.221 59.8136 138.979 59.8671V61.4432C140.841 61.4789 142.198 61.7549 143.049 62.2714C143.918 62.7879 144.495 63.7942 144.778 65.2902L145.603 69.3508H140.283L139.565 65.023C139.441 64.0969 139.148 63.4379 138.687 63.0461C138.226 62.6543 137.525 62.4584 136.585 62.4584H133.712V69.3508H128.765ZM133.712 58.8252H137.41C138.19 58.8252 138.811 58.6382 139.272 58.2641C139.733 57.8902 139.964 57.3648 139.964 56.688C139.964 56.0112 139.733 55.4947 139.272 55.1385C138.829 54.7645 138.208 54.5775 137.41 54.5775H133.712V58.8252ZM170.327 69.3503V50.6498H177.376L185.037 64.3279L186.473 63.3928C185.622 62.0749 185.019 60.8905 184.665 59.8398C184.31 58.7712 184.133 57.5245 184.133 56.0997V50.6498H189V69.3503H183.255L174.237 53.2145L172.801 54.0961C174.397 56.7497 175.195 59.4123 175.195 62.0838V69.3503H170.327ZM22.3836 50.1948H40.5263V68.4345L34.4645 63.1963C35.2001 62.338 35.6448 61.221 35.6448 59.9997C35.6448 57.2921 33.4593 55.0973 30.7634 55.0973C29.5321 55.0973 28.4073 55.5551 27.5486 56.3104L22.3836 50.1948ZM33.3359 64.1669L38.1363 69.8046H21.0005V52.5379L26.6016 57.4364C26.1452 58.1822 25.8819 59.0601 25.8819 59.9997C25.8819 62.7073 28.0674 64.9021 30.7634 64.9021C31.7075 64.9021 32.589 64.633 33.3359 64.1669Z"
    fill="black"
  />
</svg>
