<svg
  width="210"
  height="120"
  viewBox="0 0 210 120"
  fill="none"
  xmlns="http://www.w3.org/2000/svg"
>
<path
    d="M83.2925 56.7186V56.6545C83.2925 50.9235 87.8069 46.217 94.0502 46.217C100.293 46.217 104.744 50.8595 104.744 56.5905V56.6545C104.744 62.3856 100.229 67.092 93.9861 67.092C87.7428 67.092 83.2925 62.4496 83.2925 56.7186ZM100.101 56.7186V56.6545C100.101 53.1967 97.572 50.3152 93.9861 50.3152C90.4002 50.3152 87.9349 53.1327 87.9349 56.5905V56.6545C87.9349 60.1124 90.4643 62.9939 94.0502 62.9939C97.6361 62.9939 100.101 60.1764 100.101 56.7186Z"
    fill="#1D1D1D"
  />
<path
    d="M108.683 46.5688H113.133V55.3735L121.329 46.5688H126.676L118.448 55.1173L127.028 66.7395H121.681L115.47 58.1589L113.133 60.5922V66.7715H108.683V46.5688Z"
    fill="#1D1D1D"
  />
<path
    d="M129.718 46.5688H137.946C142.748 46.5688 145.662 49.4183 145.662 53.5485V53.6126C145.662 58.287 142.044 60.6883 137.498 60.6883H134.136V66.7395H129.686V46.5688H129.718ZM137.69 56.7502C139.899 56.7502 141.212 55.4375 141.212 53.7086V53.6446C141.212 51.6595 139.835 50.603 137.626 50.603H134.2V56.7822L137.69 56.7502Z"
    fill="#1D1D1D"
  />
<path
    d="M158.02 62.3844H148.159L147.455 59.2467L158.532 46.408H162.278V58.7665H165V62.3844H162.278V66.7387H158.052V62.3844H158.02ZM158.02 58.7985V52.5232L152.673 58.7985H158.02Z"
    fill="#1D1D1D"
  />
<path
    d="M91.0078 62.8333L83.7719 70.0371L80.6343 66.8994L104.263 43.271L107.4 46.4086L97.059 56.7501L91.0078 62.8333Z"
    fill="#1D1D1D"
  />
<path
    d="M56.9743 68.9478L45 56.8134L57.1024 44.8711L59.9199 47.7206L58.3191 49.2894L57.1024 48.0408L48.1697 56.8454L56.9743 65.7781L58.127 64.6575L59.6958 66.2584L56.9743 68.9478Z"
    fill="#1D1D1D"
  />
<path
    d="M65.7791 61.5195L64.2103 59.9186L67.1879 56.9731L64.1143 53.8354L65.6831 52.2666L70.3576 57.0051L65.7791 61.5195Z"
    fill="#1D1D1D"
  />
<path
    d="M65.5878 68.8191L53.6455 56.7167L62.7383 47.752L65.7479 44.7744L77.6903 56.9088L65.5878 68.8191ZM56.8152 56.7487L65.6199 65.6814L74.5206 56.8768L65.7159 47.9441L56.8152 56.7487Z"
    fill="#1D1D1D"
  />
<path
    d="M84.0924 76.568C83.9323 76.472 83.8042 76.3439 83.7081 76.1838C83.6121 76.0238 83.5801 75.8317 83.5801 75.6396V74.7431C83.5801 74.551 83.6121 74.3589 83.7081 74.1988C83.8042 74.0387 83.9323 73.9106 84.0924 73.8146C84.2524 73.7185 84.4445 73.6865 84.6687 73.6865C84.8928 73.6865 85.0849 73.7185 85.245 73.8146C85.405 73.9106 85.5331 74.0387 85.6292 74.1988C85.7252 74.3589 85.7572 74.551 85.7572 74.7431V75.6396C85.7572 75.8637 85.7252 76.0238 85.6292 76.1838C85.5331 76.3439 85.405 76.472 85.245 76.568C85.0849 76.6641 84.8928 76.6961 84.6687 76.6961C84.4445 76.6961 84.2524 76.6641 84.0924 76.568ZM85.0529 76.0558C85.1489 75.9597 85.1809 75.8317 85.1809 75.6716V74.7431C85.1809 74.583 85.1489 74.4549 85.0529 74.3589C84.9568 74.2628 84.8287 74.1988 84.6687 74.1988C84.5086 74.1988 84.3805 74.2628 84.3165 74.3589C84.2524 74.4549 84.1884 74.583 84.1884 74.7431V75.6716C84.1884 75.8317 84.2204 75.9597 84.3165 76.0558C84.4125 76.1518 84.5406 76.2159 84.6687 76.2159C84.7967 76.2159 84.9568 76.1518 85.0529 76.0558Z"
    fill="#1D1D1D"
  />
<path
    d="M88.5748 73.8463C88.7029 73.9104 88.831 74.0384 88.895 74.1665C88.959 74.2946 89.0231 74.4547 89.0231 74.6468C89.0231 74.8389 88.9911 74.9669 88.895 75.095C88.7989 75.2231 88.7029 75.3191 88.5748 75.4152C88.4468 75.5112 88.2547 75.5112 88.0946 75.5112H87.4863C87.4863 75.5112 87.4542 75.5112 87.4542 75.5432V76.5998V76.6318L87.4222 76.6638H86.942C86.942 76.6638 86.9099 76.6638 86.9099 76.6318L86.8779 76.5998V73.7823C86.8779 73.7823 86.8779 73.7503 86.9099 73.7503C86.942 73.7503 86.942 73.7183 86.942 73.7183H88.1266C88.2867 73.7503 88.4468 73.7823 88.5748 73.8463ZM88.3187 74.9349C88.3827 74.8709 88.4468 74.7748 88.4468 74.6468C88.4468 74.5187 88.4147 74.4226 88.3187 74.3586C88.2547 74.2946 88.1266 74.2625 87.9985 74.2625H87.4863C87.4863 74.2625 87.4542 74.2625 87.4542 74.2946V75.063C87.4542 75.063 87.4542 75.095 87.4863 75.095H87.9985C88.1266 75.063 88.2226 75.031 88.3187 74.9349Z"
    fill="#1D1D1D"
  />
<path
    d="M92.0644 74.229H92.0324H90.6557C90.6557 74.229 90.6237 74.229 90.6237 74.261V74.9013C90.6237 74.9013 90.6237 74.9333 90.6557 74.9333H91.5522H91.5842V74.9654V75.3816V75.4136L91.5522 75.4456H90.6557C90.6557 75.4456 90.6237 75.4456 90.6237 75.4776V76.15C90.6237 76.15 90.6237 76.182 90.6557 76.182H92.0324C92.0324 76.182 92.0644 76.182 92.0644 76.214C92.0644 76.246 92.0964 76.246 92.0964 76.246V76.6622C92.0964 76.6622 92.0964 76.6943 92.0644 76.6943C92.0324 76.6943 92.0324 76.7263 92.0324 76.7263H90.1114C90.1114 76.7263 90.0794 76.7263 90.0794 76.6943L90.0474 76.6622V73.8448C90.0474 73.8448 90.0474 73.8127 90.0794 73.8127H90.1114H92.0324H92.0644L92.0964 73.8448V74.261C92.0644 74.1969 92.0644 74.229 92.0644 74.229Z"
    fill="#1D1D1D"
  />
<path
    d="M94.8176 73.7502H94.8496H95.3298H95.3619V73.7823V76.5997V76.6318L95.3298 76.6638H94.8496C94.8176 76.6638 94.8176 76.6638 94.7856 76.6318L93.697 74.8388C93.697 74.8388 93.697 74.8388 93.665 74.8388C93.665 74.8388 93.665 74.8388 93.665 74.8708V76.6318C93.665 76.6318 93.665 76.6638 93.6329 76.6638C93.6009 76.6638 93.6009 76.6958 93.6009 76.6958H93.1207C93.1207 76.6958 93.0887 76.6958 93.0887 76.6638L93.0566 76.6318V73.8143C93.0566 73.8143 93.0566 73.7823 93.0887 73.7823H93.1207H93.6009C93.6329 73.7823 93.6329 73.7823 93.665 73.8143L94.7535 75.5752C94.7535 75.5752 94.7535 75.5752 94.7856 75.5752C94.7856 75.5752 94.7856 75.5752 94.7856 75.5432V73.7823C94.8176 73.8143 94.8176 73.7823 94.8176 73.7502Z"
    fill="#1D1D1D"
  />
<path
    d="M98.116 76.6318L98.084 76.5998V73.7823C98.084 73.7823 98.084 73.7503 98.116 73.7503H98.148H98.6283H98.6603L98.6923 73.7823V74.9349C98.6923 74.9349 98.6923 74.9349 98.7243 74.9349L99.6848 73.7503C99.7168 73.7183 99.7168 73.7183 99.7489 73.7183H100.293C100.325 73.7183 100.325 73.7183 100.325 73.7503C100.325 73.7823 100.325 73.7823 100.325 73.7823L99.3967 74.9669V74.9989L100.389 76.5678C100.389 76.5998 100.389 76.5998 100.389 76.5998C100.389 76.6318 100.389 76.6318 100.357 76.6318H99.7809C99.7489 76.6318 99.7489 76.6318 99.7169 76.5998L98.9805 75.4152C98.9805 75.4152 98.9805 75.4152 98.9484 75.4152L98.6923 75.7353V75.7673V76.5998C98.6923 76.5998 98.6923 76.6318 98.6603 76.6318C98.6283 76.6318 98.6283 76.6638 98.6283 76.6638H98.148C98.148 76.6638 98.116 76.6638 98.116 76.6318Z"
    fill="#1D1D1D"
  />
<path
    d="M103.047 73.7502H103.079H103.559H103.591V73.7823V76.5997V76.6318L103.559 76.6638H103.079C103.047 76.6638 103.047 76.6638 103.015 76.6318L101.926 74.8388C101.926 74.8388 101.926 74.8388 101.894 74.8388C101.894 74.8388 101.894 74.8388 101.894 74.8708V76.6318C101.894 76.6318 101.894 76.6638 101.862 76.6638C101.83 76.6638 101.83 76.6958 101.83 76.6958H101.35C101.35 76.6958 101.318 76.6958 101.318 76.6638L101.286 76.6318V73.8143C101.286 73.8143 101.286 73.7823 101.318 73.7823H101.35H101.83C101.862 73.7823 101.862 73.7823 101.894 73.8143L102.983 75.5752C102.983 75.5752 102.983 75.5752 103.015 75.5752C103.015 75.5752 103.015 75.5752 103.015 75.5432V73.7823C103.047 73.8143 103.047 73.7823 103.047 73.7502Z"
    fill="#1D1D1D"
  />
<path
    d="M105.255 76.569C105.095 76.473 104.967 76.3449 104.871 76.1848C104.775 76.0247 104.743 75.8326 104.743 75.6405V74.7441C104.743 74.552 104.775 74.3599 104.871 74.1998C104.967 74.0397 105.095 73.9116 105.255 73.8156C105.416 73.7195 105.608 73.6875 105.832 73.6875C106.056 73.6875 106.248 73.7195 106.408 73.8156C106.568 73.9116 106.696 74.0397 106.792 74.1998C106.888 74.3599 106.92 74.552 106.92 74.7441V75.6405C106.92 75.8646 106.888 76.0247 106.792 76.1848C106.696 76.3449 106.568 76.473 106.408 76.569C106.248 76.6651 106.056 76.6971 105.832 76.6971C105.608 76.6971 105.416 76.6651 105.255 76.569ZM106.216 76.0567C106.312 75.9607 106.344 75.8326 106.344 75.6725V74.7441C106.344 74.584 106.312 74.4559 106.216 74.3599C106.12 74.2638 105.992 74.1998 105.832 74.1998C105.672 74.1998 105.544 74.2638 105.48 74.3599C105.416 74.4559 105.351 74.584 105.351 74.7441V75.6725C105.351 75.8326 105.384 75.9607 105.48 76.0567C105.576 76.1528 105.704 76.2168 105.832 76.2168C105.96 76.2168 106.12 76.1528 106.216 76.0567Z"
    fill="#1D1D1D"
  />
<path
    d="M108.586 76.6318L107.849 73.8143V73.7823C107.849 73.7502 107.849 73.7502 107.881 73.7502H108.393C108.425 73.7502 108.425 73.7502 108.457 73.7823L108.842 75.4792V75.5112C108.842 75.5112 108.842 75.5112 108.842 75.4792L109.226 73.7823C109.226 73.7502 109.258 73.7502 109.29 73.7502H109.802C109.834 73.7502 109.866 73.7502 109.866 73.7823L110.282 75.4792L110.667 73.7823C110.667 73.7502 110.699 73.7502 110.731 73.7502H111.211C111.243 73.7502 111.275 73.7823 111.243 73.8143L110.571 76.6318C110.571 76.6638 110.539 76.6638 110.507 76.6638H109.994C109.962 76.6638 109.962 76.6638 109.93 76.6318L109.514 74.8388V74.8068C109.514 74.8068 109.514 74.8068 109.514 74.8388L109.13 76.6318C109.13 76.6638 109.098 76.6638 109.066 76.6638H108.618L108.586 76.6318Z"
    fill="#1D1D1D"
  />
<path
    d="M112.331 76.6318L112.299 76.5997V73.7823C112.299 73.7823 112.299 73.7502 112.331 73.7502H112.363H112.844H112.876L112.908 73.7823V76.1195C112.908 76.1195 112.908 76.1515 112.94 76.1515H114.284C114.284 76.1515 114.316 76.1515 114.316 76.1835C114.316 76.2155 114.316 76.2155 114.316 76.2155V76.6318V76.6638L114.284 76.6958H112.363C112.363 76.6638 112.331 76.6638 112.331 76.6318Z"
    fill="#1D1D1D"
  />
<path
    d="M117.358 74.229H117.326H115.949C115.949 74.229 115.917 74.229 115.917 74.261V74.9013C115.917 74.9013 115.917 74.9333 115.949 74.9333H116.846H116.878V74.9654V75.3816V75.4136L116.846 75.4456H115.949C115.949 75.4456 115.917 75.4456 115.917 75.4776V76.15C115.917 76.15 115.917 76.182 115.949 76.182H117.326C117.326 76.182 117.358 76.182 117.358 76.214C117.358 76.246 117.39 76.246 117.39 76.246V76.6622C117.39 76.6622 117.39 76.6943 117.358 76.6943C117.326 76.6943 117.326 76.7263 117.326 76.7263H115.405C115.405 76.7263 115.373 76.7263 115.373 76.6943L115.341 76.6622V73.8448C115.341 73.8448 115.341 73.8127 115.373 73.8127H115.405H117.326H117.358L117.39 73.8448V74.261C117.39 74.1969 117.39 74.229 117.358 74.229Z"
    fill="#1D1D1D"
  />
<path
    d="M118.479 76.6318L118.447 76.5997V73.7823C118.447 73.7823 118.447 73.7502 118.479 73.7502H118.511H119.535C119.727 73.7502 119.92 73.7823 120.08 73.8463C120.24 73.9103 120.368 74.0384 120.432 74.1665C120.496 74.2945 120.56 74.4546 120.56 74.6147V75.7673C120.56 75.9594 120.528 76.0875 120.432 76.2155C120.336 76.3436 120.24 76.4397 120.08 76.5357C119.92 76.6318 119.727 76.6318 119.535 76.6318H118.511C118.511 76.6638 118.479 76.6638 118.479 76.6318ZM119.055 76.1515H119.567C119.695 76.1515 119.791 76.1195 119.888 76.0234C119.984 75.9274 120.016 75.8313 120.016 75.6713V74.7107C120.016 74.5827 119.984 74.4546 119.888 74.3586C119.791 74.2625 119.695 74.2305 119.567 74.2305H119.055C119.055 74.2305 119.023 74.2305 119.023 74.2625L119.055 76.1515C119.055 76.1195 119.055 76.1515 119.055 76.1515Z"
    fill="#1D1D1D"
  />
<path
    d="M122.16 76.5678C122 76.4717 121.872 76.3757 121.776 76.2156C121.68 76.0555 121.648 75.8954 121.648 75.6713V74.7428C121.648 74.5507 121.68 74.3586 121.776 74.1985C121.872 74.0384 122 73.9104 122.16 73.8463C122.32 73.7503 122.512 73.7183 122.737 73.7183C122.961 73.7183 123.121 73.7503 123.313 73.8463C123.505 73.9424 123.601 74.0384 123.697 74.1985C123.793 74.3586 123.825 74.4867 123.825 74.6788V74.7108V74.7428L123.793 74.7748H123.313C123.313 74.7748 123.281 74.7748 123.281 74.7428C123.281 74.7108 123.249 74.7108 123.249 74.7108C123.249 74.5827 123.217 74.4867 123.121 74.3906C123.025 74.2946 122.929 74.2625 122.769 74.2625C122.608 74.2625 122.512 74.3266 122.416 74.3906C122.32 74.4546 122.288 74.6147 122.288 74.7428V75.7033C122.288 75.8634 122.32 75.9594 122.448 76.0555C122.544 76.1515 122.672 76.1836 122.833 76.1836C122.993 76.1836 123.089 76.1515 123.185 76.0555C123.281 75.9594 123.313 75.8634 123.313 75.7353V75.5432C123.313 75.5432 123.313 75.5112 123.281 75.5112H122.801C122.801 75.5112 122.769 75.5112 122.769 75.4792C122.769 75.4472 122.769 75.4472 122.769 75.4472V75.063V75.031H122.801H123.825H123.857V75.063V75.6073C123.857 75.8314 123.825 75.9915 123.729 76.1515C123.633 76.3116 123.505 76.4397 123.345 76.5037C123.185 76.5998 122.993 76.6318 122.769 76.6318C122.544 76.6318 122.32 76.6638 122.16 76.5678Z"
    fill="#1D1D1D"
  />
<path
    d="M126.931 74.229H126.899H125.523C125.523 74.229 125.491 74.229 125.491 74.261V74.9013C125.491 74.9013 125.491 74.9333 125.523 74.9333H126.419H126.451V74.9654V75.3816V75.4136L126.419 75.4456H125.523C125.523 75.4456 125.491 75.4456 125.491 75.4776V76.15C125.491 76.15 125.491 76.182 125.523 76.182H126.899C126.899 76.182 126.931 76.182 126.931 76.214C126.931 76.246 126.931 76.246 126.931 76.246V76.6622V76.6943L126.899 76.7263H124.978C124.978 76.7263 124.946 76.7263 124.946 76.6943V76.6622V73.8448V73.8127H124.978H126.899H126.931V73.8448V74.261C126.931 74.1969 126.931 74.229 126.931 74.229Z"
    fill="#1D1D1D"
  />
<path
    d="M131.221 73.8463C131.349 73.9104 131.477 74.0384 131.541 74.1665C131.606 74.2946 131.67 74.4547 131.67 74.6468C131.67 74.8389 131.638 74.9669 131.541 75.095C131.445 75.2231 131.349 75.3191 131.221 75.4152C131.093 75.5112 130.901 75.5112 130.741 75.5112H130.133C130.133 75.5112 130.101 75.5112 130.101 75.5432V76.5998V76.6318L130.069 76.6638H129.556C129.556 76.6638 129.524 76.6638 129.524 76.6318V76.5998V73.7823V73.7503L129.556 73.7183H130.741C130.901 73.7503 131.061 73.7823 131.221 73.8463ZM130.933 74.9349C130.997 74.8709 131.061 74.7748 131.061 74.6468C131.061 74.5187 131.029 74.4226 130.933 74.3586C130.869 74.2946 130.741 74.2625 130.613 74.2625H130.101C130.101 74.2625 130.069 74.2625 130.069 74.2946V75.063C130.069 75.063 130.069 75.095 130.101 75.095H130.613C130.773 75.063 130.869 75.031 130.933 74.9349Z"
    fill="#1D1D1D"
  />
<path
    d="M134.231 76.6315L133.719 75.4789C133.719 75.4789 133.719 75.4469 133.687 75.4469H133.302C133.302 75.4469 133.27 75.4469 133.27 75.4789V76.6315V76.6635L133.238 76.6955H132.758C132.758 76.6955 132.726 76.6955 132.726 76.6635V76.6315V73.814V73.782H132.758H133.943C134.103 73.782 134.263 73.814 134.423 73.878C134.551 73.9421 134.679 74.0701 134.743 74.1982C134.807 74.3263 134.839 74.4864 134.839 74.6464C134.839 74.8385 134.807 74.9986 134.711 75.1267C134.615 75.2548 134.487 75.3508 134.327 75.4148C134.327 75.4148 134.295 75.4469 134.327 75.4469L134.903 76.6315V76.6635C134.903 76.6955 134.903 76.6955 134.871 76.6955H134.359C134.231 76.6635 134.231 76.6315 134.231 76.6315ZM133.27 74.2622V74.9666C133.27 74.9666 133.27 74.9986 133.302 74.9986H133.847C133.975 74.9986 134.071 74.9666 134.135 74.9026C134.199 74.8385 134.231 74.7425 134.231 74.6464C134.231 74.5504 134.199 74.4543 134.135 74.3903C134.071 74.3263 133.975 74.2943 133.847 74.2943L133.27 74.2622Z"
    fill="#1D1D1D"
  />
<path
    d="M136.376 76.569C136.216 76.473 136.088 76.3449 135.992 76.1848C135.896 76.0247 135.864 75.8326 135.864 75.6405V74.7441C135.864 74.552 135.896 74.3599 135.992 74.1998C136.088 74.0397 136.216 73.9116 136.376 73.8156C136.536 73.7195 136.728 73.6875 136.952 73.6875C137.176 73.6875 137.369 73.7195 137.529 73.8156C137.689 73.9116 137.817 74.0397 137.913 74.1998C138.009 74.3599 138.041 74.552 138.041 74.7441V75.6405C138.041 75.8646 138.009 76.0247 137.913 76.1848C137.817 76.3449 137.689 76.473 137.529 76.569C137.369 76.6651 137.176 76.6971 136.952 76.6971C136.728 76.6971 136.536 76.6651 136.376 76.569ZM137.305 76.0567C137.401 75.9607 137.433 75.8326 137.433 75.6725V74.7441C137.433 74.584 137.401 74.4559 137.305 74.3599C137.208 74.2638 137.08 74.1998 136.92 74.1998C136.76 74.1998 136.632 74.2638 136.568 74.3599C136.504 74.4559 136.44 74.584 136.44 74.7441V75.6725C136.44 75.8326 136.472 75.9607 136.568 76.0567C136.664 76.1528 136.792 76.2168 136.92 76.2168C137.048 76.2168 137.208 76.1528 137.305 76.0567Z"
    fill="#1D1D1D"
  />
<path
    d="M141.179 73.7502V73.7823V74.1985V74.2305L141.147 74.2625H140.41C140.41 74.2625 140.378 74.2625 140.378 74.2945V76.6318V76.6638L140.346 76.6958H139.866C139.866 76.6958 139.834 76.6958 139.834 76.6638V76.6318V74.2945C139.834 74.2945 139.834 74.2625 139.802 74.2625H139.066C139.066 74.2625 139.034 74.2625 139.034 74.2305C139.034 74.1985 139.034 74.1985 139.034 74.1985V73.7823V73.7502H139.066H141.147H141.179Z"
    fill="#1D1D1D"
  />
<path
    d="M142.587 76.569C142.427 76.473 142.299 76.3449 142.203 76.1848C142.107 76.0247 142.075 75.8326 142.075 75.6405V74.7441C142.075 74.552 142.107 74.3599 142.203 74.1998C142.299 74.0397 142.427 73.9116 142.587 73.8156C142.748 73.7195 142.94 73.6875 143.164 73.6875C143.388 73.6875 143.58 73.7195 143.74 73.8156C143.9 73.9116 144.028 74.0397 144.124 74.1998C144.22 74.3599 144.252 74.552 144.252 74.7441V75.6405C144.252 75.8646 144.22 76.0247 144.124 76.1848C144.028 76.3449 143.9 76.473 143.74 76.569C143.58 76.6651 143.388 76.6971 143.164 76.6971C142.94 76.6971 142.748 76.6651 142.587 76.569ZM143.516 76.0567C143.612 75.9607 143.644 75.8326 143.644 75.6725V74.7441C143.644 74.584 143.612 74.4559 143.516 74.3599C143.42 74.2638 143.292 74.1998 143.132 74.1998C142.972 74.1998 142.844 74.2638 142.78 74.3599C142.716 74.4559 142.651 74.584 142.651 74.7441V75.6725C142.651 75.8326 142.684 75.9607 142.78 76.0567C142.876 76.1528 143.004 76.2168 143.132 76.2168C143.26 76.2168 143.42 76.1528 143.516 76.0567Z"
    fill="#1D1D1D"
  />
<path
    d="M145.821 76.569C145.661 76.473 145.533 76.3769 145.437 76.2168C145.341 76.0567 145.309 75.8967 145.309 75.6725V74.712C145.309 74.5199 145.341 74.3278 145.437 74.1678C145.533 74.0077 145.661 73.9116 145.821 73.8156C145.981 73.7195 146.174 73.6875 146.398 73.6875C146.622 73.6875 146.782 73.7195 146.974 73.8156C147.166 73.9116 147.262 74.0077 147.358 74.1678C147.454 74.3278 147.486 74.4879 147.486 74.68C147.486 74.712 147.486 74.712 147.422 74.712L146.942 74.7441C146.91 74.7441 146.91 74.712 146.91 74.712C146.91 74.552 146.878 74.4559 146.782 74.3599C146.686 74.2638 146.59 74.2318 146.43 74.2318C146.27 74.2318 146.174 74.2638 146.077 74.3599C145.981 74.4559 145.949 74.584 145.949 74.712V75.7046C145.949 75.8326 145.981 75.9607 146.077 76.0567C146.174 76.1528 146.302 76.1848 146.43 76.1848C146.558 76.1848 146.686 76.1528 146.782 76.0567C146.878 75.9607 146.91 75.8646 146.91 75.7046C146.91 75.6725 146.91 75.6725 146.974 75.6725L147.454 75.7046H147.486V75.7366C147.486 75.9287 147.454 76.0888 147.358 76.2488C147.262 76.4089 147.134 76.505 146.974 76.601C146.814 76.6651 146.622 76.7291 146.398 76.7291C146.174 76.7291 145.981 76.6651 145.821 76.569Z"
    fill="#1D1D1D"
  />
<path
    d="M149.023 76.569C148.863 76.473 148.735 76.3449 148.639 76.1848C148.543 76.0247 148.511 75.8326 148.511 75.6405V74.7441C148.511 74.552 148.543 74.3599 148.639 74.1998C148.735 74.0397 148.863 73.9116 149.023 73.8156C149.183 73.7195 149.375 73.6875 149.599 73.6875C149.823 73.6875 150.016 73.7195 150.176 73.8156C150.336 73.9116 150.464 74.0397 150.56 74.1998C150.656 74.3599 150.688 74.552 150.688 74.7441V75.6405C150.688 75.8646 150.656 76.0247 150.56 76.1848C150.464 76.3449 150.336 76.473 150.176 76.569C150.016 76.6651 149.823 76.6971 149.599 76.6971C149.375 76.6971 149.215 76.6651 149.023 76.569ZM149.984 76.0567C150.08 75.9607 150.112 75.8326 150.112 75.6725V74.7441C150.112 74.584 150.08 74.4559 149.984 74.3599C149.887 74.2638 149.759 74.1998 149.599 74.1998C149.439 74.1998 149.311 74.2638 149.247 74.3599C149.183 74.4559 149.119 74.584 149.119 74.7441V75.6725C149.119 75.8326 149.151 75.9607 149.247 76.0567C149.343 76.1528 149.471 76.2168 149.599 76.2168C149.727 76.2168 149.887 76.1528 149.984 76.0567Z"
    fill="#1D1D1D"
  />
<path
    d="M151.84 76.6318V76.5997V73.7823V73.7502H151.872H152.352H152.384V73.7823V76.1195C152.384 76.1195 152.384 76.1515 152.416 76.1515H153.761C153.761 76.1515 153.793 76.1515 153.793 76.1835C153.793 76.2155 153.793 76.2155 153.793 76.2155V76.6318V76.6638L153.761 76.6958H151.84C151.872 76.6638 151.84 76.6638 151.84 76.6318Z"
    fill="#1D1D1D"
  />
<path
    d="M158.371 74.2302H158.339H156.995C156.995 74.2302 156.963 74.2302 156.963 74.2622V74.9026C156.963 74.9026 156.963 74.9346 156.995 74.9346H157.891H157.923V74.9666V75.3828V75.4148L157.891 75.4469H156.995C156.995 75.4469 156.963 75.4469 156.963 75.4789V76.6315V76.6635L156.931 76.6955H156.45C156.45 76.6955 156.418 76.6955 156.418 76.6635V76.6315V73.814V73.782H156.45H158.371H158.404V73.814V74.2302C158.404 74.1982 158.404 74.2302 158.371 74.2302Z"
    fill="#1D1D1D"
  />
<path
    d="M159.845 76.569C159.685 76.473 159.557 76.3449 159.461 76.1848C159.365 76.0247 159.333 75.8326 159.333 75.6405V74.7441C159.333 74.552 159.365 74.3599 159.461 74.1998C159.557 74.0397 159.685 73.9116 159.845 73.8156C160.005 73.7195 160.197 73.6875 160.421 73.6875C160.645 73.6875 160.837 73.7195 160.997 73.8156C161.157 73.9116 161.286 74.0397 161.382 74.1998C161.478 74.3599 161.51 74.552 161.51 74.7441V75.6405C161.51 75.8646 161.478 76.0247 161.382 76.1848C161.286 76.3449 161.157 76.473 160.997 76.569C160.837 76.6651 160.645 76.6971 160.421 76.6971C160.197 76.6971 160.005 76.6651 159.845 76.569ZM160.773 76.0567C160.869 75.9607 160.901 75.8326 160.901 75.6725V74.7441C160.901 74.584 160.869 74.4559 160.773 74.3599C160.677 74.2638 160.549 74.1998 160.389 74.1998C160.229 74.1998 160.101 74.2638 160.037 74.3599C159.973 74.4559 159.909 74.584 159.909 74.7441V75.6725C159.909 75.8326 159.941 75.9607 160.037 76.0567C160.133 76.1528 160.261 76.2168 160.389 76.2168C160.517 76.2168 160.677 76.1528 160.773 76.0567Z"
    fill="#1D1D1D"
  />
<path
    d="M164.166 76.6315L163.654 75.4789C163.654 75.4789 163.654 75.4469 163.622 75.4469H163.238C163.238 75.4469 163.206 75.4469 163.206 75.4789V76.6315V76.6635L163.174 76.6955H162.694C162.694 76.6955 162.662 76.6955 162.662 76.6635V76.6315V73.814V73.782H162.694H163.878C164.038 73.782 164.198 73.814 164.359 73.878C164.487 73.9421 164.615 74.0701 164.679 74.1982C164.743 74.3263 164.775 74.4864 164.775 74.6464C164.775 74.8385 164.743 74.9986 164.647 75.1267C164.551 75.2548 164.423 75.3508 164.262 75.4148C164.262 75.4148 164.23 75.4469 164.262 75.4469L164.839 76.6315V76.6635C164.839 76.6955 164.839 76.6955 164.807 76.6955H164.294C164.198 76.6635 164.166 76.6315 164.166 76.6315ZM163.206 74.2622V74.9666C163.206 74.9666 163.206 74.9986 163.238 74.9986H163.782C163.91 74.9986 164.006 74.9666 164.07 74.9026C164.134 74.8385 164.166 74.7425 164.166 74.6464C164.166 74.5504 164.134 74.4543 164.07 74.3903C164.006 74.3263 163.91 74.2943 163.782 74.2943L163.206 74.2622C163.238 74.2622 163.206 74.2622 163.206 74.2622Z"
    fill="#1D1D1D"
  />
</svg>
