<svg
  width="210"
  height="120"
  viewBox="0 0 210 120"
  fill="none"
  xmlns="http://www.w3.org/2000/svg"
>
<path
    d="M63.3814 53.7485L58.4224 58.7072C57.7101 59.4194 57.7101 60.5741 58.4224 61.2863L63.3814 66.245C64.0937 66.9572 65.2485 66.9572 65.9607 66.245L70.9199 61.2863C71.6322 60.5741 71.6322 59.4194 70.9199 58.7072L65.9607 53.7485C65.2485 53.0363 64.0937 53.0363 63.3814 53.7485Z"
    fill="black"
  />
<path
    d="M64.668 79.3335C63.3948 79.338 62.1336 79.0897 60.9573 78.6029C59.781 78.1161 58.7131 77.4007 57.8155 76.4979L56.7612 75.4437L61.2575 70.9479L62.3118 72.0019C62.935 72.625 63.7802 72.9749 64.6614 72.9749C65.5426 72.9749 66.3877 72.625 67.0111 72.0019L76.6651 62.3487C77.2867 61.7253 77.6356 60.8809 77.6356 60.0006C77.6356 59.1203 77.2867 58.2758 76.6651 57.6525L71.8447 52.8378L76.341 48.3418L81.1693 53.1698C82.9818 54.9863 83.9997 57.4477 83.9997 60.0137C83.9997 62.5799 82.9818 65.0411 81.1693 66.8578L71.5125 76.5111C70.615 77.4107 69.5479 78.1234 68.3731 78.6079C67.1981 79.0924 65.9388 79.339 64.668 79.3335Z"
    fill="url(#paint0_linear_4121_7269)"
  />
<path
    d="M52.9872 71.6716L48.1694 66.8437C47.2703 65.9451 46.5571 64.8781 46.0705 63.7038C45.5839 62.5295 45.3335 61.2708 45.3335 59.9997C45.3335 58.7285 45.5839 57.4698 46.0705 56.2955C46.5571 55.1213 47.2703 54.0542 48.1694 53.1556L57.8235 43.5024C58.7223 42.6034 59.7892 41.8903 60.9637 41.4037C62.1381 40.9172 63.3969 40.6667 64.6681 40.6667C65.9392 40.6667 67.1981 40.9172 68.3726 41.4037C69.5469 41.8903 70.614 42.6034 71.5126 43.5024L72.5669 44.5565L68.0706 49.0524L67.0163 47.9983C66.3931 47.3753 65.5481 47.0254 64.6667 47.0254C63.7855 47.0254 62.9404 47.3753 62.3172 47.9983L52.663 57.6516C52.3546 57.9599 52.11 58.326 51.9431 58.7288C51.7762 59.1318 51.6903 59.5636 51.6903 59.9997C51.6903 60.4357 51.7762 60.8676 51.9431 61.2705C52.11 61.6733 52.3546 62.0395 52.663 62.3478L57.4914 67.1757L52.9872 71.6716Z"
    fill="url(#paint1_linear_4121_7269)"
  />
<path
    d="M94.4962 68.646C94.3322 68.4685 94.1978 68.2658 94.0976 68.0455C94.0081 67.8454 94.0847 67.6249 94.3302 67.3785L96.556 65.1769C96.628 65.0977 96.7196 65.0389 96.8214 65.0066C96.9233 64.974 97.032 64.9692 97.1361 64.9923C97.3533 65.0656 97.5521 65.1857 97.7189 65.3438C98.051 65.6774 98.4216 66.0194 98.8305 66.3701C99.2465 66.719 99.6909 67.0323 100.159 67.3066C100.647 67.5889 101.166 67.8126 101.705 67.9738C102.277 68.1452 102.87 68.2316 103.466 68.2303C104.063 68.245 104.659 68.1583 105.227 67.9738C105.704 67.8155 106.149 67.5721 106.541 67.2553C106.889 66.978 107.172 66.6277 107.371 66.229C107.556 65.8505 107.652 65.4344 107.652 65.0127C107.666 64.5176 107.495 64.0351 107.172 63.6606C106.835 63.2826 106.436 62.9667 105.991 62.7265C105.51 62.4651 105.004 62.2526 104.481 62.0928C103.937 61.9215 103.444 61.783 103.001 61.6771C100.321 60.8765 98.2768 59.892 96.8678 58.7238C96.187 58.1749 95.6422 57.475 95.2762 56.6787C94.9105 55.8828 94.7337 55.0123 94.7595 54.1359C94.7478 53.1635 94.9695 52.2023 95.406 51.334C95.8468 50.4796 96.471 49.7337 97.2332 49.1505C98.0847 48.5046 99.0485 48.0235 100.075 47.7315C101.262 47.3824 102.493 47.2095 103.73 47.2183C105.193 47.2174 106.634 47.5694 107.933 48.2447C109.226 48.9008 110.408 49.7563 111.437 50.7798C111.838 51.2032 111.825 51.6368 111.404 52.0807L109.579 54.041C109.504 54.1303 109.403 54.1954 109.291 54.2283C109.179 54.2612 109.06 54.2601 108.948 54.2258C108.719 54.1308 108.506 54.001 108.317 53.8409C108.061 53.6203 107.747 53.3739 107.404 53.1071C107.046 52.8312 106.668 52.5808 106.275 52.3578C105.862 52.1236 105.428 51.9277 104.979 51.7728C104.524 51.6178 104.047 51.539 103.566 51.5393C103.127 51.5406 102.689 51.5739 102.255 51.6394C101.827 51.6979 101.411 51.8279 101.026 52.0243C100.66 52.2122 100.346 52.4871 100.111 52.8249C99.8476 53.2359 99.7196 53.7198 99.7454 54.2079C99.7359 54.6032 99.8582 54.9907 100.093 55.3087C100.362 55.6519 100.703 55.9314 101.092 56.1271C101.584 56.3867 102.097 56.6046 102.626 56.7789C103.211 56.979 103.86 57.1791 104.568 57.3792C105.649 57.6959 106.714 58.0685 107.757 58.4955C108.697 58.8708 109.578 59.3796 110.374 60.0068C111.106 60.591 111.715 61.3169 112.163 62.1415C112.627 63.0599 112.856 64.0806 112.827 65.1103C112.841 66.2095 112.578 67.2946 112.061 68.2637C111.554 69.2036 110.858 70.0271 110.016 70.6807C109.13 71.3675 108.129 71.8888 107.059 72.2203C104.266 73.1007 101.245 72.8862 98.603 71.6198C97.0549 70.9053 95.6601 69.8953 94.4962 68.646Z"
    fill="black"
  />
<path
    d="M114.833 64.2763C114.827 63.1481 115.045 62.0298 115.476 60.9872C115.906 59.9451 116.539 58.9993 117.337 58.2053C118.126 57.4241 119.056 56.8006 120.077 56.3683C121.654 55.6988 123.394 55.5161 125.075 55.8433C126.755 56.1704 128.301 56.9928 129.515 58.2053C130.296 58.9915 130.921 59.92 131.357 60.9406C131.814 61.9926 132.046 63.1289 132.04 64.2763C132.047 65.4188 131.814 66.5501 131.357 67.5966C130.92 68.6069 130.295 69.5239 129.515 70.2984C128.73 71.0715 127.806 71.6878 126.793 72.1151C124.643 73.0047 122.23 73.0047 120.079 72.1151C119.06 71.6868 118.13 71.0704 117.337 70.2984C116.537 69.516 115.902 68.5792 115.471 67.5443C115.039 66.5096 114.821 65.398 114.828 64.2763H114.833ZM119.251 64.3096C119.24 65.4522 119.669 66.5553 120.447 67.3887C120.822 67.788 121.274 68.1056 121.776 68.3227C122.303 68.5426 122.867 68.6556 123.437 68.6556C124.008 68.6556 124.572 68.5426 125.099 68.3227C125.6 68.1056 126.053 67.788 126.427 67.3887C126.806 66.984 127.11 66.5148 127.324 66.003C127.767 64.9241 127.767 63.7131 127.324 62.6342C127.109 62.1235 126.805 61.6554 126.427 61.251C126.05 60.8505 125.599 60.5272 125.099 60.2992C124.575 60.0695 124.009 59.9509 123.437 59.9509C122.866 59.9509 122.3 60.0695 121.776 60.2992C121.276 60.5272 120.825 60.8505 120.447 61.251C119.668 62.084 119.239 63.1872 119.251 64.3301V64.3096Z"
    fill="black"
  />
<path
    d="M136.97 56.0351C137.231 56.0174 137.491 56.0764 137.719 56.2044C137.889 56.3191 138.022 56.4816 138.1 56.6714C138.195 56.8897 138.262 57.1188 138.299 57.3539C138.345 57.6105 138.399 57.8825 138.466 58.1724C139.06 57.5274 139.757 56.9863 140.528 56.5714C141.421 56.0742 142.43 55.8212 143.451 55.8375C144.395 55.8234 145.333 55.9979 146.209 56.3507C146.972 56.6604 147.662 57.1261 148.236 57.7183C148.799 58.3146 149.23 59.0251 149.498 59.8018C149.789 60.651 149.932 61.544 149.922 62.4421V71.615C149.936 71.729 149.926 71.8445 149.891 71.9538C149.857 72.0633 149.799 72.1639 149.723 72.2489C149.549 72.3734 149.337 72.4324 149.125 72.4156H146.089C145.733 72.4156 145.519 72.3669 145.44 72.2668C145.343 72.0762 145.303 71.8614 145.325 71.6484V63.2093C145.343 62.8044 145.275 62.4 145.126 62.0234C144.977 61.6464 144.75 61.3057 144.461 61.0232C143.876 60.4761 143.1 60.1828 142.301 60.2071C141.919 60.2126 141.54 60.2919 141.187 60.4408C140.801 60.5952 140.438 60.8023 140.109 61.0566C139.776 61.3126 139.49 61.623 139.26 61.9752C139.034 62.318 138.881 62.7041 138.81 63.1092V71.6818C138.823 71.7855 138.815 71.8905 138.787 71.9911C138.759 72.0914 138.712 72.1852 138.647 72.2668C138.447 72.3895 138.213 72.4419 137.98 72.4156H134.99C134.876 72.4342 134.759 72.4298 134.646 72.403C134.533 72.3761 134.427 72.3274 134.333 72.2592C134.217 72.0944 134.164 71.8932 134.182 71.6921V57.0384C134.182 56.3679 134.515 56.0334 135.179 56.0351H136.97Z"
    fill="black"
  />
<path
    d="M156.759 56.9714C156.782 57.0817 156.839 57.2999 156.926 57.6206C157.012 57.9413 157.071 58.1594 157.092 58.2723C157.313 57.98 157.552 57.7013 157.807 57.4384C158.092 57.1412 158.41 56.8777 158.755 56.6533C159.115 56.4169 159.498 56.2207 159.9 56.0681C160.331 55.9096 160.788 55.8303 161.247 55.8346H161.561C161.668 55.8359 161.774 55.848 161.878 55.8706C162.243 55.9069 162.6 55.9933 162.941 56.1273C163.329 56.2716 163.707 56.443 164.071 56.6404C164.39 56.8079 164.691 57.0091 164.968 57.2408C165.066 57.3076 165.149 57.394 165.212 57.4946C165.275 57.5954 165.316 57.7083 165.333 57.8258C165.321 57.9937 165.264 58.1551 165.167 58.2928L163.838 60.461C163.773 60.5931 163.674 60.7058 163.551 60.7877C163.429 60.8698 163.287 60.918 163.141 60.928C163.001 60.9146 162.866 60.8746 162.742 60.8099C162.563 60.733 162.376 60.6381 162.177 60.5278C161.926 60.3382 161.652 60.1813 161.362 60.0607C161.101 59.9665 160.826 59.9213 160.549 59.9273C160.114 59.9165 159.682 60.0029 159.284 60.1806C158.886 60.3581 158.533 60.6221 158.249 60.9536C157.983 61.2638 157.775 61.6192 157.633 62.0031C157.494 62.3713 157.42 62.7613 157.416 63.1552V71.5943C157.416 72.1503 157.117 72.4283 156.519 72.4283H153.775C153.2 72.4283 152.913 72.1503 152.911 71.5943V56.9714C152.901 56.8505 152.919 56.7287 152.963 56.6157C153.008 56.5028 153.077 56.4016 153.166 56.3197C153.334 56.1791 153.546 56.1018 153.764 56.1015H155.891C156.001 56.0918 156.113 56.11 156.214 56.1549C156.317 56.1999 156.405 56.2697 156.473 56.3582C156.599 56.5465 156.696 56.7536 156.759 56.9714Z"
    fill="black"
  />
<defs>
<linearGradient
      id="paint0_linear_4121_7269"
      x1="83.3406"
      y1="63.296"
      x2="72.7945"
      y2="52.312"
      gradientUnits="userSpaceOnUse"
    >
<stop offset="0.578893" />
<stop offset="1" stop-opacity="0" />
</linearGradient>
<linearGradient
      id="paint1_linear_4121_7269"
      x1="43.1365"
      y1="61.0981"
      x2="53.4563"
      y2="71.8688"
      gradientUnits="userSpaceOnUse"
    >
<stop offset="0.507567" />
<stop offset="1" stop-opacity="0" />
</linearGradient>
</defs>
</svg>
