<svg
  width="210"
  height="120"
  viewBox="0 0 210 120"
  fill="none"
  xmlns="http://www.w3.org/2000/svg"
>
<path
    fill-rule="evenodd"
    clip-rule="evenodd"
    d="M105.568 49.2166C104.451 49.2166 103.498 48.8552 102.71 48.1324C101.954 47.4096 101.577 46.4569 101.577 45.2742C101.577 44.0915 101.954 43.1387 102.71 42.4159C103.498 41.6931 104.451 41.3318 105.568 41.3318C106.718 41.3318 107.671 41.6931 108.426 42.4159C109.182 43.1387 109.56 44.0915 109.56 45.2742C109.56 46.4569 109.182 47.4096 108.426 48.1324C107.671 48.8552 106.718 49.2166 105.568 49.2166ZM56.0931 77.2073C52.9063 77.2073 50.2946 76.5174 48.2576 75.1374C46.3869 73.8703 45.1952 72.1041 44.6823 69.8392C44.604 69.4933 44.8251 69.156 45.1685 69.0672L49.5775 67.9268C49.958 67.8284 50.3397 68.0711 50.446 68.4494C50.6764 69.2705 50.9983 69.9393 51.4116 70.456C51.9701 71.1131 52.6435 71.5894 53.432 71.8851C54.2534 72.1478 55.1404 72.2793 56.0931 72.2793C57.5386 72.2793 58.6064 72.0328 59.2964 71.5402C59.9863 71.0144 60.3312 70.3739 60.3312 69.6181C60.3312 68.8626 60.0027 68.2876 59.3456 67.8934C58.6885 67.4663 57.6372 67.1214 56.1917 66.8585L54.8119 66.6122C53.1035 66.2835 51.543 65.8401 50.1303 65.2817C48.7176 64.6904 47.5842 63.8854 46.73 62.8668C45.8758 61.8484 45.4488 60.5345 45.4488 58.9246C45.4488 56.4934 46.3358 54.6373 48.1098 53.3559C49.884 52.0418 52.2165 51.3848 55.1076 51.3848C57.8343 51.3848 60.1012 51.9925 61.9081 53.2081C63.5164 54.29 64.6303 55.6712 65.2494 57.3517C65.3781 57.7008 65.1721 58.0756 64.8166 58.185L60.4071 59.5418C60.0224 59.6602 59.624 59.42 59.4934 59.0392C59.1934 58.165 58.717 57.5189 58.0643 57.1012C57.2758 56.5755 56.2903 56.3127 55.1076 56.3127C53.9248 56.3127 53.0213 56.5263 52.3971 56.9533C51.773 57.3475 51.4609 57.9061 51.4609 58.6289C51.4609 59.4174 51.7894 60.0087 52.4464 60.4029C53.1035 60.7642 53.9905 61.0437 55.1076 61.2408L56.4874 61.4871C58.3271 61.8155 59.9863 62.2591 61.4646 62.8176C62.9758 63.3433 64.1585 64.1154 65.0127 65.1338C65.8998 66.1193 66.3432 67.4663 66.3432 69.1747C66.3432 71.7373 65.4069 73.7248 63.5343 75.1374C61.6946 76.5174 59.2142 77.2073 56.0931 77.2073ZM152.889 77.2073C150.458 77.2073 148.306 76.6979 146.433 75.6795C144.593 74.6282 143.148 73.1664 142.097 71.2936C141.078 69.3884 140.569 67.1542 140.569 64.5917V64.0004C140.569 61.4379 141.078 59.2203 142.097 57.3475C143.115 55.4421 144.544 53.9802 146.384 52.9617C148.224 51.9104 150.359 51.3848 152.79 51.3848C155.189 51.3848 157.275 51.9268 159.049 53.011C160.823 54.0623 162.203 55.5407 163.188 57.4461C164.174 59.3188 164.667 61.5034 164.667 64.0004V65.4348C164.667 65.813 164.36 66.1193 163.982 66.1193H147.588C147.2 66.1193 146.885 66.4436 146.94 66.8282C147.135 68.1834 147.738 69.3106 148.749 70.2097C149.932 71.261 151.378 71.7865 153.086 71.7865C154.827 71.7865 156.108 71.4086 156.93 70.6531C157.558 70.0752 158.071 69.4494 158.468 68.7752C158.667 68.4386 159.092 68.2917 159.438 68.4732L163.305 70.5006C163.457 70.5799 163.569 70.7181 163.615 70.8828C163.661 71.0473 163.637 71.2235 163.549 71.3699C163.115 72.0659 162.552 72.8128 161.858 73.6098C161.003 74.5956 159.854 75.4495 158.408 76.1724C156.963 76.8624 155.123 77.2073 152.889 77.2073ZM147.101 60.7018C146.984 61.1073 147.309 61.4871 147.731 61.4871H157.608C158.011 61.4871 158.331 61.1387 158.244 60.7452C158.004 59.6721 157.468 58.7859 156.634 58.0867C155.649 57.2326 154.351 56.8055 152.741 56.8055C151.066 56.8055 149.735 57.2326 148.749 58.0867C147.954 58.7765 147.404 59.6481 147.101 60.7018ZM137.842 69.014C137.909 69.0332 137.98 69.0197 138.036 68.978C138.091 68.9362 138.124 68.8709 138.124 68.8015V42.7062C138.124 42.3282 137.817 42.0217 137.439 42.0217H132.599C132.221 42.0217 131.914 42.3282 131.914 42.7062V54.8838H131.027C130.699 54.2924 130.222 53.7339 129.598 53.2083C128.974 52.6825 128.153 52.2554 127.134 51.9269C126.149 51.5655 124.917 51.3849 123.438 51.3849C121.467 51.3849 119.644 51.8776 117.968 52.8633C116.293 53.816 114.946 55.2287 113.927 57.1013C112.909 58.974 112.4 61.2409 112.4 63.9018V64.6905C112.4 65.1692 112.416 65.6352 112.449 66.0882C112.456 66.1787 112.502 66.2618 112.575 66.3155C112.648 66.3693 112.741 66.3885 112.83 66.3681C114.463 65.9972 116.237 65.7466 118.332 65.6985C118.418 65.6966 118.498 65.6599 118.556 65.597C118.613 65.5339 118.642 65.4501 118.636 65.3651C118.618 65.0988 118.609 64.8247 118.609 64.5426V64.0497C118.609 61.6843 119.25 59.8938 120.531 58.6783C121.812 57.4298 123.405 56.8056 125.311 56.8056C127.249 56.8056 128.843 57.4298 130.091 58.6783C131.372 59.8938 132.013 61.6843 132.013 64.0497V64.5426C132.013 65.4385 131.921 66.2546 131.737 66.9904C131.718 67.0626 131.729 67.1397 131.768 67.204C131.806 67.2681 131.868 67.3145 131.941 67.3327C133.644 67.7601 135.134 68.2072 136.404 68.5881L136.412 68.5905C136.925 68.7444 137.402 68.8874 137.842 69.014ZM80.5624 57.2001H74.5447L74.5068 57.1999C74.5046 57.3996 74.502 57.6024 74.4993 57.808C74.4165 64.1933 74.299 73.2572 87.9255 73.2572C97.9091 73.2572 102.968 71.504 107.436 69.9555L107.436 69.9555C110.97 68.7309 114.134 67.6345 119.072 67.6345C126.745 67.6345 132.581 69.3853 136.412 70.5346L136.441 70.5433C136.953 70.6968 137.429 70.8395 137.868 70.9655C138.036 71.0133 138.152 71.1667 138.152 71.341V74.6518C138.152 75.0789 137.95 75.4808 137.607 75.7355C137.264 75.9907 136.821 76.0685 136.412 75.9458H136.412C132.581 74.7964 126.745 73.0455 119.072 73.0455C114.135 73.0455 110.971 74.1417 107.438 75.3657L107.436 75.3665L107.436 75.3666C102.968 76.915 97.9091 78.6683 87.9255 78.6683C69.7286 78.6683 68.3369 67.2645 68.3369 60.5365V53.3658H68.3371V45.123C68.3616 44.7671 68.6578 44.486 69.0199 44.486H73.8602C74.2381 44.486 74.5447 44.7924 74.5447 45.1705V52.075H80.5624C80.9403 52.075 81.2468 52.3815 81.2468 52.7594V56.5157C81.2468 56.8936 80.9403 57.2001 80.5624 57.2001ZM84.7697 70.8272C84.7697 70.9826 84.884 71.1141 85.0379 71.1357C85.8892 71.2519 86.8079 71.3132 87.7992 71.3132C88.808 71.3132 89.7666 71.2954 90.6791 71.2615C90.8467 71.2553 90.979 71.1177 90.979 70.9504V62.6208C90.979 60.8796 91.4882 59.5984 92.5068 58.7771C93.5252 57.9229 94.8228 57.4958 96.3996 57.4958H98.7706C99.1487 57.4958 99.455 57.1894 99.455 56.8114V52.6609C99.455 52.283 99.1487 51.9765 98.7706 51.9765H96.4983C95.3812 51.9765 94.3957 52.2064 93.5415 52.6664C92.7202 53.1264 92.1289 53.8492 91.7676 54.8347H90.8803V52.7595C90.8803 52.3815 90.574 52.075 90.1961 52.075H85.4541C85.076 52.075 84.7697 52.3815 84.7697 52.7595V70.8272ZM108.462 67.6577C108.122 67.7736 107.781 67.892 107.436 68.0116L107.426 68.0149C106.009 68.5058 104.533 69.0173 102.859 69.487C102.765 69.5132 102.664 69.494 102.587 69.4349C102.509 69.3761 102.464 69.2842 102.464 69.187V52.7594C102.464 52.3814 102.77 52.0749 103.148 52.0749H107.988C108.366 52.0749 108.673 52.3814 108.673 52.7594V67.3629C108.673 67.4959 108.588 67.6145 108.462 67.6577Z"
    fill="black"
  />
</svg>
