<svg
  width="210"
  height="120"
  viewBox="0 0 210 120"
  fill="none"
  xmlns="http://www.w3.org/2000/svg"
>
<path
    fill-rule="evenodd"
    clip-rule="evenodd"
    d="M131.304 54.0445C131.175 54.0347 130.91 54.0078 130.348 54.0078C129.859 54.0078 129.405 54.0535 128.983 54.1413C127.223 54.4832 126.098 55.4395 125.127 56.4522V54.4486H119.613V72.3162H125.127V64.8529C125.127 63.9707 125.176 63.1617 125.274 62.4267C125.372 61.6914 125.587 61.0606 125.918 60.5334C126.249 60.0062 126.72 59.5956 127.333 59.3018C127.946 59.0076 128.779 58.8603 129.833 58.8603C130.25 58.8603 130.648 58.8916 131.028 58.9524C131.408 59.0136 131.794 59.1057 132.186 59.2281V54.1914C131.916 54.1181 131.622 54.0687 131.304 54.0445Z"
    fill="black"
  />
<path
    fill-rule="evenodd"
    clip-rule="evenodd"
    d="M146.055 54.045C145.927 54.0352 145.662 54.0083 145.1 54.0083C144.611 54.0083 144.157 54.054 143.734 54.1418C141.974 54.4837 140.85 55.44 139.879 56.4527V54.4491H134.364V72.3167H139.879V64.8534C139.879 63.9712 139.928 63.1622 140.026 62.4272C140.124 61.6918 140.338 61.0611 140.669 60.5339C141 60.0067 141.472 59.5961 142.085 59.3023C142.697 59.0081 143.531 58.8608 144.585 58.8608C145.001 58.8608 145.399 58.8921 145.78 58.9529C146.159 59.0141 146.545 59.1062 146.938 59.2286V54.1919C146.668 54.1186 146.374 54.0692 146.055 54.045Z"
    fill="black"
  />
<path
    fill-rule="evenodd"
    clip-rule="evenodd"
    d="M87.9191 53.7143H80.4927V48.6406H101.081V53.7143H93.6546V72.3163H87.9191V53.7143Z"
    fill="black"
  />
<path
    fill-rule="evenodd"
    clip-rule="evenodd"
    d="M111.906 61.3605C111.931 60.4291 111.624 59.6323 110.987 58.9709C110.35 58.3092 109.529 57.978 108.524 57.978C107.911 57.978 107.372 58.0762 106.907 58.2722C106.441 58.4686 106.042 58.7198 105.712 59.0261C105.381 59.3327 105.123 59.6874 104.939 60.0922C104.756 60.4967 104.651 60.9194 104.627 61.3605H111.906ZM116.576 69.228C115.693 70.3557 114.577 71.2259 113.23 71.8381C111.882 72.4504 110.484 72.7574 109.039 72.7574C107.666 72.7574 106.373 72.5368 105.16 72.0957C103.947 71.6546 102.893 71.0238 101.998 70.2024C101.103 69.3813 100.399 68.3951 99.8843 67.2429C99.3699 66.0909 99.1123 64.8042 99.1123 63.3826C99.1123 61.9614 99.3699 60.6746 99.8843 59.5223C100.399 58.3704 101.103 57.3842 101.998 56.5625C102.893 55.7418 103.947 55.1103 105.16 54.6695C106.373 54.2284 107.666 54.0078 109.039 54.0078C110.313 54.0078 111.471 54.2284 112.513 54.6695C113.554 55.1103 114.437 55.7418 115.16 56.5625C115.883 57.3842 116.44 58.3704 116.833 59.5223C117.225 60.6746 117.421 61.9614 117.421 63.3826V65.1105H104.627C104.848 66.1646 105.326 67.0038 106.061 67.6289C106.796 68.2539 107.702 68.5663 108.781 68.5663C109.688 68.5663 110.454 68.3642 111.079 67.9597C111.704 67.5552 112.25 67.0347 112.715 66.3969L116.576 69.228Z"
    fill="black"
  />
<path
    fill-rule="evenodd"
    clip-rule="evenodd"
    d="M159.658 66.0053V65.7038C159.658 65.312 159.404 64.9701 159.033 64.8454C158.236 64.5774 157.292 64.4109 156.284 64.4109C154.023 64.4109 152.631 65.2929 152.631 66.9216V66.9892C152.631 68.3805 153.814 69.1948 155.519 69.1948C157.988 69.1948 159.658 67.8714 159.658 66.0053ZM147.519 67.1933V67.125C147.519 63.1555 150.614 61.3233 155.031 61.3233C156.91 61.3233 158.266 61.629 159.588 62.0698V61.7645C159.588 59.6271 158.232 58.4395 155.588 58.4395C153.571 58.4395 152.145 58.8127 150.44 59.4233L149.118 55.488C151.171 54.6054 153.188 54.0288 156.353 54.0288C159.24 54.0288 161.327 54.7752 162.649 56.0647C164.04 57.4217 164.667 59.4233 164.667 61.8663V72.4179H159.553V70.45C158.266 71.841 156.492 72.7572 153.918 72.7572C150.405 72.7572 147.519 70.7892 147.519 67.1933Z"
    fill="black"
  />
<path
    fill-rule="evenodd"
    clip-rule="evenodd"
    d="M58.1874 69.2438C59.0488 72.43 62.1391 74.8619 63.6996 74.7614C63.7544 74.7577 69.6193 73.6643 72.8297 68.3004C75.3283 64.1257 74.4776 60.0957 71.0793 60.0076C69.8567 60.0967 56.5459 63.1725 58.1874 69.2438Z"
    fill="#666666"
  />
<path
    fill-rule="evenodd"
    clip-rule="evenodd"
    d="M70.7634 48.7756C70.7624 48.7745 70.761 48.7735 70.76 48.7725L70.7647 48.7698C68.1619 46.5514 64.7865 45.2166 61.0983 45.2166C58.9427 45.2166 56.8964 45.6785 55.0461 46.5016C54.7132 46.6412 54.3982 46.7955 54.1006 46.9643C53.8915 47.0759 53.682 47.1869 53.4789 47.3076L53.5283 47.323C52.9144 47.7467 52.3868 48.2416 51.9544 48.8129C47.6735 54.4683 62.0213 58.5787 69.6918 58.5921C73.2209 61.1256 74.2115 51.4597 70.7634 48.7756Z"
    fill="#666666"
  />
<path
    fill-rule="evenodd"
    clip-rule="evenodd"
    d="M55.9101 48.8907C53.9398 51.8529 47.3742 53.9405 46.2942 53.6154C46.2922 53.6114 46.2895 53.6057 46.2871 53.6016C46.3315 53.5122 46.3762 53.4234 46.4223 53.335C46.7958 52.6141 47.2239 51.9258 47.7006 51.2756C48.1774 50.6253 48.703 50.0127 49.2719 49.4438C49.8408 48.8749 50.4531 48.3494 51.1037 47.8726C51.5075 47.5767 51.9261 47.2993 52.3582 47.0421C53.2774 46.5098 54.2192 46.4752 54.5289 46.4641C57.4528 46.5199 55.9259 48.8672 55.9101 48.8907Z"
    fill="black"
  />
<mask
    id="mask0_4121_7274"
    style="mask-type:alpha"
    maskUnits="userSpaceOnUse"
    x="44"
    y="55"
    width="11"
    height="20"
  >
<path d="M44.6665 55.1174H54.3495V74.7455H44.6665V55.1174Z" fill="white" />
</mask>
<g mask="url(#mask0_4121_7274)">
<path
      fill-rule="evenodd"
      clip-rule="evenodd"
      d="M54.2939 69.8251C54.4354 70.7558 54.2902 74.4325 54.0999 74.7425C53.9358 74.7525 53.5942 74.7734 52.605 74.2183C52.0851 73.9217 51.5842 73.5963 51.1037 73.2442C50.4534 72.7674 49.8408 72.2419 49.2719 71.673C48.703 71.1038 48.1774 70.4915 47.7007 69.8412C47.2239 69.191 46.7958 68.5024 46.4223 67.7815C46.0484 67.0603 45.729 66.3068 45.4691 65.526C45.2092 64.745 45.0088 63.937 44.8733 63.1072C44.7381 62.277 44.6675 61.4254 44.6675 60.5572C44.6675 59.6891 44.7381 58.8374 44.8733 58.0076C45.0088 57.1778 45.2092 56.3698 45.4691 55.5891C45.5215 55.431 45.5767 55.274 45.6342 55.1183L45.6352 55.1177C46.7683 56.625 48.0796 57.9884 49.1945 59.5109C50.256 60.96 51.7163 63.3231 52.0135 63.8277C53.8588 66.9621 54.1527 68.8957 54.2939 69.8251Z"
      fill="black"
    />
</g>
<path
    fill-rule="evenodd"
    clip-rule="evenodd"
    d="M76.1057 60.5578C76.1057 62.5964 75.7177 64.5441 75.0116 66.3316C73.1606 68.3214 60.6773 63.4232 60.5549 63.3697C58.8471 62.6216 53.6503 60.345 53.1816 56.7688C52.5071 51.6241 62.9448 48.0392 67.5314 47.9031C68.0815 47.9095 69.7553 47.929 70.731 48.7218C74.0251 51.603 76.1057 55.8375 76.1057 60.5578Z"
    fill="black"
  />
<path
    fill-rule="evenodd"
    clip-rule="evenodd"
    d="M67.6522 74.5013C66.2911 75.1365 64.7932 74.6738 65.1822 73.3487C65.9297 70.8038 72.455 68.1947 73.8961 68.0534C74.0736 68.036 74.1492 68.157 74.0706 68.2952C72.5683 70.9272 70.3434 73.0952 67.6522 74.5013Z"
    fill="black"
  />
</svg>
