<svg
  width="210"
  height="120"
  viewBox="0 0 210 120"
  fill="none"
  xmlns="http://www.w3.org/2000/svg"
>
<path
    d="M45.3555 45.0478V56.1413V55.7066C45.4383 65.1857 53.3859 73.2781 63.2169 73.2781C73.0479 73.2781 80.9955 65.6204 81.0783 56.1413V45.0478C81.0783 45.0478 78.5947 43.8474 75.7799 46.7243C73.9793 48.5663 72.5305 55.2306 68.6602 55.272C63.4859 55.3548 59.9675 48.4835 55.766 45.9171C51.3576 43.2265 45.3555 45.0478 45.3555 45.0478Z"
    fill="#CBCBCB"
  />
<path
    d="M81.077 57.2177V49.5185C80.0629 49.6841 78.8211 50.1808 77.5172 51.3813C75.4889 53.244 73.8745 59.9704 69.5282 60.0325C63.733 60.1153 59.7799 53.1612 55.061 50.5534C51.7702 48.7735 47.6929 48.9804 45.3335 49.3323V57.2384V56.7624C45.4163 66.9038 53.3846 75.555 63.1949 75.555C73.0259 75.555 80.9943 67.3591 81.077 57.2177Z"
    fill="#7B7B7B"
  />
<path
    d="M81.077 57.2142V55.4549C80.3113 55.7447 79.4627 56.2207 78.5934 56.9658C76.3995 58.8285 74.661 65.5549 69.9835 65.617C63.733 65.6998 59.4902 58.7457 54.3987 56.1379C51.4598 54.6685 47.8999 54.565 45.3335 54.772V57.2349V56.7588C45.4163 66.9002 53.3846 75.5515 63.1949 75.5515C73.0259 75.5515 80.9943 67.3556 81.077 57.2142Z"
    fill="black"
  />
<path
    d="M98.1721 68.3517C97.8202 67.7101 97.4891 66.4683 97.4063 65.5577C96.33 67.5653 94.3431 68.6622 92.17 68.6622C89.4587 68.6622 88.0306 66.9651 88.0306 63.8606V57.3411C88.0306 55.913 87.9892 54.9817 87.1406 53.0155C89.3552 52.3739 91.4663 51.6909 93.6394 50.8009V63.219C93.6394 64.7505 94.0534 65.4749 95.3573 65.4749C95.9782 65.4749 96.7026 65.2679 97.3442 64.5849V57.2997C97.3442 55.8302 97.2614 54.3401 96.7647 52.8913C98.9172 52.3118 100.821 51.6288 102.974 50.6768V63.4052C102.974 65.0817 103.098 66.3649 103.822 68.3517H98.1721ZM132.074 68.3517H125.865C125.492 66.9237 125.368 64.3159 125.368 62.5567V56.2856C125.368 54.547 124.788 54.0296 123.65 54.0296C123.029 54.0296 122.263 54.278 121.622 55.0231V62.4946C121.622 64.3366 121.932 66.427 122.656 68.3724H115.992V56.2856C115.992 54.547 115.413 54.0296 114.316 54.0296C113.674 54.0296 112.929 54.278 112.287 55.0231V63.6122C112.287 65.5577 112.329 66.6546 113.177 68.3517H105.789C106.596 66.6546 106.678 65.5577 106.678 63.6122V56.9893C106.678 55.2921 106.637 54.4229 105.789 52.8913C107.631 52.2083 109.535 51.4839 111.335 50.7182C111.832 51.6495 112.225 52.9327 112.287 54.0296C113.322 51.9393 115.35 50.8216 117.482 50.8216C119.78 50.8216 121.125 52.022 121.497 54.2366C122.532 52.0634 124.602 50.8216 126.858 50.8216C129.528 50.8216 130.997 52.5188 130.997 55.6233V62.4739C130.997 64.3366 131.266 66.4063 132.074 68.3517ZM148.114 59.9075H138.324C138.738 62.7636 140.125 64.5436 144.098 64.5436C145.858 64.5436 146.975 64.2124 148.031 63.7571C147.679 65.8061 145.547 68.8071 141.035 68.8071C136.172 68.8071 132.736 65.2679 132.736 59.9282C132.736 54.8161 135.758 50.7802 141.035 50.7802C145.175 50.7802 148.114 53.6778 148.114 58.7278V59.9075ZM142.36 57.486C142.36 53.8434 141.594 52.5809 140.373 52.5809C139.111 52.5809 138.2 53.9882 138.2 57.6309C138.2 58.0034 138.2 58.3759 138.241 58.7485H142.381V57.486H142.36ZM165.333 59.9075H155.544C155.958 62.7636 157.344 64.5436 161.318 64.5436C163.078 64.5436 164.195 64.2124 165.251 63.7571C164.899 65.8061 162.767 68.8071 158.255 68.8071C153.391 68.8071 149.956 65.2679 149.956 59.9282C149.956 54.8161 152.977 50.7802 158.255 50.7802C161.712 50.7802 165.333 53.6778 165.333 58.7278V59.9075ZM159.58 57.486C159.58 53.8434 158.814 52.5809 157.593 52.5809C156.33 52.5809 155.42 53.9882 155.42 57.6309C155.42 58.0034 155.42 58.3759 155.461 58.7485H159.6V57.486H159.58Z"
    fill="black"
  />
</svg>
