<svg width="64" height="65" viewBox="0 0 64 65" fill="none" xmlns="http://www.w3.org/2000/svg">
  <style>
    path {
      fill: black; <!-- set icon color for light mode -->
    }

    @media (prefers-color-scheme: dark) {
      path {
        fill: #F8F8FD; <!-- set icon color for dark mode -->
      }
    }
  </style>
  <path d="M30.8443 33.8956V49.4601C30.8447 49.7259 30.7752 49.9872 30.643 50.2176C30.5107 50.4481 30.3203 50.6395 30.0908 50.7728L24.3164 53.9682L24.3162 53.9674L21.429 55.5651C21.3148 55.6321 21.1849 55.6675 21.0526 55.6679C20.9203 55.6682 20.7903 55.6335 20.6757 55.5672C20.5611 55.5009 20.4661 55.4054 20.4002 55.2903C20.3343 55.1753 20.2999 55.0448 20.3006 54.9122V39.7853C20.3006 39.5191 20.2306 39.2576 20.0978 39.0272C19.9649 38.7967 19.7738 38.6054 19.5437 38.4726L6.48283 30.9109C6.36812 30.8447 6.27284 30.7493 6.20659 30.6344C6.14034 30.5194 6.10547 30.389 6.10547 30.2563C6.10547 30.1235 6.14034 29.9931 6.20659 29.8782C6.27284 29.7633 6.36812 29.6679 6.48283 29.6017L9.36833 28.0031H9.36684L15.1378 24.8059C15.3675 24.6733 15.6279 24.6035 15.893 24.6035C16.158 24.6035 16.4184 24.6733 16.6481 24.8059L30.0806 32.5864C30.3098 32.719 30.5001 32.9099 30.6323 33.1397C30.7646 33.3696 30.8342 33.6303 30.834 33.8956" fill="black"/>
  <path d="M51.9613 21.6385V46.3099C51.9607 46.5816 51.8889 46.8484 51.753 47.0835C51.6171 47.3186 51.4219 47.5137 51.1871 47.6492L39.3468 54.5034C39.2297 54.5716 39.0967 54.6076 38.9613 54.6079C38.8258 54.6082 38.6927 54.5727 38.5753 54.505C38.4579 54.4373 38.3604 54.3397 38.2926 54.2222C38.2247 54.1046 38.189 53.9712 38.1889 53.8354V36.809V29.6116C38.189 29.3397 38.1178 29.0726 37.9825 28.8369C37.8473 28.6013 37.6526 28.4054 37.4182 28.2688L16.4928 16.1586C16.3754 16.0909 16.278 15.9933 16.2102 15.8757C16.1424 15.7581 16.1068 15.6248 16.1068 15.489C16.1068 15.3532 16.1424 15.2198 16.2102 15.1022C16.278 14.9846 16.3754 14.8871 16.4928 14.8193L28.3505 7.96165C28.5855 7.82603 28.8519 7.75464 29.123 7.75464C29.3941 7.75464 29.6605 7.82603 29.8955 7.96165L51.201 20.2991C51.4359 20.4347 51.631 20.6298 51.7669 20.8649C51.9028 21.0999 51.9747 21.3667 51.9753 21.6385" fill="black"/>
</svg>
