<svg width="101" height="25" viewBox="0 0 101 25" fill="none" xmlns="http://www.w3.org/2000/svg">
<path d="M11.6787 12.9612V18.7978C11.6788 18.8975 11.6528 18.9955 11.6032 19.0819C11.5536 19.1683 11.4822 19.2401 11.3961 19.2901L8.14794 21.0872C8.10511 21.1123 8.05642 21.1256 8.0068 21.1258C7.95719 21.1259 7.90842 21.1129 7.86545 21.088C7.82248 21.0631 7.78684 21.0273 7.76213 20.9842C7.73742 20.941 7.72453 20.8921 7.72477 20.8424V15.1698C7.72478 15.07 7.69855 14.9719 7.64872 14.8855C7.5989 14.7991 7.52723 14.7273 7.44095 14.6775L2.54312 11.8419C2.5001 11.8171 2.46438 11.7813 2.43953 11.7382C2.41469 11.6951 2.40161 11.6462 2.40161 11.5964C2.40161 11.5466 2.41469 11.4977 2.43953 11.4546C2.46438 11.4115 2.5001 11.3758 2.54312 11.3509L5.78875 9.55251C5.87489 9.50279 5.97254 9.47662 6.07193 9.47662C6.17132 9.47662 6.26897 9.50279 6.35511 9.55251L11.3923 12.4702C11.4782 12.5199 11.5496 12.5915 11.5992 12.6777C11.6488 12.7639 11.6749 12.8617 11.6748 12.9612" fill="black"/>
<path d="M19.5976 8.36464V17.6164C19.5973 17.7183 19.5704 17.8184 19.5194 17.9065C19.4685 17.9947 19.3953 18.0678 19.3072 18.1187L14.8671 20.689C14.8232 20.7146 14.7733 20.7281 14.7225 20.7282C14.6718 20.7283 14.6218 20.715 14.5778 20.6896C14.5338 20.6642 14.4972 20.6276 14.4718 20.5835C14.4463 20.5395 14.4329 20.4894 14.4329 20.4385V11.3546C14.4329 11.2526 14.4062 11.1524 14.3555 11.0641C14.3048 10.9757 14.2318 10.9022 14.1439 10.851L6.29686 6.3097C6.25286 6.28429 6.21631 6.24769 6.19089 6.20361C6.16548 6.15952 6.1521 6.1095 6.1521 6.05858C6.1521 6.00766 6.16548 5.95763 6.19089 5.91354C6.21631 5.86946 6.25286 5.83286 6.29686 5.80745L10.7435 3.23583C10.8316 3.18497 10.9315 3.1582 11.0332 3.1582C11.1349 3.1582 11.2348 3.18497 11.3229 3.23583L19.3124 7.86238C19.4005 7.91321 19.4737 7.98638 19.5247 8.07453C19.5756 8.16269 19.6026 8.26274 19.6028 8.36464" fill="black"/>
<path d="M32.4823 19.3033C36.3992 19.3033 39.2934 16.9531 40.0333 13.6672H36.8562C36.2469 15.4081 34.5713 16.5397 32.504 16.5397C29.6316 16.5397 27.5426 14.3853 27.5426 11.4041C27.5426 8.46637 29.6316 6.26852 32.504 6.26852C34.5931 6.26852 36.2469 7.42185 36.8127 9.18448H39.9463C39.1629 5.92034 36.421 3.50488 32.504 3.50488C27.8472 3.50488 24.5396 6.92135 24.5396 11.4041C24.5396 15.9304 27.8254 19.3033 32.4823 19.3033Z" fill="black"/>
<path d="M41.4881 19.0204H50.5406V16.4526H44.3823V3.78778H41.4881V19.0204Z" fill="black"/>
<path d="M51.958 19.0204H54.8522V3.78778H51.958V19.0204Z" fill="black"/>
<path d="M67.3281 19H63.7372V7.36364H67.4872C68.616 7.36364 69.5819 7.59659 70.3849 8.0625C71.188 8.52462 71.8035 9.18939 72.2315 10.0568C72.6596 10.9205 72.8736 11.9545 72.8736 13.1591C72.8736 14.3712 72.6577 15.4148 72.2259 16.2898C71.794 17.161 71.1652 17.8314 70.3395 18.3011C69.5137 18.767 68.5099 19 67.3281 19ZM65.1463 17.75H67.2372C68.1993 17.75 68.9967 17.5644 69.6293 17.1932C70.2618 16.822 70.7334 16.2936 71.044 15.608C71.3546 14.9223 71.5099 14.1061 71.5099 13.1591C71.5099 12.2197 71.3565 11.411 71.0497 10.733C70.7429 10.0511 70.2846 9.52841 69.6747 9.16477C69.0649 8.79735 68.3054 8.61364 67.3963 8.61364H65.1463V17.75ZM78.6009 19.1818C77.813 19.1818 77.1217 18.9943 76.527 18.6193C75.9361 18.2443 75.474 17.7197 75.1406 17.0455C74.8111 16.3712 74.6463 15.5833 74.6463 14.6818C74.6463 13.7727 74.8111 12.9792 75.1406 12.3011C75.474 11.6231 75.9361 11.0966 76.527 10.7216C77.1217 10.3466 77.813 10.1591 78.6009 10.1591C79.3887 10.1591 80.0781 10.3466 80.669 10.7216C81.2637 11.0966 81.7259 11.6231 82.0554 12.3011C82.3887 12.9792 82.5554 13.7727 82.5554 14.6818C82.5554 15.5833 82.3887 16.3712 82.0554 17.0455C81.7259 17.7197 81.2637 18.2443 80.669 18.6193C80.0781 18.9943 79.3887 19.1818 78.6009 19.1818ZM78.6009 17.9773C79.1993 17.9773 79.6918 17.8239 80.0781 17.517C80.4645 17.2102 80.7505 16.8068 80.9361 16.3068C81.1217 15.8068 81.2145 15.2652 81.2145 14.6818C81.2145 14.0985 81.1217 13.5549 80.9361 13.0511C80.7505 12.5473 80.4645 12.1402 80.0781 11.8295C79.6918 11.5189 79.1993 11.3636 78.6009 11.3636C78.0024 11.3636 77.5099 11.5189 77.1236 11.8295C76.7372 12.1402 76.4512 12.5473 76.2656 13.0511C76.08 13.5549 75.9872 14.0985 75.9872 14.6818C75.9872 15.2652 76.08 15.8068 76.2656 16.3068C76.4512 16.8068 76.7372 17.2102 77.1236 17.517C77.5099 17.8239 78.0024 17.9773 78.6009 17.9773ZM88.1477 19.1818C87.3295 19.1818 86.625 18.9886 86.0341 18.6023C85.4432 18.2159 84.9886 17.6837 84.6705 17.0057C84.3523 16.3277 84.1932 15.553 84.1932 14.6818C84.1932 13.7955 84.3561 13.0133 84.6818 12.3352C85.0114 11.6534 85.4697 11.1212 86.0568 10.7386C86.6477 10.3523 87.3371 10.1591 88.125 10.1591C88.7386 10.1591 89.2917 10.2727 89.7841 10.5C90.2765 10.7273 90.6799 11.0455 90.9943 11.4545C91.3087 11.8636 91.5038 12.3409 91.5795 12.8864H90.2386C90.1364 12.4886 89.9091 12.1364 89.5568 11.8295C89.2083 11.5189 88.7386 11.3636 88.1477 11.3636C87.625 11.3636 87.1667 11.5 86.7727 11.7727C86.3826 12.0417 86.0777 12.4223 85.858 12.9148C85.642 13.4034 85.5341 13.9773 85.5341 14.6364C85.5341 15.3106 85.6402 15.8977 85.8523 16.3977C86.0682 16.8977 86.3712 17.286 86.7614 17.5625C87.1553 17.839 87.6174 17.9773 88.1477 17.9773C88.4962 17.9773 88.8125 17.9167 89.0966 17.7955C89.3807 17.6742 89.6212 17.5 89.8182 17.2727C90.0152 17.0455 90.1553 16.7727 90.2386 16.4545H91.5795C91.5038 16.9697 91.3163 17.4337 91.017 17.8466C90.7216 18.2557 90.3295 18.5814 89.8409 18.8239C89.3561 19.0625 88.7917 19.1818 88.1477 19.1818ZM99.7216 12.2273L98.517 12.5682C98.4413 12.3674 98.3295 12.1723 98.1818 11.983C98.0379 11.7898 97.8409 11.6307 97.5909 11.5057C97.3409 11.3807 97.0208 11.3182 96.6307 11.3182C96.0966 11.3182 95.6515 11.4413 95.2955 11.6875C94.9432 11.9299 94.767 12.2386 94.767 12.6136C94.767 12.947 94.8883 13.2102 95.1307 13.4034C95.3731 13.5966 95.7519 13.7576 96.267 13.8864L97.5625 14.2045C98.3428 14.3939 98.9242 14.6837 99.3068 15.0739C99.6894 15.4602 99.8807 15.9583 99.8807 16.5682C99.8807 17.0682 99.7367 17.5152 99.4489 17.9091C99.1648 18.303 98.767 18.6136 98.2557 18.8409C97.7443 19.0682 97.1496 19.1818 96.4716 19.1818C95.5814 19.1818 94.8447 18.9886 94.2614 18.6023C93.678 18.2159 93.3087 17.6515 93.1534 16.9091L94.4261 16.5909C94.5473 17.0606 94.7765 17.4129 95.1136 17.6477C95.4545 17.8826 95.8996 18 96.4489 18C97.0739 18 97.5701 17.8674 97.9375 17.6023C98.3087 17.3333 98.4943 17.0114 98.4943 16.6364C98.4943 16.3333 98.3883 16.0795 98.1761 15.875C97.964 15.6667 97.6383 15.5114 97.1989 15.4091L95.7443 15.0682C94.9451 14.8788 94.358 14.5852 93.983 14.1875C93.6117 13.786 93.4261 13.2841 93.4261 12.6818C93.4261 12.1894 93.5644 11.7538 93.8409 11.375C94.1212 10.9962 94.5019 10.6989 94.983 10.483C95.4678 10.267 96.017 10.1591 96.6307 10.1591C97.4943 10.1591 98.1723 10.3485 98.6648 10.7273C99.161 11.1061 99.5133 11.6061 99.7216 12.2273Z" fill="black" fill-opacity="0.667"/>
</svg>
