<svg width="102" height="25" viewBox="0 0 102 25" fill="none" xmlns="http://www.w3.org/2000/svg">
<path d="M12.1787 12.9612V18.7978C12.1788 18.8975 12.1528 18.9955 12.1032 19.0819C12.0536 19.1683 11.9822 19.2401 11.8961 19.2901L8.64794 21.0872C8.60511 21.1123 8.55642 21.1256 8.5068 21.1258C8.45719 21.1259 8.40842 21.1129 8.36545 21.088C8.32248 21.0631 8.28684 21.0273 8.26213 20.9842C8.23742 20.941 8.22453 20.8921 8.22477 20.8424V15.1698C8.22478 15.07 8.19855 14.9719 8.14872 14.8855C8.0989 14.7991 8.02723 14.7273 7.94095 14.6775L3.04312 11.8419C3.0001 11.8171 2.96438 11.7813 2.93953 11.7382C2.91469 11.6951 2.90161 11.6462 2.90161 11.5964C2.90161 11.5466 2.91469 11.4977 2.93953 11.4546C2.96438 11.4115 3.0001 11.3758 3.04312 11.3509L6.28875 9.55251C6.37489 9.50279 6.47254 9.47662 6.57193 9.47662C6.67132 9.47662 6.76897 9.50279 6.85511 9.55251L11.8923 12.4702C11.9782 12.5199 12.0496 12.5915 12.0992 12.6777C12.1488 12.7639 12.1749 12.8617 12.1748 12.9612" fill="white"/>
<path d="M20.0976 8.36464V17.6164C20.0973 17.7183 20.0704 17.8184 20.0194 17.9065C19.9685 17.9947 19.8953 18.0678 19.8072 18.1187L15.3671 20.689C15.3232 20.7146 15.2733 20.7281 15.2225 20.7282C15.1718 20.7283 15.1218 20.715 15.0778 20.6896C15.0338 20.6642 14.9972 20.6276 14.9718 20.5835C14.9463 20.5395 14.9329 20.4894 14.9329 20.4385V11.3546C14.9329 11.2526 14.9062 11.1524 14.8555 11.0641C14.8048 10.9757 14.7318 10.9022 14.6439 10.851L6.79686 6.3097C6.75286 6.28429 6.71631 6.24769 6.69089 6.20361C6.66548 6.15952 6.6521 6.1095 6.6521 6.05858C6.6521 6.00766 6.66548 5.95763 6.69089 5.91354C6.71631 5.86946 6.75286 5.83286 6.79686 5.80745L11.2435 3.23583C11.3316 3.18497 11.4315 3.1582 11.5332 3.1582C11.6349 3.1582 11.7348 3.18497 11.8229 3.23583L19.8124 7.86238C19.9005 7.91321 19.9737 7.98638 20.0247 8.07453C20.0756 8.16269 20.1026 8.26274 20.1028 8.36464" fill="white"/>
<path d="M32.9823 19.3033C36.8992 19.3033 39.7934 16.9531 40.5333 13.6672H37.3562C36.7469 15.4081 35.0713 16.5397 33.004 16.5397C30.1316 16.5397 28.0426 14.3853 28.0426 11.4041C28.0426 8.46637 30.1316 6.26852 33.004 6.26852C35.0931 6.26852 36.7469 7.42185 37.3127 9.18448H40.4463C39.6629 5.92034 36.921 3.50488 33.004 3.50488C28.3472 3.50488 25.0396 6.92135 25.0396 11.4041C25.0396 15.9304 28.3254 19.3033 32.9823 19.3033Z" fill="white"/>
<path d="M41.9881 19.0204H51.0406V16.4526H44.8823V3.78778H41.9881V19.0204Z" fill="white"/>
<path d="M52.458 19.0204H55.3522V3.78778H52.458V19.0204Z" fill="white"/>
<path d="M67.8281 19H64.2372V7.36364H67.9872C69.116 7.36364 70.0819 7.59659 70.8849 8.0625C71.688 8.52462 72.3035 9.18939 72.7315 10.0568C73.1596 10.9205 73.3736 11.9545 73.3736 13.1591C73.3736 14.3712 73.1577 15.4148 72.7259 16.2898C72.294 17.161 71.6652 17.8314 70.8395 18.3011C70.0137 18.767 69.0099 19 67.8281 19ZM65.6463 17.75H67.7372C68.6993 17.75 69.4967 17.5644 70.1293 17.1932C70.7618 16.822 71.2334 16.2936 71.544 15.608C71.8546 14.9223 72.0099 14.1061 72.0099 13.1591C72.0099 12.2197 71.8565 11.411 71.5497 10.733C71.2429 10.0511 70.7846 9.52841 70.1747 9.16477C69.5649 8.79735 68.8054 8.61364 67.8963 8.61364H65.6463V17.75ZM79.1009 19.1818C78.313 19.1818 77.6217 18.9943 77.027 18.6193C76.4361 18.2443 75.974 17.7197 75.6406 17.0455C75.3111 16.3712 75.1463 15.5833 75.1463 14.6818C75.1463 13.7727 75.3111 12.9792 75.6406 12.3011C75.974 11.6231 76.4361 11.0966 77.027 10.7216C77.6217 10.3466 78.313 10.1591 79.1009 10.1591C79.8887 10.1591 80.5781 10.3466 81.169 10.7216C81.7637 11.0966 82.2259 11.6231 82.5554 12.3011C82.8887 12.9792 83.0554 13.7727 83.0554 14.6818C83.0554 15.5833 82.8887 16.3712 82.5554 17.0455C82.2259 17.7197 81.7637 18.2443 81.169 18.6193C80.5781 18.9943 79.8887 19.1818 79.1009 19.1818ZM79.1009 17.9773C79.6993 17.9773 80.1918 17.8239 80.5781 17.517C80.9645 17.2102 81.2505 16.8068 81.4361 16.3068C81.6217 15.8068 81.7145 15.2652 81.7145 14.6818C81.7145 14.0985 81.6217 13.5549 81.4361 13.0511C81.2505 12.5473 80.9645 12.1402 80.5781 11.8295C80.1918 11.5189 79.6993 11.3636 79.1009 11.3636C78.5024 11.3636 78.0099 11.5189 77.6236 11.8295C77.2372 12.1402 76.9512 12.5473 76.7656 13.0511C76.58 13.5549 76.4872 14.0985 76.4872 14.6818C76.4872 15.2652 76.58 15.8068 76.7656 16.3068C76.9512 16.8068 77.2372 17.2102 77.6236 17.517C78.0099 17.8239 78.5024 17.9773 79.1009 17.9773ZM88.6477 19.1818C87.8295 19.1818 87.125 18.9886 86.5341 18.6023C85.9432 18.2159 85.4886 17.6837 85.1705 17.0057C84.8523 16.3277 84.6932 15.553 84.6932 14.6818C84.6932 13.7955 84.8561 13.0133 85.1818 12.3352C85.5114 11.6534 85.9697 11.1212 86.5568 10.7386C87.1477 10.3523 87.8371 10.1591 88.625 10.1591C89.2386 10.1591 89.7917 10.2727 90.2841 10.5C90.7765 10.7273 91.1799 11.0455 91.4943 11.4545C91.8087 11.8636 92.0038 12.3409 92.0795 12.8864H90.7386C90.6364 12.4886 90.4091 12.1364 90.0568 11.8295C89.7083 11.5189 89.2386 11.3636 88.6477 11.3636C88.125 11.3636 87.6667 11.5 87.2727 11.7727C86.8826 12.0417 86.5777 12.4223 86.358 12.9148C86.142 13.4034 86.0341 13.9773 86.0341 14.6364C86.0341 15.3106 86.1402 15.8977 86.3523 16.3977C86.5682 16.8977 86.8712 17.286 87.2614 17.5625C87.6553 17.839 88.1174 17.9773 88.6477 17.9773C88.9962 17.9773 89.3125 17.9167 89.5966 17.7955C89.8807 17.6742 90.1212 17.5 90.3182 17.2727C90.5152 17.0455 90.6553 16.7727 90.7386 16.4545H92.0795C92.0038 16.9697 91.8163 17.4337 91.517 17.8466C91.2216 18.2557 90.8295 18.5814 90.3409 18.8239C89.8561 19.0625 89.2917 19.1818 88.6477 19.1818ZM100.222 12.2273L99.017 12.5682C98.9413 12.3674 98.8295 12.1723 98.6818 11.983C98.5379 11.7898 98.3409 11.6307 98.0909 11.5057C97.8409 11.3807 97.5208 11.3182 97.1307 11.3182C96.5966 11.3182 96.1515 11.4413 95.7955 11.6875C95.4432 11.9299 95.267 12.2386 95.267 12.6136C95.267 12.947 95.3883 13.2102 95.6307 13.4034C95.8731 13.5966 96.2519 13.7576 96.767 13.8864L98.0625 14.2045C98.8428 14.3939 99.4242 14.6837 99.8068 15.0739C100.189 15.4602 100.381 15.9583 100.381 16.5682C100.381 17.0682 100.237 17.5152 99.9489 17.9091C99.6648 18.303 99.267 18.6136 98.7557 18.8409C98.2443 19.0682 97.6496 19.1818 96.9716 19.1818C96.0814 19.1818 95.3447 18.9886 94.7614 18.6023C94.178 18.2159 93.8087 17.6515 93.6534 16.9091L94.9261 16.5909C95.0473 17.0606 95.2765 17.4129 95.6136 17.6477C95.9545 17.8826 96.3996 18 96.9489 18C97.5739 18 98.0701 17.8674 98.4375 17.6023C98.8087 17.3333 98.9943 17.0114 98.9943 16.6364C98.9943 16.3333 98.8883 16.0795 98.6761 15.875C98.464 15.6667 98.1383 15.5114 97.6989 15.4091L96.2443 15.0682C95.4451 14.8788 94.858 14.5852 94.483 14.1875C94.1117 13.786 93.9261 13.2841 93.9261 12.6818C93.9261 12.1894 94.0644 11.7538 94.3409 11.375C94.6212 10.9962 95.0019 10.6989 95.483 10.483C95.9678 10.267 96.517 10.1591 97.1307 10.1591C97.9943 10.1591 98.6723 10.3485 99.1648 10.7273C99.661 11.1061 100.013 11.6061 100.222 12.2273Z" fill="white" fill-opacity="0.667"/>
</svg>
