<svg width="105" height="25" viewBox="0 0 105 25" fill="none" xmlns="http://www.w3.org/2000/svg">
<path d="M10 17L6 13L10 9" stroke="white" stroke-width="1.6" stroke-linecap="round" stroke-linejoin="round"/>
<path d="M50.9089 4.71718C50.9089 5.61825 50.309 6.17423 49.4545 6.17423C48.6 6.17423 48 5.61825 48 4.71718C48 3.85445 48.6 3.2793 49.4545 3.2793C50.309 3.2793 50.9089 3.85445 50.9089 4.71718Z" fill="white"/>
<path d="M48.0359 19.0191H50.8772V7.57715H48.0359V19.0191Z" fill="white"/>
<path d="M58.2042 24.3036C62.0947 24.3036 64.0618 22.0413 64.0618 18.9307V7.57575H61.2422V9.05494H61.0674C60.7177 8.48937 59.5811 7.29297 57.5485 7.29297C54.4885 7.29297 52.2373 9.64226 52.2373 13.2532C52.2373 16.8859 54.5323 19.1917 57.6359 19.1917C59.6904 19.1917 60.7614 17.9736 61.0892 17.4515H61.2641V18.9307C61.2641 20.8884 60.2587 21.9761 58.2042 21.9761C56.6523 21.9761 55.7344 21.3235 55.5158 20.3011H52.893C53.0897 22.4329 54.882 24.3036 58.2042 24.3036ZM58.2042 16.6466C56.3682 16.6466 55.1224 15.3415 55.1224 13.2532C55.1224 11.2302 56.3682 9.85979 58.1823 9.85979C59.9746 9.85979 61.286 11.1214 61.286 13.2532C61.286 15.1892 60.1057 16.6466 58.2042 16.6466Z" fill="white"/>
<path d="M66.0167 19.0177H68.8581V12.4701C68.8581 11.0344 69.8416 9.9468 71.2186 9.9468C72.53 9.9468 73.4261 10.8822 73.4261 12.2743V19.0177H76.2675V11.5347C76.2675 9.09844 74.6938 7.29297 72.1147 7.29297C70.4755 7.29297 69.3389 8.11957 68.8799 8.96793H68.7269V7.57575H66.0167V19.0177Z" fill="white"/>
<path d="M81.0895 4.71718C81.0895 5.61825 80.4895 6.17423 79.635 6.17423C78.7805 6.17423 78.1805 5.61825 78.1805 4.71718C78.1805 3.85445 78.7805 3.2793 79.635 3.2793C80.4895 3.2793 81.0895 3.85445 81.0895 4.71718Z" fill="white"/>
<path d="M78.2248 19.0191H81.0662V7.57715H78.2248V19.0191Z" fill="white"/>
<path d="M86.8472 19.0189H89.0329V16.6696H87.4373C86.3445 16.6696 85.8636 16.0606 85.8636 15.1034V9.83928H89.0329V7.57699H85.8636V4.42285H83.0223V15.2122C83.0223 17.6703 84.4648 19.0189 86.8472 19.0189Z" fill="white"/>
<path d="M95.2954 19.3044C98.2679 19.3044 100.322 17.7817 100.891 15.4541H98.2461C97.8527 16.3895 96.7817 17.0421 95.3829 17.0421C93.5469 17.0421 92.3448 15.8674 92.2574 14.1272H101V13.2354C101 10.016 98.9892 7.29688 95.2954 7.29688C91.9295 7.29688 89.5034 9.75493 89.5034 13.3659C89.5034 16.7811 91.9076 19.3044 95.2954 19.3044ZM92.3011 12.126C92.4759 10.6903 93.6999 9.55916 95.2954 9.55916C96.9565 9.55916 98.1586 10.5815 98.2898 12.126H92.3011Z" fill="white"/>
<path d="M34.0666 12.9612V18.7978C34.0667 18.8975 34.0407 18.9955 33.9911 19.0819C33.9415 19.1683 33.8701 19.2401 33.7841 19.2901L30.5359 21.0872C30.493 21.1123 30.4444 21.1256 30.3947 21.1258C30.3451 21.1259 30.2964 21.1129 30.2534 21.088C30.2104 21.0631 30.1748 21.0273 30.1501 20.9842C30.1254 20.941 30.1125 20.8921 30.1127 20.8424V15.1698C30.1127 15.07 30.0865 14.9719 30.0367 14.8855C29.9868 14.7991 29.9152 14.7273 29.8289 14.6775L24.9311 11.8419C24.888 11.8171 24.8523 11.7813 24.8275 11.7382C24.8026 11.6951 24.7896 11.6462 24.7896 11.5964C24.7896 11.5466 24.8026 11.4977 24.8275 11.4546C24.8523 11.4115 24.888 11.3758 24.9311 11.3509L28.1767 9.55251C28.2628 9.50279 28.3605 9.47662 28.4599 9.47662C28.5593 9.47662 28.6569 9.50279 28.7431 9.55251L33.7802 12.4702C33.8662 12.5199 33.9375 12.5915 33.9871 12.6777C34.0367 12.7639 34.0628 12.8617 34.0628 12.9612" fill="white"/>
<path d="M41.9855 8.36464V17.6164C41.9853 17.7183 41.9583 17.8184 41.9074 17.9065C41.8564 17.9947 41.7832 18.0678 41.6952 18.1187L37.2551 20.689C37.2111 20.7146 37.1613 20.7281 37.1105 20.7282C37.0597 20.7283 37.0098 20.715 36.9658 20.6896C36.9217 20.6642 36.8852 20.6276 36.8597 20.5835C36.8343 20.5395 36.8209 20.4894 36.8209 20.4385V11.3546C36.8209 11.2526 36.7942 11.1524 36.7435 11.0641C36.6927 10.9757 36.6198 10.9022 36.5318 10.851L28.6848 6.3097C28.6408 6.28429 28.6042 6.24769 28.5788 6.20361C28.5534 6.15952 28.54 6.1095 28.54 6.05858C28.54 6.00766 28.5534 5.95763 28.5788 5.91354C28.6042 5.86946 28.6408 5.83286 28.6848 5.80745L33.1314 3.23583C33.2196 3.18497 33.3195 3.1582 33.4211 3.1582C33.5228 3.1582 33.6227 3.18497 33.7108 3.23583L41.7004 7.86238C41.7885 7.91321 41.8616 7.98638 41.9126 8.07453C41.9636 8.16269 41.9905 8.26274 41.9907 8.36464" fill="white"/>
</svg>
