<svg width="126" height="25" viewBox="0 0 126 25" fill="none" xmlns="http://www.w3.org/2000/svg">
<path d="M28.9089 4.71718C28.9089 5.61825 28.309 6.17423 27.4545 6.17423C26.6 6.17423 26 5.61825 26 4.71718C26 3.85445 26.6 3.2793 27.4545 3.2793C28.309 3.2793 28.9089 3.85445 28.9089 4.71718Z" fill="white"/>
<path d="M26.0359 19.0191H28.8773V7.57715H26.0359V19.0191Z" fill="white"/>
<path d="M36.2042 24.3036C40.0947 24.3036 42.0618 22.0413 42.0618 18.9307V7.57575H39.2422V9.05494H39.0674C38.7177 8.48937 37.5811 7.29297 35.5485 7.29297C32.4885 7.29297 30.2373 9.64226 30.2373 13.2532C30.2373 16.8859 32.5323 19.1917 35.6359 19.1917C37.6904 19.1917 38.7614 17.9736 39.0892 17.4515H39.2641V18.9307C39.2641 20.8884 38.2587 21.9761 36.2042 21.9761C34.6523 21.9761 33.7344 21.3235 33.5158 20.3011H30.893C31.0897 22.4329 32.882 24.3036 36.2042 24.3036ZM36.2042 16.6466C34.3682 16.6466 33.1224 15.3415 33.1224 13.2532C33.1224 11.2302 34.3682 9.85979 36.1823 9.85979C37.9746 9.85979 39.286 11.1214 39.286 13.2532C39.286 15.1892 38.1057 16.6466 36.2042 16.6466Z" fill="white"/>
<path d="M44.0167 19.0177H46.8581V12.4701C46.8581 11.0344 47.8416 9.9468 49.2186 9.9468C50.53 9.9468 51.4261 10.8822 51.4261 12.2743V19.0177H54.2675V11.5347C54.2675 9.09844 52.6938 7.29297 50.1147 7.29297C48.4755 7.29297 47.3389 8.11957 46.8799 8.96793H46.7269V7.57575H44.0167V19.0177Z" fill="white"/>
<path d="M59.0895 4.71718C59.0895 5.61825 58.4895 6.17423 57.635 6.17423C56.7805 6.17423 56.1805 5.61825 56.1805 4.71718C56.1805 3.85445 56.7805 3.2793 57.635 3.2793C58.4895 3.2793 59.0895 3.85445 59.0895 4.71718Z" fill="white"/>
<path d="M56.2249 19.0191H59.0662V7.57715H56.2249V19.0191Z" fill="white"/>
<path d="M64.8471 19.0189H67.0328V16.6696H65.4373C64.3444 16.6696 63.8636 16.0606 63.8636 15.1034V9.83928H67.0328V7.57699H63.8636V4.42285H61.0222V15.2122C61.0222 17.6703 62.4648 19.0189 64.8471 19.0189Z" fill="white"/>
<path d="M73.2954 19.3044C76.2679 19.3044 78.3225 17.7817 78.8907 15.4541H76.2461C75.8527 16.3895 74.7817 17.0421 73.3829 17.0421C71.5469 17.0421 70.3448 15.8674 70.2574 14.1272H79V13.2354C79 10.016 76.9892 7.29688 73.2954 7.29688C69.9295 7.29688 67.5034 9.75493 67.5034 13.3659C67.5034 16.7811 69.9076 19.3044 73.2954 19.3044ZM70.3011 12.126C70.4759 10.6903 71.6999 9.55916 73.2954 9.55916C74.9565 9.55916 76.1586 10.5815 76.2898 12.126H70.3011Z" fill="white"/>
<path d="M12.0666 12.9612V18.7978C12.0667 18.8975 12.0407 18.9955 11.9911 19.0819C11.9415 19.1683 11.8701 19.2401 11.7841 19.2901L8.53588 21.0872C8.49305 21.1123 8.44436 21.1256 8.39474 21.1258C8.34513 21.1259 8.29636 21.1129 8.25339 21.088C8.21042 21.0631 8.17477 21.0273 8.15007 20.9842C8.12536 20.941 8.11247 20.8921 8.11271 20.8424V15.1698C8.11272 15.07 8.08649 14.9719 8.03666 14.8855C7.98684 14.7991 7.91517 14.7273 7.82889 14.6775L2.93106 11.8419C2.88804 11.8171 2.85232 11.7813 2.82747 11.7382C2.80263 11.6951 2.78955 11.6462 2.78955 11.5964C2.78955 11.5466 2.80263 11.4977 2.82747 11.4546C2.85232 11.4115 2.88804 11.3758 2.93106 11.3509L6.17669 9.55251C6.26283 9.50279 6.36048 9.47662 6.45987 9.47662C6.55926 9.47662 6.65691 9.50279 6.74305 9.55251L11.7802 12.4702C11.8662 12.5199 11.9375 12.5915 11.9871 12.6777C12.0367 12.7639 12.0628 12.8617 12.0628 12.9612" fill="white"/>
<path d="M19.9855 8.36464V17.6164C19.9853 17.7183 19.9583 17.8184 19.9074 17.9065C19.8564 17.9947 19.7832 18.0678 19.6952 18.1187L15.2551 20.689C15.2111 20.7146 15.1613 20.7281 15.1105 20.7282C15.0597 20.7283 15.0098 20.715 14.9658 20.6896C14.9217 20.6642 14.8852 20.6276 14.8597 20.5835C14.8343 20.5395 14.8209 20.4894 14.8209 20.4385V11.3546C14.8209 11.2526 14.7942 11.1524 14.7435 11.0641C14.6927 10.9757 14.6198 10.9022 14.5318 10.851L6.6848 6.3097C6.6408 6.28429 6.60425 6.24769 6.57883 6.20361C6.55342 6.15952 6.54004 6.1095 6.54004 6.05858C6.54004 6.00766 6.55342 5.95763 6.57883 5.91354C6.60425 5.86946 6.6408 5.83286 6.6848 5.80745L11.1314 3.23583C11.2196 3.18497 11.3195 3.1582 11.4211 3.1582C11.5228 3.1582 11.6227 3.18497 11.7108 3.23583L19.7004 7.86238C19.7885 7.91321 19.8616 7.98638 19.9126 8.07453C19.9636 8.16269 19.9905 8.26274 19.9907 8.36464" fill="white"/>
<path d="M92.3281 19H88.7372V7.36364H92.4872C93.616 7.36364 94.5819 7.59659 95.3849 8.0625C96.188 8.52462 96.8035 9.18939 97.2315 10.0568C97.6596 10.9205 97.8736 11.9545 97.8736 13.1591C97.8736 14.3712 97.6577 15.4148 97.2259 16.2898C96.794 17.161 96.1652 17.8314 95.3395 18.3011C94.5137 18.767 93.5099 19 92.3281 19ZM90.1463 17.75H92.2372C93.1993 17.75 93.9967 17.5644 94.6293 17.1932C95.2618 16.822 95.7334 16.2936 96.044 15.608C96.3546 14.9223 96.5099 14.1061 96.5099 13.1591C96.5099 12.2197 96.3565 11.411 96.0497 10.733C95.7429 10.0511 95.2846 9.52841 94.6747 9.16477C94.0649 8.79735 93.3054 8.61364 92.3963 8.61364H90.1463V17.75ZM103.601 19.1818C102.813 19.1818 102.122 18.9943 101.527 18.6193C100.936 18.2443 100.474 17.7197 100.141 17.0455C99.8111 16.3712 99.6463 15.5833 99.6463 14.6818C99.6463 13.7727 99.8111 12.9792 100.141 12.3011C100.474 11.6231 100.936 11.0966 101.527 10.7216C102.122 10.3466 102.813 10.1591 103.601 10.1591C104.389 10.1591 105.078 10.3466 105.669 10.7216C106.264 11.0966 106.726 11.6231 107.055 12.3011C107.389 12.9792 107.555 13.7727 107.555 14.6818C107.555 15.5833 107.389 16.3712 107.055 17.0455C106.726 17.7197 106.264 18.2443 105.669 18.6193C105.078 18.9943 104.389 19.1818 103.601 19.1818ZM103.601 17.9773C104.199 17.9773 104.692 17.8239 105.078 17.517C105.464 17.2102 105.75 16.8068 105.936 16.3068C106.122 15.8068 106.214 15.2652 106.214 14.6818C106.214 14.0985 106.122 13.5549 105.936 13.0511C105.75 12.5473 105.464 12.1402 105.078 11.8295C104.692 11.5189 104.199 11.3636 103.601 11.3636C103.002 11.3636 102.51 11.5189 102.124 11.8295C101.737 12.1402 101.451 12.5473 101.266 13.0511C101.08 13.5549 100.987 14.0985 100.987 14.6818C100.987 15.2652 101.08 15.8068 101.266 16.3068C101.451 16.8068 101.737 17.2102 102.124 17.517C102.51 17.8239 103.002 17.9773 103.601 17.9773ZM113.148 19.1818C112.33 19.1818 111.625 18.9886 111.034 18.6023C110.443 18.2159 109.989 17.6837 109.67 17.0057C109.352 16.3277 109.193 15.553 109.193 14.6818C109.193 13.7955 109.356 13.0133 109.682 12.3352C110.011 11.6534 110.47 11.1212 111.057 10.7386C111.648 10.3523 112.337 10.1591 113.125 10.1591C113.739 10.1591 114.292 10.2727 114.784 10.5C115.277 10.7273 115.68 11.0455 115.994 11.4545C116.309 11.8636 116.504 12.3409 116.58 12.8864H115.239C115.136 12.4886 114.909 12.1364 114.557 11.8295C114.208 11.5189 113.739 11.3636 113.148 11.3636C112.625 11.3636 112.167 11.5 111.773 11.7727C111.383 12.0417 111.078 12.4223 110.858 12.9148C110.642 13.4034 110.534 13.9773 110.534 14.6364C110.534 15.3106 110.64 15.8977 110.852 16.3977C111.068 16.8977 111.371 17.286 111.761 17.5625C112.155 17.839 112.617 17.9773 113.148 17.9773C113.496 17.9773 113.812 17.9167 114.097 17.7955C114.381 17.6742 114.621 17.5 114.818 17.2727C115.015 17.0455 115.155 16.7727 115.239 16.4545H116.58C116.504 16.9697 116.316 17.4337 116.017 17.8466C115.722 18.2557 115.33 18.5814 114.841 18.8239C114.356 19.0625 113.792 19.1818 113.148 19.1818ZM124.722 12.2273L123.517 12.5682C123.441 12.3674 123.33 12.1723 123.182 11.983C123.038 11.7898 122.841 11.6307 122.591 11.5057C122.341 11.3807 122.021 11.3182 121.631 11.3182C121.097 11.3182 120.652 11.4413 120.295 11.6875C119.943 11.9299 119.767 12.2386 119.767 12.6136C119.767 12.947 119.888 13.2102 120.131 13.4034C120.373 13.5966 120.752 13.7576 121.267 13.8864L122.562 14.2045C123.343 14.3939 123.924 14.6837 124.307 15.0739C124.689 15.4602 124.881 15.9583 124.881 16.5682C124.881 17.0682 124.737 17.5152 124.449 17.9091C124.165 18.303 123.767 18.6136 123.256 18.8409C122.744 19.0682 122.15 19.1818 121.472 19.1818C120.581 19.1818 119.845 18.9886 119.261 18.6023C118.678 18.2159 118.309 17.6515 118.153 16.9091L119.426 16.5909C119.547 17.0606 119.777 17.4129 120.114 17.6477C120.455 17.8826 120.9 18 121.449 18C122.074 18 122.57 17.8674 122.938 17.6023C123.309 17.3333 123.494 17.0114 123.494 16.6364C123.494 16.3333 123.388 16.0795 123.176 15.875C122.964 15.6667 122.638 15.5114 122.199 15.4091L120.744 15.0682C119.945 14.8788 119.358 14.5852 118.983 14.1875C118.612 13.786 118.426 13.2841 118.426 12.6818C118.426 12.1894 118.564 11.7538 118.841 11.375C119.121 10.9962 119.502 10.6989 119.983 10.483C120.468 10.267 121.017 10.1591 121.631 10.1591C122.494 10.1591 123.172 10.3485 123.665 10.7273C124.161 11.1061 124.513 11.6061 124.722 12.2273Z" fill="white" fill-opacity="0.667"/>
</svg>
