<svg width="191" height="30" viewBox="0 0 191 30" fill="none" xmlns="http://www.w3.org/2000/svg">
  <path d="M30.4327 15.813L29.9589 16.632L28.0368 19.965L27.554 20.799C27.1201 21.5594 26.4937 22.1921 25.7378 22.6334C24.9818 23.0747 24.1231 23.3091 23.2479 23.313H7.82277C7.47881 23.3122 7.14286 23.4169 6.8602 23.613C6.67942 23.741 6.52641 23.9043 6.4104 24.093L6.38941 24.126C6.38132 24.1373 6.37429 24.1494 6.36842 24.162L6.14052 24.552L4.94106 26.613H11.6671C12.012 26.6142 12.3491 26.5095 12.6326 26.313C12.8279 26.1749 12.9906 25.9957 13.1094 25.788C13.1104 25.781 13.1104 25.774 13.1094 25.767L13.8051 24.567H17.6524L16.4529 26.628L16.0121 27.387L15.9701 27.459C15.5309 28.2178 14.8998 28.8476 14.1403 29.2851C13.3808 29.7227 12.5195 29.9527 11.6431 29.952H2.05035C1.75833 29.9527 1.47147 29.875 1.21972 29.727C1.07627 29.6473 0.945829 29.5461 0.832888 29.427C0.591608 29.1672 0.439189 28.8374 0.39768 28.4852C0.356171 28.133 0.427725 27.7768 0.601991 27.468L0.817895 27.096L1.07578 26.652L2.27525 24.591L3.01292 23.313L3.45072 22.557L3.4927 22.482C3.93232 21.7226 4.56382 21.0923 5.32382 20.6542C6.08383 20.2161 6.94564 19.9857 7.82277 19.986H23.1549C23.1909 19.989 23.227 19.989 23.2629 19.986C23.5365 19.9766 23.8036 19.9003 24.0409 19.7639C24.2782 19.6274 24.4785 19.4348 24.6243 19.203L24.6513 19.155L26.0876 16.665H2.05035C1.75883 16.6649 1.47243 16.5884 1.21972 16.443C1.07692 16.3623 0.946608 16.2612 0.832888 16.143C0.589868 15.8816 0.436917 15.5492 0.396445 15.1945C0.355974 14.8398 0.430109 14.4815 0.607988 14.172L0.832888 13.785L1.09077 13.338L3.01292 10.005L3.4957 9.171C3.93448 8.41068 4.5657 7.7794 5.32584 7.34071C6.08598 6.90201 6.94822 6.67137 7.82577 6.672H23.2659C23.5394 6.66236 23.8064 6.58598 24.0437 6.44951C24.281 6.31305 24.4813 6.12063 24.6273 5.889L24.6543 5.838V5.82L24.8972 5.4L26.0966 3.339H19.3646C19.0205 3.33683 18.6841 3.44166 18.4021 3.639C18.2214 3.76592 18.0684 3.92819 17.9523 4.116C17.9523 4.116 17.9523 4.14 17.9313 4.155C17.9252 4.16334 17.9201 4.17241 17.9163 4.182C17.9153 4.18897 17.9153 4.19604 17.9163 4.203L17.2356 5.382H13.3673L14.5668 3.321L15.0436 2.496C15.4827 1.73624 16.1141 1.10556 16.8742 0.667407C17.6343 0.229251 18.4964 -0.000934297 19.3736 2.85012e-06H28.9903C29.2828 -0.000337249 29.5702 0.0764258 29.8235 0.222561C30.0769 0.368695 30.2873 0.579041 30.4335 0.832414C30.5798 1.08579 30.6567 1.37324 30.6565 1.66582C30.6564 1.9584 30.5792 2.24577 30.4327 2.499L29.9499 3.333L28.7504 5.394L28.0158 6.666L27.533 7.5C27.098 8.25502 26.473 8.88296 25.7202 9.32138C24.9674 9.7598 24.113 9.99342 23.2419 9.999H7.82277C7.53547 9.99881 7.253 10.073 7.00287 10.2145C6.75274 10.3559 6.54346 10.5597 6.39541 10.806C6.39484 10.814 6.39484 10.822 6.39541 10.83V10.854L4.98004 13.305H29.0263C29.3183 13.3043 29.6052 13.382 29.857 13.53C30.2359 13.7564 30.5094 14.1241 30.6174 14.5522C30.7254 14.9804 30.6589 15.4339 30.4327 15.813Z" fill="url(#paint0_radial_1211_6939)"/>
  <path d="M30.4327 15.813L29.9589 16.632L28.0368 19.965L27.554 20.799C27.1201 21.5594 26.4937 22.1921 25.7378 22.6334C24.9818 23.0747 24.1231 23.3091 23.2479 23.313H7.82277C7.47881 23.3122 7.14286 23.4169 6.8602 23.613C6.67942 23.741 6.52641 23.9043 6.4104 24.093L6.38941 24.126C6.38132 24.1373 6.37429 24.1494 6.36842 24.162L6.14052 24.552L4.94106 26.613H11.6671C12.012 26.6142 12.3491 26.5095 12.6326 26.313C12.8279 26.1749 12.9906 25.9957 13.1094 25.788C13.1104 25.781 13.1104 25.774 13.1094 25.767L13.8051 24.567H17.6524L16.4529 26.628L16.0121 27.387L15.9701 27.459C15.5309 28.2178 14.8998 28.8476 14.1403 29.2851C13.3808 29.7227 12.5195 29.9527 11.6431 29.952H2.05035C1.75833 29.9527 1.47147 29.875 1.21972 29.727C1.07627 29.6473 0.945829 29.5461 0.832888 29.427C0.591608 29.1672 0.439189 28.8374 0.39768 28.4852C0.356171 28.133 0.427725 27.7768 0.601991 27.468L0.817895 27.096L1.07578 26.652L2.27525 24.591L3.01292 23.313L3.45072 22.557L3.4927 22.482C3.93232 21.7226 4.56382 21.0923 5.32382 20.6542C6.08383 20.2161 6.94564 19.9857 7.82277 19.986H23.1549C23.1909 19.989 23.227 19.989 23.2629 19.986C23.5365 19.9766 23.8036 19.9003 24.0409 19.7639C24.2782 19.6274 24.4785 19.4348 24.6243 19.203L24.6513 19.155L26.0876 16.665H2.05035C1.75883 16.6649 1.47243 16.5884 1.21972 16.443C1.07692 16.3623 0.946608 16.2612 0.832888 16.143C0.589868 15.8816 0.436917 15.5492 0.396445 15.1945C0.355974 14.8398 0.430109 14.4815 0.607988 14.172L0.832888 13.785L1.09077 13.338L3.01292 10.005L3.4957 9.171C3.93448 8.41068 4.5657 7.7794 5.32584 7.34071C6.08598 6.90201 6.94822 6.67137 7.82577 6.672H23.2659C23.5394 6.66236 23.8064 6.58598 24.0437 6.44951C24.281 6.31305 24.4813 6.12063 24.6273 5.889L24.6543 5.838V5.82L24.8972 5.4L26.0966 3.339H19.3646C19.0205 3.33683 18.6841 3.44166 18.4021 3.639C18.2214 3.76592 18.0684 3.92819 17.9523 4.116C17.9523 4.116 17.9523 4.14 17.9313 4.155C17.9252 4.16334 17.9201 4.17241 17.9163 4.182C17.9153 4.18897 17.9153 4.19604 17.9163 4.203L17.2356 5.382H13.3673L14.5668 3.321L15.0436 2.496C15.4827 1.73624 16.1141 1.10556 16.8742 0.667407C17.6343 0.229251 18.4964 -0.000934297 19.3736 2.85012e-06H28.9903C29.2828 -0.000337249 29.5702 0.0764258 29.8235 0.222561C30.0769 0.368695 30.2873 0.579041 30.4335 0.832414C30.5798 1.08579 30.6567 1.37324 30.6565 1.66582C30.6564 1.9584 30.5792 2.24577 30.4327 2.499L29.9499 3.333L28.7504 5.394L28.0158 6.666L27.533 7.5C27.098 8.25502 26.473 8.88296 25.7202 9.32138C24.9674 9.7598 24.113 9.99342 23.2419 9.999H7.82277C7.53547 9.99881 7.253 10.073 7.00287 10.2145C6.75274 10.3559 6.54346 10.5597 6.39541 10.806C6.39484 10.814 6.39484 10.822 6.39541 10.83V10.854L4.98004 13.305H29.0263C29.3183 13.3043 29.6052 13.382 29.857 13.53C30.2359 13.7564 30.5094 14.1241 30.6174 14.5522C30.7254 14.9804 30.6589 15.4339 30.4327 15.813Z" fill="url(#paint1_radial_1211_6939)"/>
  <path d="M30.4327 15.813L29.9589 16.632L28.0368 19.965L27.554 20.799C27.1201 21.5594 26.4937 22.1921 25.7378 22.6334C24.9818 23.0747 24.1231 23.3091 23.2479 23.313H7.82277C7.47881 23.3122 7.14286 23.4169 6.8602 23.613C6.67942 23.741 6.52641 23.9043 6.4104 24.093L6.38941 24.126C6.38132 24.1373 6.37429 24.1494 6.36842 24.162L6.14052 24.552L4.94106 26.613H11.6671C12.012 26.6142 12.3491 26.5095 12.6326 26.313C12.8279 26.1749 12.9906 25.9957 13.1094 25.788C13.1104 25.781 13.1104 25.774 13.1094 25.767L13.8051 24.567H17.6524L16.4529 26.628L16.0121 27.387L15.9701 27.459C15.5309 28.2178 14.8998 28.8476 14.1403 29.2851C13.3808 29.7227 12.5195 29.9527 11.6431 29.952H2.05035C1.75833 29.9527 1.47147 29.875 1.21972 29.727C1.07627 29.6473 0.945829 29.5461 0.832888 29.427C0.591608 29.1672 0.439189 28.8374 0.39768 28.4852C0.356171 28.133 0.427725 27.7768 0.601991 27.468L0.817895 27.096L1.07578 26.652L2.27525 24.591L3.01292 23.313L3.45072 22.557L3.4927 22.482C3.93232 21.7226 4.56382 21.0923 5.32382 20.6542C6.08383 20.2161 6.94564 19.9857 7.82277 19.986H23.1549C23.1909 19.989 23.227 19.989 23.2629 19.986C23.5365 19.9766 23.8036 19.9003 24.0409 19.7639C24.2782 19.6274 24.4785 19.4348 24.6243 19.203L24.6513 19.155L26.0876 16.665H2.05035C1.75883 16.6649 1.47243 16.5884 1.21972 16.443C1.07692 16.3623 0.946608 16.2612 0.832888 16.143C0.589868 15.8816 0.436917 15.5492 0.396445 15.1945C0.355974 14.8398 0.430109 14.4815 0.607988 14.172L0.832888 13.785L1.09077 13.338L3.01292 10.005L3.4957 9.171C3.93448 8.41068 4.5657 7.7794 5.32584 7.34071C6.08598 6.90201 6.94822 6.67137 7.82577 6.672H23.2659C23.5394 6.66236 23.8064 6.58598 24.0437 6.44951C24.281 6.31305 24.4813 6.12063 24.6273 5.889L24.6543 5.838V5.82L24.8972 5.4L26.0966 3.339H19.3646C19.0205 3.33683 18.6841 3.44166 18.4021 3.639C18.2214 3.76592 18.0684 3.92819 17.9523 4.116C17.9523 4.116 17.9523 4.14 17.9313 4.155C17.9252 4.16334 17.9201 4.17241 17.9163 4.182C17.9153 4.18897 17.9153 4.19604 17.9163 4.203L17.2356 5.382H13.3673L14.5668 3.321L15.0436 2.496C15.4827 1.73624 16.1141 1.10556 16.8742 0.667407C17.6343 0.229251 18.4964 -0.000934297 19.3736 2.85012e-06H28.9903C29.2828 -0.000337249 29.5702 0.0764258 29.8235 0.222561C30.0769 0.368695 30.2873 0.579041 30.4335 0.832414C30.5798 1.08579 30.6567 1.37324 30.6565 1.66582C30.6564 1.9584 30.5792 2.24577 30.4327 2.499L29.9499 3.333L28.7504 5.394L28.0158 6.666L27.533 7.5C27.098 8.25502 26.473 8.88296 25.7202 9.32138C24.9674 9.7598 24.113 9.99342 23.2419 9.999H7.82277C7.53547 9.99881 7.253 10.073 7.00287 10.2145C6.75274 10.3559 6.54346 10.5597 6.39541 10.806C6.39484 10.814 6.39484 10.822 6.39541 10.83V10.854L4.98004 13.305H29.0263C29.3183 13.3043 29.6052 13.382 29.857 13.53C30.2359 13.7564 30.5094 14.1241 30.6174 14.5522C30.7254 14.9804 30.6589 15.4339 30.4327 15.813Z" fill="url(#paint2_linear_1211_6939)"/>
  <path d="M30.4327 15.813L29.9589 16.632L28.0368 19.965L27.554 20.799C27.1201 21.5594 26.4937 22.1921 25.7378 22.6334C24.9818 23.0747 24.1231 23.3091 23.2479 23.313H7.82277C7.47881 23.3122 7.14286 23.4169 6.8602 23.613C6.67942 23.741 6.52641 23.9043 6.4104 24.093L6.38941 24.126C6.38132 24.1373 6.37429 24.1494 6.36842 24.162L6.14052 24.552L4.94106 26.613H11.6671C12.012 26.6142 12.3491 26.5095 12.6326 26.313C12.8279 26.1749 12.9906 25.9957 13.1094 25.788C13.1104 25.781 13.1104 25.774 13.1094 25.767L13.8051 24.567H17.6524L16.4529 26.628L16.0121 27.387L15.9701 27.459C15.5309 28.2178 14.8998 28.8476 14.1403 29.2851C13.3808 29.7227 12.5195 29.9527 11.6431 29.952H2.05035C1.75833 29.9527 1.47147 29.875 1.21972 29.727C1.07627 29.6473 0.945829 29.5461 0.832888 29.427C0.591608 29.1672 0.439189 28.8374 0.39768 28.4852C0.356171 28.133 0.427725 27.7768 0.601991 27.468L0.817895 27.096L1.07578 26.652L2.27525 24.591L3.01292 23.313L3.45072 22.557L3.4927 22.482C3.93232 21.7226 4.56382 21.0923 5.32382 20.6542C6.08383 20.2161 6.94564 19.9857 7.82277 19.986H23.1549C23.1909 19.989 23.227 19.989 23.2629 19.986C23.5365 19.9766 23.8036 19.9003 24.0409 19.7639C24.2782 19.6274 24.4785 19.4348 24.6243 19.203L24.6513 19.155L26.0876 16.665H2.05035C1.75883 16.6649 1.47243 16.5884 1.21972 16.443C1.07692 16.3623 0.946608 16.2612 0.832888 16.143C0.589868 15.8816 0.436917 15.5492 0.396445 15.1945C0.355974 14.8398 0.430109 14.4815 0.607988 14.172L0.832888 13.785L1.09077 13.338L3.01292 10.005L3.4957 9.171C3.93448 8.41068 4.5657 7.7794 5.32584 7.34071C6.08598 6.90201 6.94822 6.67137 7.82577 6.672H23.2659C23.5394 6.66236 23.8064 6.58598 24.0437 6.44951C24.281 6.31305 24.4813 6.12063 24.6273 5.889L24.6543 5.838V5.82L24.8972 5.4L26.0966 3.339H19.3646C19.0205 3.33683 18.6841 3.44166 18.4021 3.639C18.2214 3.76592 18.0684 3.92819 17.9523 4.116C17.9523 4.116 17.9523 4.14 17.9313 4.155C17.9252 4.16334 17.9201 4.17241 17.9163 4.182C17.9153 4.18897 17.9153 4.19604 17.9163 4.203L17.2356 5.382H13.3673L14.5668 3.321L15.0436 2.496C15.4827 1.73624 16.1141 1.10556 16.8742 0.667407C17.6343 0.229251 18.4964 -0.000934297 19.3736 2.85012e-06H28.9903C29.2828 -0.000337249 29.5702 0.0764258 29.8235 0.222561C30.0769 0.368695 30.2873 0.579041 30.4335 0.832414C30.5798 1.08579 30.6567 1.37324 30.6565 1.66582C30.6564 1.9584 30.5792 2.24577 30.4327 2.499L29.9499 3.333L28.7504 5.394L28.0158 6.666L27.533 7.5C27.098 8.25502 26.473 8.88296 25.7202 9.32138C24.9674 9.7598 24.113 9.99342 23.2419 9.999H7.82277C7.53547 9.99881 7.253 10.073 7.00287 10.2145C6.75274 10.3559 6.54346 10.5597 6.39541 10.806C6.39484 10.814 6.39484 10.822 6.39541 10.83V10.854L4.98004 13.305H29.0263C29.3183 13.3043 29.6052 13.382 29.857 13.53C30.2359 13.7564 30.5094 14.1241 30.6174 14.5522C30.7254 14.9804 30.6589 15.4339 30.4327 15.813Z" fill="url(#paint3_linear_1211_6939)"/>
  <path d="M30.4327 15.813L29.9589 16.632L28.0368 19.965L27.554 20.799C27.1201 21.5594 26.4937 22.1921 25.7378 22.6334C24.9818 23.0747 24.1231 23.3091 23.2479 23.313H7.82277C7.47881 23.3122 7.14286 23.4169 6.8602 23.613C6.67942 23.741 6.52641 23.9043 6.4104 24.093L6.38941 24.126C6.38132 24.1373 6.37429 24.1494 6.36842 24.162L6.14052 24.552L4.94106 26.613H11.6671C12.012 26.6142 12.3491 26.5095 12.6326 26.313C12.8279 26.1749 12.9906 25.9957 13.1094 25.788C13.1104 25.781 13.1104 25.774 13.1094 25.767L13.8051 24.567H17.6524L16.4529 26.628L16.0121 27.387L15.9701 27.459C15.5309 28.2178 14.8998 28.8476 14.1403 29.2851C13.3808 29.7227 12.5195 29.9527 11.6431 29.952H2.05035C1.75833 29.9527 1.47147 29.875 1.21972 29.727C1.07627 29.6473 0.945829 29.5461 0.832888 29.427C0.591608 29.1672 0.439189 28.8374 0.39768 28.4852C0.356171 28.133 0.427725 27.7768 0.601991 27.468L0.817895 27.096L1.07578 26.652L2.27525 24.591L3.01292 23.313L3.45072 22.557L3.4927 22.482C3.93232 21.7226 4.56382 21.0923 5.32382 20.6542C6.08383 20.2161 6.94564 19.9857 7.82277 19.986H23.1549C23.1909 19.989 23.227 19.989 23.2629 19.986C23.5365 19.9766 23.8036 19.9003 24.0409 19.7639C24.2782 19.6274 24.4785 19.4348 24.6243 19.203L24.6513 19.155L26.0876 16.665H2.05035C1.75883 16.6649 1.47243 16.5884 1.21972 16.443C1.07692 16.3623 0.946608 16.2612 0.832888 16.143C0.589868 15.8816 0.436917 15.5492 0.396445 15.1945C0.355974 14.8398 0.430109 14.4815 0.607988 14.172L0.832888 13.785L1.09077 13.338L3.01292 10.005L3.4957 9.171C3.93448 8.41068 4.5657 7.7794 5.32584 7.34071C6.08598 6.90201 6.94822 6.67137 7.82577 6.672H23.2659C23.5394 6.66236 23.8064 6.58598 24.0437 6.44951C24.281 6.31305 24.4813 6.12063 24.6273 5.889L24.6543 5.838V5.82L24.8972 5.4L26.0966 3.339H19.3646C19.0205 3.33683 18.6841 3.44166 18.4021 3.639C18.2214 3.76592 18.0684 3.92819 17.9523 4.116C17.9523 4.116 17.9523 4.14 17.9313 4.155C17.9252 4.16334 17.9201 4.17241 17.9163 4.182C17.9153 4.18897 17.9153 4.19604 17.9163 4.203L17.2356 5.382H13.3673L14.5668 3.321L15.0436 2.496C15.4827 1.73624 16.1141 1.10556 16.8742 0.667407C17.6343 0.229251 18.4964 -0.000934297 19.3736 2.85012e-06H28.9903C29.2828 -0.000337249 29.5702 0.0764258 29.8235 0.222561C30.0769 0.368695 30.2873 0.579041 30.4335 0.832414C30.5798 1.08579 30.6567 1.37324 30.6565 1.66582C30.6564 1.9584 30.5792 2.24577 30.4327 2.499L29.9499 3.333L28.7504 5.394L28.0158 6.666L27.533 7.5C27.098 8.25502 26.473 8.88296 25.7202 9.32138C24.9674 9.7598 24.113 9.99342 23.2419 9.999H7.82277C7.53547 9.99881 7.253 10.073 7.00287 10.2145C6.75274 10.3559 6.54346 10.5597 6.39541 10.806C6.39484 10.814 6.39484 10.822 6.39541 10.83V10.854L4.98004 13.305H29.0263C29.3183 13.3043 29.6052 13.382 29.857 13.53C30.2359 13.7564 30.5094 14.1241 30.6174 14.5522C30.7254 14.9804 30.6589 15.4339 30.4327 15.813Z" fill="url(#paint4_linear_1211_6939)"/>
  <path d="M47.972 22.482H46.6286C45.3594 22.4992 44.0922 22.3754 42.8503 22.113C41.9795 21.9387 41.1396 21.6354 40.3584 21.213C39.8072 20.8933 39.3323 20.4572 38.967 19.935C38.6658 19.528 38.4412 19.0695 38.3043 18.582C38.2036 18.1605 38.1543 17.7283 38.1574 17.295V17.082H42.1756C42.3601 17.0837 42.5397 17.1422 42.6899 17.2496C42.8401 17.3569 42.9537 17.5079 43.0152 17.682C43.431 18.81 44.8234 19.373 47.1923 19.371H47.4652C48.2209 19.38 48.9762 19.3379 49.7262 19.245C50.1788 19.2025 50.6203 19.0806 51.0306 18.885C51.2504 18.7767 51.4377 18.6121 51.5734 18.408C51.6694 18.2315 51.717 18.0328 51.7113 17.832C51.7263 17.5656 51.6431 17.303 51.4774 17.094C51.3215 16.911 50.9587 16.752 50.3859 16.614C49.5721 16.4532 48.7446 16.3718 47.915 16.371L45.4201 16.314C40.7102 16.186 38.3543 14.77 38.3523 12.066V11.913C38.3486 11.4747 38.4082 11.0382 38.5292 10.617C38.6704 10.1695 38.9102 9.7594 39.2309 9.41698C39.6159 8.99364 40.0819 8.6519 40.6013 8.41198C41.3277 8.09403 42.0914 7.86925 42.8743 7.74298C43.9809 7.55729 45.1018 7.46995 46.2238 7.48198H47.5672C48.7414 7.46937 49.9145 7.56073 51.0726 7.75498C51.9078 7.88308 52.7231 8.11801 53.4985 8.45398C54.0551 8.70954 54.5579 9.06896 54.9799 9.51298C55.3236 9.8651 55.5919 10.2836 55.7685 10.743C55.9146 11.1666 55.9876 11.6119 55.9844 12.06V12.255H51.8703C51.7035 12.2539 51.5401 12.2072 51.398 12.12C51.2558 12.0327 51.1402 11.9082 51.0636 11.76C51.0017 11.637 50.9262 11.5213 50.8387 11.415C50.6513 11.2215 50.4256 11.0693 50.176 10.968C49.7833 10.824 49.3761 10.7234 48.9616 10.668C48.3395 10.5719 47.7107 10.5267 47.0814 10.533H46.7815C45.939 10.5098 45.0964 10.5782 44.2686 10.737C43.6869 10.872 43.3331 11.016 43.2071 11.166C43.0785 11.3388 43.0139 11.5508 43.0242 11.766C43.0149 11.9844 43.0877 12.1984 43.2281 12.366C43.5057 12.5964 43.8385 12.7505 44.1937 12.813C44.9071 12.9651 45.6353 13.0376 46.3647 13.029L48.7966 13.068C51.4974 13.12 53.4486 13.487 54.65 14.169C55.8515 14.851 56.4512 15.919 56.4492 17.373V17.646C56.4558 18.1286 56.3973 18.61 56.2753 19.077C56.1286 19.5546 55.8834 19.9961 55.5556 20.373C55.1559 20.8416 54.6612 21.22 54.1043 21.483C53.3167 21.8383 52.4844 22.0845 51.6304 22.215C50.4209 22.4098 49.1969 22.4991 47.972 22.482V22.482Z" fill="white"/>
  <path d="M62.9983 22.227V11.163H57.6816C57.4431 11.163 57.2142 11.0682 57.0455 10.8994C56.8768 10.7306 56.782 10.5017 56.782 10.263V7.73398H73.8384V10.248C73.8384 10.4867 73.7437 10.7156 73.5749 10.8844C73.4062 11.0532 73.1774 11.148 72.9388 11.148H67.5742V22.212L62.9983 22.227Z" fill="white"/>
  <path d="M87.0956 21.732L85.9891 19.578H77.206L76.1594 21.717C76.0832 21.8699 75.966 21.9985 75.8209 22.0886C75.6758 22.1787 75.5086 22.2266 75.3378 22.227H71.2866L78.3545 8.23498C78.4302 8.08626 78.5451 7.96103 78.6867 7.87276C78.8283 7.78448 78.9913 7.7365 79.1581 7.73398H83.956C84.1215 7.73423 84.2838 7.77925 84.4258 7.86428C84.5678 7.94931 84.6842 8.07118 84.7626 8.21698L92.2593 22.227H87.9082C87.74 22.2287 87.5748 22.1832 87.4311 22.0958C87.2875 22.0083 87.1712 21.8822 87.0956 21.732ZM84.3128 16.305L81.5091 10.869L78.8103 16.305H84.3128Z" fill="white"/>
  <path d="M123.958 17.397H117.631V21.297C117.631 21.4164 117.607 21.5347 117.561 21.6449C117.515 21.7551 117.447 21.855 117.362 21.9387C117.277 22.0225 117.176 22.0885 117.065 22.1328C116.954 22.1772 116.836 22.199 116.716 22.197H113.094V7.73398H123.958C128.462 7.73398 130.714 9.30598 130.714 12.45V12.645C130.714 15.813 128.462 17.397 123.958 17.397ZM117.631 11.028V14.142H123.88C125.28 14.142 125.979 13.636 125.979 12.624V12.564C125.979 11.542 125.28 11.03 123.88 11.028H117.631Z" fill="white"/>
  <path d="M141.8 7.48198H142.637C143.786 7.47339 144.933 7.56069 146.067 7.74298C146.949 7.88139 147.814 8.11371 148.646 8.43598C149.299 8.69807 149.912 9.0516 150.466 9.48598C150.927 9.84425 151.337 10.2642 151.684 10.734C151.978 11.1566 152.217 11.6153 152.394 12.099C152.557 12.5235 152.674 12.9639 152.745 13.413C152.798 13.8199 152.824 14.2297 152.823 14.64V15.225C152.823 15.6262 152.797 16.0271 152.745 16.425C152.674 16.8798 152.557 17.3261 152.394 17.757C152.218 18.2458 151.982 18.7112 151.693 19.143C151.352 19.623 150.942 20.0496 150.475 20.409C149.92 20.8477 149.308 21.2081 148.655 21.48C147.824 21.8113 146.959 22.0498 146.076 22.191C144.94 22.3818 143.789 22.4732 142.637 22.464H141.8C140.646 22.473 139.493 22.3817 138.355 22.191C137.468 22.0504 136.599 21.812 135.764 21.48C135.111 21.2072 134.499 20.8469 133.944 20.409C133.477 20.0471 133.064 19.6209 132.717 19.143C132.423 18.7139 132.187 18.2479 132.016 17.757C131.858 17.3255 131.745 16.8792 131.677 16.425C131.623 16.0272 131.597 15.6263 131.599 15.225V14.649C131.596 14.2417 131.622 13.8347 131.677 13.431C131.746 12.9799 131.859 12.5367 132.016 12.108C132.186 11.6203 132.422 11.158 132.717 10.734C133.063 10.2635 133.473 9.84351 133.935 9.48598C134.488 9.05099 135.101 8.69741 135.755 8.43598C136.594 8.11164 137.466 7.87928 138.355 7.74298C139.494 7.56107 140.646 7.47377 141.8 7.48198V7.48198ZM148.07 15.06V14.787C148.072 14.4375 148.027 14.0894 147.935 13.752C147.822 13.386 147.643 13.0435 147.408 12.741C147.135 12.3758 146.791 12.0696 146.397 11.841C145.866 11.557 145.295 11.3547 144.703 11.241C143.884 11.0683 143.048 10.9868 142.211 10.998C138.305 10.998 136.351 12.264 136.349 14.796V15.03C136.346 15.4823 136.428 15.9312 136.591 16.353C136.785 16.8179 137.066 17.2415 137.419 17.601C137.923 18.0814 138.543 18.4234 139.218 18.594C141.166 19.08 143.202 19.08 145.15 18.594C145.828 18.4265 146.453 18.0924 146.97 17.622C147.337 17.2714 147.629 16.8499 147.827 16.383C147.991 15.9612 148.073 15.5123 148.07 15.06V15.06Z" fill="white"/>
  <path d="M158.995 17.085V21.312C158.995 21.5507 158.9 21.7796 158.731 21.9484C158.562 22.1172 158.333 22.212 158.095 22.212H154.458V7.73398H166.152C170.35 7.73398 172.45 8.98698 172.45 11.493V11.727C172.45 13.259 171.55 14.318 169.751 14.904C170.511 15.1031 171.199 15.5116 171.739 16.083C172.26 16.675 172.532 17.4459 172.498 18.234V22.227H168.845C168.726 22.229 168.607 22.2072 168.496 22.1628C168.385 22.1185 168.284 22.0525 168.199 21.9687C168.114 21.885 168.047 21.7851 168 21.6749C167.954 21.5647 167.931 21.4464 167.931 21.327V19.653C167.931 18.753 167.706 18.108 167.25 17.703C166.794 17.298 166.017 17.103 164.914 17.103L158.995 17.085ZM158.995 11.028V13.872H165.867C166.36 13.911 166.85 13.7727 167.25 13.482C167.397 13.3547 167.514 13.1959 167.592 13.0173C167.67 12.8386 167.707 12.6447 167.7 12.45V12.429C167.705 12.2371 167.668 12.0464 167.59 11.8709C167.512 11.6954 167.396 11.5396 167.25 11.415C166.85 11.1253 166.36 10.9881 165.867 11.028H158.995Z" fill="white"/>
  <path d="M97.6389 17.085V21.312C97.6389 21.4314 97.6151 21.5497 97.569 21.6599C97.5228 21.7701 97.4552 21.87 97.3701 21.9537C97.285 22.0375 97.184 22.1035 97.0731 22.1478C96.9623 22.1922 96.8437 22.214 96.7243 22.212H93.1019V7.73398H104.797C108.995 7.73398 111.094 8.98698 111.094 11.493V11.727C111.094 13.259 110.194 14.318 108.395 14.904C109.154 15.1037 109.842 15.5121 110.38 16.083C110.901 16.675 111.173 17.4459 111.139 18.234V22.227H107.492C107.373 22.229 107.254 22.2072 107.144 22.1628C107.033 22.1185 106.932 22.0525 106.847 21.9687C106.762 21.885 106.694 21.7851 106.648 21.6749C106.602 21.5647 106.578 21.4464 106.578 21.327V21.327V19.653C106.578 18.753 106.35 18.108 105.894 17.703C105.438 17.298 104.662 17.103 103.558 17.103L97.6389 17.085ZM97.6389 11.028V13.872H104.512C105.004 13.911 105.495 13.7727 105.894 13.482C106.042 13.3547 106.159 13.1959 106.237 13.0173C106.315 12.8386 106.351 12.6447 106.344 12.45V12.429C106.35 12.2371 106.312 12.0464 106.234 11.8709C106.156 11.6954 106.04 11.5396 105.894 11.415C105.494 11.1253 105.004 10.9881 104.512 11.028H97.6389Z" fill="white"/>
  <path d="M179.571 22.227V11.163H174.255C174.018 11.1584 173.791 11.0621 173.624 10.8943C173.456 10.7265 173.36 10.5002 173.355 10.263V7.73398H190.409V10.248C190.404 10.4878 190.305 10.7162 190.135 10.8844C189.964 11.0527 189.734 11.1472 189.494 11.148H184.156V22.212L179.571 22.227Z" fill="white"/>
  <defs>
  <radialGradient id="paint0_radial_1211_6939" cx="0" cy="0" r="1" gradientUnits="userSpaceOnUse" gradientTransform="translate(15.5268 14.976) rotate(78.7999) scale(9.56923 57.3169)">
  <stop stop-color="#4050F9"/>
  <stop offset="1" stop-color="#01D7E5"/>
  </radialGradient>
  <radialGradient id="paint1_radial_1211_6939" cx="0" cy="0" r="1" gradientUnits="userSpaceOnUse" gradientTransform="translate(16.336 4.86299) rotate(-38.9885) scale(42.4373 119.835)">
  <stop stop-color="#4151FA" stop-opacity="0"/>
  <stop offset="0.93319" stop-color="#4151FA"/>
  </radialGradient>
  <linearGradient id="paint2_linear_1211_6939" x1="17.2356" y1="9.66299" x2="17.2356" y2="3.96299" gradientUnits="userSpaceOnUse">
  <stop stop-color="#4151FA"/>
  <stop offset="0.80232" stop-color="#4151FA" stop-opacity="0"/>
  </linearGradient>
  <linearGradient id="paint3_linear_1211_6939" x1="16.6358" y1="24.663" x2="18.4366" y2="15.6633" gradientUnits="userSpaceOnUse">
  <stop stop-color="#00D9E5"/>
  <stop offset="1" stop-color="#00D9E5" stop-opacity="0"/>
  </linearGradient>
  <linearGradient id="paint4_linear_1211_6939" x1="-4.95453" y1="-5.78701" x2="7.9496" y2="26.159" gradientUnits="userSpaceOnUse">
  <stop offset="0.527646" stop-color="#4151FA" stop-opacity="0"/>
  <stop offset="0.800615" stop-color="#4151FA"/>
  <stop offset="1" stop-color="#4151FA" stop-opacity="0"/>
  </linearGradient>
  </defs>
  </svg>
  