<svg width="191" height="31" viewBox="0 0 191 31" fill="none" xmlns="http://www.w3.org/2000/svg">
  <path d="M30.4327 15.9L29.9589 16.719L28.0368 20.052L27.554 20.886C27.1201 21.6464 26.4937 22.2791 25.7378 22.7204C24.9818 23.1617 24.1231 23.3961 23.2479 23.4H7.82277C7.47881 23.3992 7.14286 23.5039 6.8602 23.7C6.67942 23.828 6.52641 23.9913 6.4104 24.18L6.38941 24.213C6.38132 24.2243 6.37429 24.2364 6.36842 24.249L6.14052 24.639L4.94106 26.7H11.6671C12.012 26.7012 12.3491 26.5965 12.6326 26.4C12.8279 26.2619 12.9906 26.0827 13.1094 25.875C13.1104 25.868 13.1104 25.861 13.1094 25.854L13.8051 24.654H17.6524L16.4529 26.715L16.0121 27.474L15.9701 27.546C15.5309 28.3048 14.8998 28.9346 14.1403 29.3721C13.3808 29.8097 12.5195 30.0397 11.6431 30.039H2.05035C1.75833 30.0397 1.47147 29.962 1.21972 29.814C1.07627 29.7343 0.945829 29.6331 0.832888 29.514C0.591608 29.2542 0.439189 28.9244 0.39768 28.5722C0.356171 28.22 0.427725 27.8638 0.601991 27.555L0.817895 27.183L1.07578 26.739L2.27525 24.678L3.01292 23.4L3.45072 22.644L3.4927 22.569C3.93232 21.8096 4.56382 21.1793 5.32382 20.7412C6.08383 20.3031 6.94564 20.0727 7.82277 20.073H23.1549C23.1909 20.076 23.227 20.076 23.2629 20.073C23.5365 20.0636 23.8036 19.9873 24.0409 19.8509C24.2782 19.7144 24.4785 19.5218 24.6243 19.29L24.6513 19.242L26.0876 16.752H2.05035C1.75883 16.7519 1.47243 16.6754 1.21972 16.53C1.07692 16.4493 0.946608 16.3482 0.832888 16.23C0.589868 15.9686 0.436917 15.6362 0.396445 15.2815C0.355974 14.9268 0.430109 14.5685 0.607988 14.259L0.832888 13.872L1.09077 13.425L3.01292 10.092L3.4957 9.258C3.93448 8.49768 4.5657 7.8664 5.32584 7.4277C6.08598 6.98901 6.94822 6.75837 7.82577 6.759H23.2659C23.5394 6.74936 23.8064 6.67298 24.0437 6.53651C24.281 6.40004 24.4813 6.20762 24.6273 5.976L24.6543 5.925V5.907L24.8972 5.487L26.0966 3.426H19.3646C19.0205 3.42383 18.6841 3.52866 18.4021 3.726C18.2214 3.85292 18.0684 4.01519 17.9523 4.203C17.9523 4.203 17.9523 4.227 17.9313 4.242C17.9252 4.25033 17.9201 4.25941 17.9163 4.269C17.9153 4.27597 17.9153 4.28304 17.9163 4.29L17.2356 5.469H13.3673L14.5668 3.408L15.0436 2.583C15.4827 1.82324 16.1141 1.19256 16.8742 0.754405C17.6343 0.316249 18.4964 0.0860637 19.3736 0.0870008H28.9903C29.2828 0.0866607 29.5702 0.163424 29.8235 0.309559C30.0769 0.455693 30.2873 0.666039 30.4335 0.919412C30.5798 1.17278 30.6567 1.46024 30.6565 1.75282C30.6564 2.04539 30.5792 2.33277 30.4327 2.586L29.9499 3.42L28.7504 5.481L28.0158 6.753L27.533 7.587C27.098 8.34202 26.473 8.96996 25.7202 9.40838C24.9674 9.8468 24.113 10.0804 23.2419 10.086H7.82277C7.53547 10.0858 7.253 10.16 7.00287 10.3015C6.75274 10.4429 6.54346 10.6467 6.39541 10.893C6.39484 10.901 6.39484 10.909 6.39541 10.917V10.941L4.98004 13.392H29.0263C29.3183 13.3913 29.6052 13.469 29.857 13.617C30.2359 13.8434 30.5094 14.2111 30.6174 14.6392C30.7254 15.0674 30.6589 15.5209 30.4327 15.9Z" fill="url(#paint0_radial_1205_4630)"/>
  <path d="M30.4327 15.9L29.9589 16.719L28.0368 20.052L27.554 20.886C27.1201 21.6464 26.4937 22.2791 25.7378 22.7204C24.9818 23.1617 24.1231 23.3961 23.2479 23.4H7.82277C7.47881 23.3992 7.14286 23.5039 6.8602 23.7C6.67942 23.828 6.52641 23.9913 6.4104 24.18L6.38941 24.213C6.38132 24.2243 6.37429 24.2364 6.36842 24.249L6.14052 24.639L4.94106 26.7H11.6671C12.012 26.7012 12.3491 26.5965 12.6326 26.4C12.8279 26.2619 12.9906 26.0827 13.1094 25.875C13.1104 25.868 13.1104 25.861 13.1094 25.854L13.8051 24.654H17.6524L16.4529 26.715L16.0121 27.474L15.9701 27.546C15.5309 28.3048 14.8998 28.9346 14.1403 29.3721C13.3808 29.8097 12.5195 30.0397 11.6431 30.039H2.05035C1.75833 30.0397 1.47147 29.962 1.21972 29.814C1.07627 29.7343 0.945829 29.6331 0.832888 29.514C0.591608 29.2542 0.439189 28.9244 0.39768 28.5722C0.356171 28.22 0.427725 27.8638 0.601991 27.555L0.817895 27.183L1.07578 26.739L2.27525 24.678L3.01292 23.4L3.45072 22.644L3.4927 22.569C3.93232 21.8096 4.56382 21.1793 5.32382 20.7412C6.08383 20.3031 6.94564 20.0727 7.82277 20.073H23.1549C23.1909 20.076 23.227 20.076 23.2629 20.073C23.5365 20.0636 23.8036 19.9873 24.0409 19.8509C24.2782 19.7144 24.4785 19.5218 24.6243 19.29L24.6513 19.242L26.0876 16.752H2.05035C1.75883 16.7519 1.47243 16.6754 1.21972 16.53C1.07692 16.4493 0.946608 16.3482 0.832888 16.23C0.589868 15.9686 0.436917 15.6362 0.396445 15.2815C0.355974 14.9268 0.430109 14.5685 0.607988 14.259L0.832888 13.872L1.09077 13.425L3.01292 10.092L3.4957 9.258C3.93448 8.49768 4.5657 7.8664 5.32584 7.4277C6.08598 6.98901 6.94822 6.75837 7.82577 6.759H23.2659C23.5394 6.74936 23.8064 6.67298 24.0437 6.53651C24.281 6.40004 24.4813 6.20762 24.6273 5.976L24.6543 5.925V5.907L24.8972 5.487L26.0966 3.426H19.3646C19.0205 3.42383 18.6841 3.52866 18.4021 3.726C18.2214 3.85292 18.0684 4.01519 17.9523 4.203C17.9523 4.203 17.9523 4.227 17.9313 4.242C17.9252 4.25033 17.9201 4.25941 17.9163 4.269C17.9153 4.27597 17.9153 4.28304 17.9163 4.29L17.2356 5.469H13.3673L14.5668 3.408L15.0436 2.583C15.4827 1.82324 16.1141 1.19256 16.8742 0.754405C17.6343 0.316249 18.4964 0.0860637 19.3736 0.0870008H28.9903C29.2828 0.0866607 29.5702 0.163424 29.8235 0.309559C30.0769 0.455693 30.2873 0.666039 30.4335 0.919412C30.5798 1.17278 30.6567 1.46024 30.6565 1.75282C30.6564 2.04539 30.5792 2.33277 30.4327 2.586L29.9499 3.42L28.7504 5.481L28.0158 6.753L27.533 7.587C27.098 8.34202 26.473 8.96996 25.7202 9.40838C24.9674 9.8468 24.113 10.0804 23.2419 10.086H7.82277C7.53547 10.0858 7.253 10.16 7.00287 10.3015C6.75274 10.4429 6.54346 10.6467 6.39541 10.893C6.39484 10.901 6.39484 10.909 6.39541 10.917V10.941L4.98004 13.392H29.0263C29.3183 13.3913 29.6052 13.469 29.857 13.617C30.2359 13.8434 30.5094 14.2111 30.6174 14.6392C30.7254 15.0674 30.6589 15.5209 30.4327 15.9Z" fill="url(#paint1_radial_1205_4630)"/>
  <path d="M30.4327 15.9L29.9589 16.719L28.0368 20.052L27.554 20.886C27.1201 21.6464 26.4937 22.2791 25.7378 22.7204C24.9818 23.1617 24.1231 23.3961 23.2479 23.4H7.82277C7.47881 23.3992 7.14286 23.5039 6.8602 23.7C6.67942 23.828 6.52641 23.9913 6.4104 24.18L6.38941 24.213C6.38132 24.2243 6.37429 24.2364 6.36842 24.249L6.14052 24.639L4.94106 26.7H11.6671C12.012 26.7012 12.3491 26.5965 12.6326 26.4C12.8279 26.2619 12.9906 26.0827 13.1094 25.875C13.1104 25.868 13.1104 25.861 13.1094 25.854L13.8051 24.654H17.6524L16.4529 26.715L16.0121 27.474L15.9701 27.546C15.5309 28.3048 14.8998 28.9346 14.1403 29.3721C13.3808 29.8097 12.5195 30.0397 11.6431 30.039H2.05035C1.75833 30.0397 1.47147 29.962 1.21972 29.814C1.07627 29.7343 0.945829 29.6331 0.832888 29.514C0.591608 29.2542 0.439189 28.9244 0.39768 28.5722C0.356171 28.22 0.427725 27.8638 0.601991 27.555L0.817895 27.183L1.07578 26.739L2.27525 24.678L3.01292 23.4L3.45072 22.644L3.4927 22.569C3.93232 21.8096 4.56382 21.1793 5.32382 20.7412C6.08383 20.3031 6.94564 20.0727 7.82277 20.073H23.1549C23.1909 20.076 23.227 20.076 23.2629 20.073C23.5365 20.0636 23.8036 19.9873 24.0409 19.8509C24.2782 19.7144 24.4785 19.5218 24.6243 19.29L24.6513 19.242L26.0876 16.752H2.05035C1.75883 16.7519 1.47243 16.6754 1.21972 16.53C1.07692 16.4493 0.946608 16.3482 0.832888 16.23C0.589868 15.9686 0.436917 15.6362 0.396445 15.2815C0.355974 14.9268 0.430109 14.5685 0.607988 14.259L0.832888 13.872L1.09077 13.425L3.01292 10.092L3.4957 9.258C3.93448 8.49768 4.5657 7.8664 5.32584 7.4277C6.08598 6.98901 6.94822 6.75837 7.82577 6.759H23.2659C23.5394 6.74936 23.8064 6.67298 24.0437 6.53651C24.281 6.40004 24.4813 6.20762 24.6273 5.976L24.6543 5.925V5.907L24.8972 5.487L26.0966 3.426H19.3646C19.0205 3.42383 18.6841 3.52866 18.4021 3.726C18.2214 3.85292 18.0684 4.01519 17.9523 4.203C17.9523 4.203 17.9523 4.227 17.9313 4.242C17.9252 4.25033 17.9201 4.25941 17.9163 4.269C17.9153 4.27597 17.9153 4.28304 17.9163 4.29L17.2356 5.469H13.3673L14.5668 3.408L15.0436 2.583C15.4827 1.82324 16.1141 1.19256 16.8742 0.754405C17.6343 0.316249 18.4964 0.0860637 19.3736 0.0870008H28.9903C29.2828 0.0866607 29.5702 0.163424 29.8235 0.309559C30.0769 0.455693 30.2873 0.666039 30.4335 0.919412C30.5798 1.17278 30.6567 1.46024 30.6565 1.75282C30.6564 2.04539 30.5792 2.33277 30.4327 2.586L29.9499 3.42L28.7504 5.481L28.0158 6.753L27.533 7.587C27.098 8.34202 26.473 8.96996 25.7202 9.40838C24.9674 9.8468 24.113 10.0804 23.2419 10.086H7.82277C7.53547 10.0858 7.253 10.16 7.00287 10.3015C6.75274 10.4429 6.54346 10.6467 6.39541 10.893C6.39484 10.901 6.39484 10.909 6.39541 10.917V10.941L4.98004 13.392H29.0263C29.3183 13.3913 29.6052 13.469 29.857 13.617C30.2359 13.8434 30.5094 14.2111 30.6174 14.6392C30.7254 15.0674 30.6589 15.5209 30.4327 15.9Z" fill="url(#paint2_linear_1205_4630)"/>
  <path d="M30.4327 15.9L29.9589 16.719L28.0368 20.052L27.554 20.886C27.1201 21.6464 26.4937 22.2791 25.7378 22.7204C24.9818 23.1617 24.1231 23.3961 23.2479 23.4H7.82277C7.47881 23.3992 7.14286 23.5039 6.8602 23.7C6.67942 23.828 6.52641 23.9913 6.4104 24.18L6.38941 24.213C6.38132 24.2243 6.37429 24.2364 6.36842 24.249L6.14052 24.639L4.94106 26.7H11.6671C12.012 26.7012 12.3491 26.5965 12.6326 26.4C12.8279 26.2619 12.9906 26.0827 13.1094 25.875C13.1104 25.868 13.1104 25.861 13.1094 25.854L13.8051 24.654H17.6524L16.4529 26.715L16.0121 27.474L15.9701 27.546C15.5309 28.3048 14.8998 28.9346 14.1403 29.3721C13.3808 29.8097 12.5195 30.0397 11.6431 30.039H2.05035C1.75833 30.0397 1.47147 29.962 1.21972 29.814C1.07627 29.7343 0.945829 29.6331 0.832888 29.514C0.591608 29.2542 0.439189 28.9244 0.39768 28.5722C0.356171 28.22 0.427725 27.8638 0.601991 27.555L0.817895 27.183L1.07578 26.739L2.27525 24.678L3.01292 23.4L3.45072 22.644L3.4927 22.569C3.93232 21.8096 4.56382 21.1793 5.32382 20.7412C6.08383 20.3031 6.94564 20.0727 7.82277 20.073H23.1549C23.1909 20.076 23.227 20.076 23.2629 20.073C23.5365 20.0636 23.8036 19.9873 24.0409 19.8509C24.2782 19.7144 24.4785 19.5218 24.6243 19.29L24.6513 19.242L26.0876 16.752H2.05035C1.75883 16.7519 1.47243 16.6754 1.21972 16.53C1.07692 16.4493 0.946608 16.3482 0.832888 16.23C0.589868 15.9686 0.436917 15.6362 0.396445 15.2815C0.355974 14.9268 0.430109 14.5685 0.607988 14.259L0.832888 13.872L1.09077 13.425L3.01292 10.092L3.4957 9.258C3.93448 8.49768 4.5657 7.8664 5.32584 7.4277C6.08598 6.98901 6.94822 6.75837 7.82577 6.759H23.2659C23.5394 6.74936 23.8064 6.67298 24.0437 6.53651C24.281 6.40004 24.4813 6.20762 24.6273 5.976L24.6543 5.925V5.907L24.8972 5.487L26.0966 3.426H19.3646C19.0205 3.42383 18.6841 3.52866 18.4021 3.726C18.2214 3.85292 18.0684 4.01519 17.9523 4.203C17.9523 4.203 17.9523 4.227 17.9313 4.242C17.9252 4.25033 17.9201 4.25941 17.9163 4.269C17.9153 4.27597 17.9153 4.28304 17.9163 4.29L17.2356 5.469H13.3673L14.5668 3.408L15.0436 2.583C15.4827 1.82324 16.1141 1.19256 16.8742 0.754405C17.6343 0.316249 18.4964 0.0860637 19.3736 0.0870008H28.9903C29.2828 0.0866607 29.5702 0.163424 29.8235 0.309559C30.0769 0.455693 30.2873 0.666039 30.4335 0.919412C30.5798 1.17278 30.6567 1.46024 30.6565 1.75282C30.6564 2.04539 30.5792 2.33277 30.4327 2.586L29.9499 3.42L28.7504 5.481L28.0158 6.753L27.533 7.587C27.098 8.34202 26.473 8.96996 25.7202 9.40838C24.9674 9.8468 24.113 10.0804 23.2419 10.086H7.82277C7.53547 10.0858 7.253 10.16 7.00287 10.3015C6.75274 10.4429 6.54346 10.6467 6.39541 10.893C6.39484 10.901 6.39484 10.909 6.39541 10.917V10.941L4.98004 13.392H29.0263C29.3183 13.3913 29.6052 13.469 29.857 13.617C30.2359 13.8434 30.5094 14.2111 30.6174 14.6392C30.7254 15.0674 30.6589 15.5209 30.4327 15.9Z" fill="url(#paint3_linear_1205_4630)"/>
  <path d="M30.4327 15.9L29.9589 16.719L28.0368 20.052L27.554 20.886C27.1201 21.6464 26.4937 22.2791 25.7378 22.7204C24.9818 23.1617 24.1231 23.3961 23.2479 23.4H7.82277C7.47881 23.3992 7.14286 23.5039 6.8602 23.7C6.67942 23.828 6.52641 23.9913 6.4104 24.18L6.38941 24.213C6.38132 24.2243 6.37429 24.2364 6.36842 24.249L6.14052 24.639L4.94106 26.7H11.6671C12.012 26.7012 12.3491 26.5965 12.6326 26.4C12.8279 26.2619 12.9906 26.0827 13.1094 25.875C13.1104 25.868 13.1104 25.861 13.1094 25.854L13.8051 24.654H17.6524L16.4529 26.715L16.0121 27.474L15.9701 27.546C15.5309 28.3048 14.8998 28.9346 14.1403 29.3721C13.3808 29.8097 12.5195 30.0397 11.6431 30.039H2.05035C1.75833 30.0397 1.47147 29.962 1.21972 29.814C1.07627 29.7343 0.945829 29.6331 0.832888 29.514C0.591608 29.2542 0.439189 28.9244 0.39768 28.5722C0.356171 28.22 0.427725 27.8638 0.601991 27.555L0.817895 27.183L1.07578 26.739L2.27525 24.678L3.01292 23.4L3.45072 22.644L3.4927 22.569C3.93232 21.8096 4.56382 21.1793 5.32382 20.7412C6.08383 20.3031 6.94564 20.0727 7.82277 20.073H23.1549C23.1909 20.076 23.227 20.076 23.2629 20.073C23.5365 20.0636 23.8036 19.9873 24.0409 19.8509C24.2782 19.7144 24.4785 19.5218 24.6243 19.29L24.6513 19.242L26.0876 16.752H2.05035C1.75883 16.7519 1.47243 16.6754 1.21972 16.53C1.07692 16.4493 0.946608 16.3482 0.832888 16.23C0.589868 15.9686 0.436917 15.6362 0.396445 15.2815C0.355974 14.9268 0.430109 14.5685 0.607988 14.259L0.832888 13.872L1.09077 13.425L3.01292 10.092L3.4957 9.258C3.93448 8.49768 4.5657 7.8664 5.32584 7.4277C6.08598 6.98901 6.94822 6.75837 7.82577 6.759H23.2659C23.5394 6.74936 23.8064 6.67298 24.0437 6.53651C24.281 6.40004 24.4813 6.20762 24.6273 5.976L24.6543 5.925V5.907L24.8972 5.487L26.0966 3.426H19.3646C19.0205 3.42383 18.6841 3.52866 18.4021 3.726C18.2214 3.85292 18.0684 4.01519 17.9523 4.203C17.9523 4.203 17.9523 4.227 17.9313 4.242C17.9252 4.25033 17.9201 4.25941 17.9163 4.269C17.9153 4.27597 17.9153 4.28304 17.9163 4.29L17.2356 5.469H13.3673L14.5668 3.408L15.0436 2.583C15.4827 1.82324 16.1141 1.19256 16.8742 0.754405C17.6343 0.316249 18.4964 0.0860637 19.3736 0.0870008H28.9903C29.2828 0.0866607 29.5702 0.163424 29.8235 0.309559C30.0769 0.455693 30.2873 0.666039 30.4335 0.919412C30.5798 1.17278 30.6567 1.46024 30.6565 1.75282C30.6564 2.04539 30.5792 2.33277 30.4327 2.586L29.9499 3.42L28.7504 5.481L28.0158 6.753L27.533 7.587C27.098 8.34202 26.473 8.96996 25.7202 9.40838C24.9674 9.8468 24.113 10.0804 23.2419 10.086H7.82277C7.53547 10.0858 7.253 10.16 7.00287 10.3015C6.75274 10.4429 6.54346 10.6467 6.39541 10.893C6.39484 10.901 6.39484 10.909 6.39541 10.917V10.941L4.98004 13.392H29.0263C29.3183 13.3913 29.6052 13.469 29.857 13.617C30.2359 13.8434 30.5094 14.2111 30.6174 14.6392C30.7254 15.0674 30.6589 15.5209 30.4327 15.9Z" fill="url(#paint4_linear_1205_4630)"/>
  <path d="M47.972 22.569H46.6286C45.3594 22.5862 44.0922 22.4624 42.8503 22.2C41.9795 22.0257 41.1396 21.7224 40.3584 21.3C39.8072 20.9803 39.3323 20.5442 38.967 20.022C38.6658 19.615 38.4412 19.1565 38.3043 18.669C38.2036 18.2475 38.1543 17.8153 38.1574 17.382V17.169H42.1756C42.3601 17.1707 42.5397 17.2292 42.6899 17.3366C42.8401 17.4439 42.9537 17.5949 43.0152 17.769C43.431 18.897 44.8234 19.46 47.1923 19.458H47.4652C48.2209 19.467 48.9762 19.4249 49.7262 19.332C50.1788 19.2895 50.6203 19.1676 51.0306 18.972C51.2504 18.8637 51.4377 18.6991 51.5734 18.495C51.6694 18.3185 51.717 18.1198 51.7113 17.919C51.7263 17.6526 51.6431 17.39 51.4774 17.181C51.3215 16.998 50.9587 16.839 50.3859 16.701C49.5721 16.5402 48.7446 16.4588 47.915 16.458L45.4201 16.401C40.7102 16.273 38.3543 14.857 38.3523 12.153V12C38.3486 11.5617 38.4082 11.1252 38.5292 10.704C38.6704 10.2565 38.9102 9.8464 39.2309 9.50398C39.6159 9.08064 40.0819 8.7389 40.6013 8.49898C41.3277 8.18103 42.0914 7.95625 42.8743 7.82998C43.9809 7.64429 45.1018 7.55695 46.2238 7.56898H47.5672C48.7414 7.55637 49.9145 7.64772 51.0726 7.84198C51.9078 7.97008 52.7231 8.20501 53.4985 8.54098C54.0551 8.79654 54.5579 9.15596 54.9799 9.59998C55.3236 9.9521 55.5919 10.3706 55.7685 10.83C55.9146 11.2536 55.9876 11.6989 55.9844 12.147V12.342H51.8703C51.7035 12.3409 51.5401 12.2942 51.398 12.207C51.2558 12.1197 51.1402 11.9952 51.0636 11.847C51.0017 11.724 50.9262 11.6083 50.8387 11.502C50.6513 11.3085 50.4256 11.1563 50.176 11.055C49.7833 10.911 49.3761 10.8104 48.9616 10.755C48.3395 10.6588 47.7107 10.6137 47.0814 10.62H46.7815C45.939 10.5968 45.0964 10.6652 44.2686 10.824C43.6869 10.959 43.3331 11.103 43.2071 11.253C43.0785 11.4258 43.0139 11.6378 43.0242 11.853C43.0149 12.0714 43.0877 12.2854 43.2281 12.453C43.5057 12.6834 43.8385 12.8375 44.1937 12.9C44.9071 13.0521 45.6353 13.1246 46.3647 13.116L48.7966 13.155C51.4974 13.207 53.4486 13.574 54.65 14.256C55.8515 14.938 56.4512 16.006 56.4492 17.46V17.733C56.4558 18.2156 56.3973 18.697 56.2753 19.164C56.1286 19.6416 55.8834 20.0831 55.5556 20.46C55.1559 20.9286 54.6612 21.307 54.1043 21.57C53.3167 21.9253 52.4844 22.1715 51.6304 22.302C50.4209 22.4968 49.1969 22.5861 47.972 22.569V22.569Z" fill="#030404"/>
  <path d="M62.9983 22.314V11.25H57.6816C57.4431 11.25 57.2142 11.1552 57.0455 10.9864C56.8768 10.8176 56.782 10.5887 56.782 10.35V7.82098H73.8384V10.335C73.8384 10.5737 73.7437 10.8026 73.5749 10.9714C73.4062 11.1402 73.1774 11.235 72.9388 11.235H67.5742V22.299L62.9983 22.314Z" fill="#030404"/>
  <path d="M87.0956 21.819L85.9891 19.665H77.206L76.1594 21.804C76.0832 21.9569 75.966 22.0855 75.8209 22.1756C75.6758 22.2657 75.5086 22.3136 75.3378 22.314H71.2866L78.3545 8.32198C78.4302 8.17326 78.5451 8.04803 78.6867 7.95976C78.8283 7.87148 78.9913 7.8235 79.1581 7.82098H83.956C84.1215 7.82123 84.2838 7.86625 84.4258 7.95128C84.5678 8.03631 84.6842 8.15818 84.7626 8.30398L92.2593 22.314H87.9082C87.74 22.3157 87.5748 22.2702 87.4311 22.1827C87.2875 22.0953 87.1712 21.9692 87.0956 21.819ZM84.3128 16.392L81.5091 10.956L78.8103 16.392H84.3128Z" fill="#030404"/>
  <path d="M123.958 17.484H117.631V21.384C117.631 21.5034 117.607 21.6217 117.561 21.7319C117.515 21.8421 117.447 21.942 117.362 22.0257C117.277 22.1095 117.176 22.1755 117.065 22.2198C116.954 22.2642 116.836 22.286 116.716 22.284H113.094V7.82098H123.958C128.462 7.82098 130.714 9.39298 130.714 12.537V12.732C130.714 15.9 128.462 17.484 123.958 17.484ZM117.631 11.115V14.229H123.88C125.28 14.229 125.979 13.723 125.979 12.711V12.651C125.979 11.629 125.28 11.117 123.88 11.115H117.631Z" fill="#030404"/>
  <path d="M141.8 7.56898H142.637C143.786 7.56038 144.933 7.64768 146.067 7.82997C146.949 7.96838 147.814 8.2007 148.646 8.52298C149.299 8.78507 149.912 9.13859 150.466 9.57297C150.927 9.93125 151.337 10.3512 151.684 10.821C151.978 11.2436 152.217 11.7023 152.394 12.186C152.557 12.6105 152.674 13.0509 152.745 13.5C152.798 13.9068 152.824 14.3167 152.823 14.727V15.312C152.823 15.7132 152.797 16.1141 152.745 16.512C152.674 16.9668 152.557 17.4131 152.394 17.844C152.218 18.3328 151.982 18.7982 151.693 19.23C151.352 19.71 150.942 20.1366 150.475 20.496C149.92 20.9347 149.308 21.295 148.655 21.567C147.824 21.8983 146.959 22.1367 146.076 22.278C144.94 22.4688 143.789 22.5601 142.637 22.551H141.8C140.646 22.56 139.493 22.4687 138.355 22.278C137.468 22.1374 136.599 21.899 135.764 21.567C135.111 21.2942 134.499 20.9339 133.944 20.496C133.477 20.1341 133.064 19.7079 132.717 19.23C132.423 18.8009 132.187 18.3349 132.016 17.844C131.858 17.4125 131.745 16.9662 131.677 16.512C131.623 16.1142 131.597 15.7133 131.599 15.312V14.736C131.596 14.3287 131.622 13.9217 131.677 13.518C131.746 13.0669 131.859 12.6237 132.016 12.195C132.186 11.7073 132.422 11.245 132.717 10.821C133.063 10.3505 133.473 9.9305 133.935 9.57297C134.488 9.13798 135.101 8.78441 135.755 8.52298C136.594 8.19863 137.466 7.96627 138.355 7.82997C139.494 7.64806 140.646 7.56077 141.8 7.56898V7.56898ZM148.07 15.147V14.874C148.072 14.5245 148.027 14.1764 147.935 13.839C147.822 13.473 147.643 13.1305 147.408 12.828C147.135 12.4628 146.791 12.1566 146.397 11.928C145.866 11.644 145.295 11.4417 144.703 11.328C143.884 11.1553 143.048 11.0738 142.211 11.085C138.305 11.085 136.351 12.351 136.349 14.883V15.117C136.346 15.5693 136.428 16.0182 136.591 16.44C136.785 16.9049 137.066 17.3285 137.419 17.688C137.923 18.1684 138.543 18.5104 139.218 18.681C141.166 19.167 143.202 19.167 145.15 18.681C145.828 18.5135 146.453 18.1794 146.97 17.709C147.337 17.3584 147.629 16.9369 147.827 16.47C147.991 16.0482 148.073 15.5993 148.07 15.147V15.147Z" fill="#030404"/>
  <path d="M158.995 17.172V21.399C158.995 21.6377 158.9 21.8666 158.731 22.0354C158.562 22.2042 158.333 22.299 158.095 22.299H154.458V7.82098H166.152C170.35 7.82098 172.45 9.07398 172.45 11.58V11.814C172.45 13.346 171.55 14.405 169.751 14.991C170.511 15.1901 171.199 15.5986 171.739 16.17C172.26 16.762 172.532 17.5329 172.498 18.321V22.314H168.845C168.726 22.316 168.607 22.2942 168.496 22.2498C168.385 22.2055 168.284 22.1395 168.199 22.0557C168.114 21.972 168.047 21.8721 168 21.7619C167.954 21.6517 167.931 21.5334 167.931 21.414V19.74C167.931 18.84 167.706 18.195 167.25 17.79C166.794 17.385 166.017 17.19 164.914 17.19L158.995 17.172ZM158.995 11.115V13.959H165.867C166.36 13.998 166.85 13.8597 167.25 13.569C167.397 13.4417 167.514 13.2829 167.592 13.1043C167.67 12.9256 167.707 12.7317 167.7 12.537V12.516C167.705 12.3241 167.668 12.1334 167.59 11.9579C167.512 11.7824 167.396 11.6266 167.25 11.502C166.85 11.2123 166.36 11.0751 165.867 11.115H158.995Z" fill="#030404"/>
  <path d="M97.6389 17.172V21.399C97.6389 21.5184 97.6151 21.6367 97.569 21.7469C97.5228 21.8571 97.4552 21.957 97.3701 22.0407C97.285 22.1245 97.184 22.1905 97.0731 22.2348C96.9623 22.2792 96.8437 22.301 96.7243 22.299H93.1019V7.82098H104.797C108.995 7.82098 111.094 9.07398 111.094 11.58V11.814C111.094 13.346 110.194 14.405 108.395 14.991C109.154 15.1907 109.842 15.5991 110.38 16.17C110.901 16.762 111.173 17.5329 111.139 18.321V22.314H107.492C107.373 22.316 107.254 22.2942 107.144 22.2498C107.033 22.2055 106.932 22.1395 106.847 22.0557C106.762 21.972 106.694 21.8721 106.648 21.7619C106.602 21.6517 106.578 21.5334 106.578 21.414V21.414V19.74C106.578 18.84 106.35 18.195 105.894 17.79C105.438 17.385 104.662 17.19 103.558 17.19L97.6389 17.172ZM97.6389 11.115V13.959H104.512C105.004 13.998 105.495 13.8597 105.894 13.569C106.042 13.4417 106.159 13.2829 106.237 13.1043C106.315 12.9256 106.351 12.7317 106.344 12.537V12.516C106.35 12.3241 106.312 12.1334 106.234 11.9579C106.156 11.7824 106.04 11.6266 105.894 11.502C105.494 11.2123 105.004 11.0751 104.512 11.115H97.6389Z" fill="#030404"/>
  <path d="M179.571 22.314V11.25H174.255C174.018 11.2454 173.791 11.1491 173.624 10.9813C173.456 10.8135 173.36 10.5872 173.355 10.35V7.82098H190.409V10.335C190.404 10.5748 190.305 10.8032 190.135 10.9714C189.964 11.1396 189.734 11.2342 189.494 11.235H184.156V22.299L179.571 22.314Z" fill="#030404"/>
  <defs>
  <radialGradient id="paint0_radial_1205_4630" cx="0" cy="0" r="1" gradientUnits="userSpaceOnUse" gradientTransform="translate(15.5268 15.063) rotate(78.7999) scale(9.56923 57.3169)">
  <stop stop-color="#4050F9"/>
  <stop offset="1" stop-color="#01D7E5"/>
  </radialGradient>
  <radialGradient id="paint1_radial_1205_4630" cx="0" cy="0" r="1" gradientUnits="userSpaceOnUse" gradientTransform="translate(16.336 4.94999) rotate(-38.9885) scale(42.4373 119.835)">
  <stop stop-color="#4151FA" stop-opacity="0"/>
  <stop offset="0.93319" stop-color="#4151FA"/>
  </radialGradient>
  <linearGradient id="paint2_linear_1205_4630" x1="17.2356" y1="9.74999" x2="17.2356" y2="4.04999" gradientUnits="userSpaceOnUse">
  <stop stop-color="#4151FA"/>
  <stop offset="0.80232" stop-color="#4151FA" stop-opacity="0"/>
  </linearGradient>
  <linearGradient id="paint3_linear_1205_4630" x1="16.6358" y1="24.75" x2="18.4366" y2="15.7503" gradientUnits="userSpaceOnUse">
  <stop stop-color="#00D9E5"/>
  <stop offset="1" stop-color="#00D9E5" stop-opacity="0"/>
  </linearGradient>
  <linearGradient id="paint4_linear_1205_4630" x1="-4.95453" y1="-5.70001" x2="7.9496" y2="26.246" gradientUnits="userSpaceOnUse">
  <stop offset="0.527646" stop-color="#4151FA" stop-opacity="0"/>
  <stop offset="0.800615" stop-color="#4151FA"/>
  <stop offset="1" stop-color="#4151FA" stop-opacity="0"/>
  </linearGradient>
  </defs>
  </svg>
  