<svg width="105" height="25" viewBox="0 0 105 25" fill="none" xmlns="http://www.w3.org/2000/svg">
<path d="M10 17.0001L6 13.0001L10 9.00012" stroke="black" stroke-width="1.6" stroke-linecap="round" stroke-linejoin="round"/>
<path d="M50.9089 4.71705C50.9089 5.61813 50.309 6.1741 49.4545 6.1741C48.6 6.1741 48 5.61813 48 4.71705C48 3.85433 48.6 3.27917 49.4545 3.27917C50.309 3.27917 50.9089 3.85433 50.9089 4.71705Z" fill="black"/>
<path d="M48.0359 19.0185H50.8772V7.57654H48.0359V19.0185Z" fill="black"/>
<path d="M58.2042 24.3036C62.0947 24.3036 64.0618 22.0413 64.0618 18.9307V7.57575H61.2422V9.05494H61.0674C60.7177 8.48937 59.5811 7.29297 57.5485 7.29297C54.4885 7.29297 52.2373 9.64226 52.2373 13.2532C52.2373 16.8859 54.5323 19.1917 57.6359 19.1917C59.6904 19.1917 60.7614 17.9736 61.0892 17.4515H61.2641V18.9307C61.2641 20.8884 60.2587 21.9761 58.2042 21.9761C56.6523 21.9761 55.7344 21.3235 55.5158 20.3011H52.893C53.0897 22.4329 54.882 24.3036 58.2042 24.3036ZM58.2042 16.6466C56.3682 16.6466 55.1224 15.3415 55.1224 13.2532C55.1224 11.2302 56.3682 9.85979 58.1823 9.85979C59.9746 9.85979 61.286 11.1214 61.286 13.2532C61.286 15.1892 60.1057 16.6466 58.2042 16.6466Z" fill="black"/>
<path d="M66.0167 19.0177H68.8581V12.4701C68.8581 11.0344 69.8416 9.9468 71.2186 9.9468C72.53 9.9468 73.4261 10.8822 73.4261 12.2743V19.0177H76.2675V11.5347C76.2675 9.09844 74.6938 7.29297 72.1147 7.29297C70.4755 7.29297 69.3389 8.11957 68.8799 8.96793H68.7269V7.57575H66.0167V19.0177Z" fill="black"/>
<path d="M81.0895 4.71705C81.0895 5.61812 80.4895 6.1741 79.635 6.1741C78.7805 6.1741 78.1805 5.61812 78.1805 4.71705C78.1805 3.85433 78.7805 3.27917 79.635 3.27917C80.4895 3.27917 81.0895 3.85433 81.0895 4.71705Z" fill="black"/>
<path d="M78.2248 19.0185H81.0662V7.57654H78.2248V19.0185Z" fill="black"/>
<path d="M86.8472 19.0189H89.0329V16.6696H87.4373C86.3445 16.6696 85.8636 16.0606 85.8636 15.1034V9.83928H89.0329V7.57699H85.8636V4.42285H83.0223V15.2122C83.0223 17.6703 84.4648 19.0189 86.8472 19.0189Z" fill="black"/>
<path d="M95.2954 19.3039C98.2679 19.3039 100.322 17.7812 100.891 15.4537H98.2461C97.8527 16.389 96.7817 17.0416 95.3829 17.0416C93.5469 17.0416 92.3448 15.867 92.2574 14.1267H101V13.2349C101 10.0155 98.9892 7.29639 95.2954 7.29639C91.9295 7.29639 89.5034 9.75444 89.5034 13.3654C89.5034 16.7806 91.9076 19.3039 95.2954 19.3039ZM92.3011 12.1255C92.4759 10.6898 93.6999 9.55867 95.2954 9.55867C96.9565 9.55867 98.1586 10.581 98.2898 12.1255H92.3011Z" fill="black"/>
<path d="M34.0666 12.9609V18.7976C34.0667 18.8973 34.0407 18.9953 33.9911 19.0817C33.9415 19.1681 33.8701 19.2399 33.7841 19.2898L30.5359 21.087C30.493 21.1121 30.4444 21.1254 30.3947 21.1255C30.3451 21.1256 30.2964 21.1126 30.2534 21.0878C30.2104 21.0629 30.1748 21.0271 30.1501 20.9839C30.1254 20.9408 30.1125 20.8919 30.1127 20.8421V15.1696C30.1127 15.0697 30.0865 14.9717 30.0367 14.8853C29.9868 14.7988 29.9152 14.7271 29.8289 14.6773L24.9311 11.8417C24.888 11.8168 24.8523 11.781 24.8275 11.7379C24.8026 11.6948 24.7896 11.6459 24.7896 11.5962C24.7896 11.5464 24.8026 11.4975 24.8275 11.4544C24.8523 11.4113 24.888 11.3755 24.9311 11.3507L28.1767 9.55226C28.2628 9.50254 28.3605 9.47638 28.4599 9.47638C28.5593 9.47638 28.6569 9.50254 28.7431 9.55226L33.7802 12.4699C33.8662 12.5197 33.9375 12.5913 33.9871 12.6775C34.0367 12.7637 34.0628 12.8614 34.0628 12.9609" fill="black"/>
<path d="M41.9855 8.36439V17.6162C41.9853 17.7181 41.9583 17.8181 41.9074 17.9063C41.8564 17.9944 41.7832 18.0676 41.6952 18.1184L37.2551 20.6887C37.2111 20.7143 37.1613 20.7278 37.1105 20.7279C37.0597 20.7281 37.0098 20.7147 36.9658 20.6893C36.9217 20.6639 36.8852 20.6274 36.8597 20.5833C36.8343 20.5392 36.8209 20.4892 36.8209 20.4383V11.3543C36.8209 11.2524 36.7942 11.1522 36.7435 11.0638C36.6927 10.9754 36.6198 10.902 36.5318 10.8508L28.6848 6.30946C28.6408 6.28404 28.6042 6.24745 28.5788 6.20336C28.5534 6.15928 28.54 6.10925 28.54 6.05833C28.54 6.00741 28.5534 5.95739 28.5788 5.9133C28.6042 5.86921 28.6408 5.83262 28.6848 5.8072L33.1314 3.23559C33.2196 3.18473 33.3195 3.15796 33.4211 3.15796C33.5228 3.15796 33.6227 3.18473 33.7108 3.23559L41.7004 7.86214C41.7885 7.91297 41.8616 7.98613 41.9126 8.07429C41.9636 8.16245 41.9905 8.2625 41.9907 8.36439" fill="black"/>
</svg>
