<svg width="2230" height="490" viewBox="0 0 2230 490" fill="none" xmlns="http://www.w3.org/2000/svg">
<path d="M568.179 84.3435C568.179 102.365 556.18 113.485 539.089 113.485C521.999 113.485 510 102.365 510 84.3435C510 67.089 521.999 55.5859 539.089 55.5859C556.18 55.5859 568.179 67.089 568.179 84.3435Z" fill="black"/>
<path d="M510.713 370.372H567.54V141.533H510.713V370.372Z" fill="black"/>
<path d="M714.083 476.072C791.893 476.072 831.235 430.826 831.235 368.614V141.515H774.845V171.099H771.348C764.354 159.787 741.623 135.859 700.969 135.859C639.771 135.859 594.746 182.845 594.746 255.064C594.746 327.718 640.645 373.834 702.718 373.834C743.808 373.834 765.228 349.471 771.785 339.03H775.282V368.614C775.282 407.768 755.174 429.521 714.083 429.521C683.047 429.521 664.687 416.47 660.316 396.022H607.86C611.794 438.657 647.639 476.072 714.083 476.072ZM714.083 322.933C677.364 322.933 652.448 296.83 652.448 255.064C652.448 214.604 677.364 187.196 713.646 187.196C749.491 187.196 775.719 212.429 775.719 255.064C775.719 293.784 752.114 322.933 714.083 322.933Z" fill="black"/>
<path d="M870.332 370.354H927.159V239.402C927.159 210.689 946.83 188.936 974.37 188.936C1000.6 188.936 1018.52 207.643 1018.52 235.487V370.354H1075.35V220.695C1075.35 171.969 1043.87 135.859 992.292 135.859C959.507 135.859 936.776 152.391 927.596 169.359H924.537V141.515H870.332V370.354Z" fill="black"/>
<path d="M1171.79 84.3435C1171.79 102.365 1159.79 113.485 1142.7 113.485C1125.61 113.485 1113.61 102.365 1113.61 84.3435C1113.61 67.089 1125.61 55.5859 1142.7 55.5859C1159.79 55.5859 1171.79 67.089 1171.79 84.3435Z" fill="black"/>
<path d="M1114.49 370.372H1171.32V141.533H1114.49V370.372Z" fill="black"/>
<path d="M1286.95 370.378H1330.66V323.393H1298.75C1276.89 323.393 1267.28 311.211 1267.28 292.069V186.786H1330.66V141.54H1267.28V78.457H1210.45V294.244C1210.45 343.405 1239.3 370.378 1286.95 370.378Z" fill="black"/>
<path d="M1455.91 376.078C1515.36 376.078 1556.45 345.624 1567.81 299.073H1514.92C1507.05 317.78 1485.63 330.832 1457.66 330.832C1420.94 330.832 1396.9 307.339 1395.15 272.535H1570V254.698C1570 190.31 1529.78 135.928 1455.91 135.928C1388.59 135.928 1340.07 185.089 1340.07 257.308C1340.07 325.611 1388.15 376.078 1455.91 376.078ZM1396.02 232.51C1399.52 203.796 1424 181.173 1455.91 181.173C1489.13 181.173 1513.17 201.621 1515.8 232.51H1396.02Z" fill="black"/>
<path d="M231.332 249.223V365.957C231.335 367.951 230.814 369.91 229.822 371.638C228.83 373.367 227.402 374.803 225.681 375.802L160.718 411.745C159.861 412.247 158.887 412.512 157.895 412.515C156.903 412.518 155.927 412.257 155.068 411.76C154.208 411.263 153.496 410.546 153.001 409.684C152.507 408.821 152.249 407.842 152.254 406.847V293.396C152.254 291.4 151.73 289.438 150.733 287.71C149.737 285.981 148.303 284.547 146.578 283.551L48.6212 226.838C47.7609 226.341 47.0463 225.626 46.5494 224.764C46.0526 223.902 45.791 222.924 45.791 221.928C45.791 220.933 46.0526 219.955 46.5494 219.093C47.0463 218.231 47.7609 217.515 48.6212 217.019L113.534 181.05C115.257 180.056 117.21 179.532 119.197 179.532C121.185 179.532 123.138 180.056 124.861 181.05L225.605 239.404C227.323 240.399 228.751 241.83 229.743 243.554C230.735 245.278 231.256 247.233 231.255 249.223" fill="black"/>
<path d="M389.71 157.293V342.328C389.706 344.366 389.167 346.367 388.148 348.13C387.128 349.894 385.665 351.357 383.903 352.374L295.101 403.78C294.223 404.291 293.225 404.562 292.21 404.564C291.194 404.566 290.196 404.3 289.315 403.792C288.435 403.284 287.703 402.552 287.194 401.671C286.686 400.789 286.418 399.789 286.417 398.77V217.092C286.417 215.052 285.884 213.049 284.869 211.281C283.855 209.514 282.395 208.045 280.636 207.02L123.696 116.194C122.816 115.686 122.085 114.954 121.577 114.072C121.068 113.19 120.801 112.19 120.801 111.172C120.801 110.153 121.068 109.153 121.577 108.271C122.085 107.389 122.816 106.657 123.696 106.149L212.629 54.7167C214.391 53.6995 216.389 53.1641 218.423 53.1641C220.456 53.1641 222.454 53.6995 224.216 54.7167L384.008 147.248C385.769 148.264 387.233 149.728 388.252 151.491C389.271 153.254 389.81 155.255 389.815 157.293" fill="black"/>
<path d="M1896.32 295.135C1884.43 346.217 1837.75 376.162 1787.99 376.162C1718.85 376.162 1670.41 323.759 1670.41 255.942C1670.41 188.126 1720.17 135.723 1787.55 135.723C1837.31 135.723 1883.55 165.667 1895.88 216.75H1859.77C1850.52 186.805 1821.46 167.429 1788.43 167.429C1739.55 167.429 1706.52 206.181 1706.52 255.942C1706.52 307.465 1741.31 344.456 1789.31 344.456C1822.34 344.456 1851.84 325.08 1860.65 295.135H1896.32Z" fill="black" fill-opacity="0.6"/>
<path d="M1935.41 141.466H1968.88V339.479H2064.26V370.427H1935.41V141.466Z" fill="black" fill-opacity="0.6"/>
<path d="M2103.8 141.466H2137.27V370.427H2103.8V141.466Z" fill="black" fill-opacity="0.6"/>
</svg>
