<svg
  width="210"
  height="120"
  viewBox="0 0 210 120"
  fill="none"
  xmlns="http://www.w3.org/2000/svg"
>
<path
    fill-rule="evenodd"
    clip-rule="evenodd"
    d="M104.663 50.9683C100.334 46.5838 96.0057 42.1987 91.6812 37.8095C90.7244 36.8371 88.9475 36.7793 88.0013 37.8095C87.055 38.8398 86.9814 40.4535 88.0013 41.489L88.0039 41.4917L88.0052 41.493C92.8877 46.438 97.7702 51.3829 102.647 56.3332C103.181 56.8753 103.969 57.1332 104.727 57.0767C105.43 57.1197 106.14 56.884 106.681 56.3343C111.565 51.388 116.449 46.4417 121.328 41.4901C122.284 40.5177 122.368 38.7673 121.328 37.8106C120.287 36.854 118.667 36.7751 117.648 37.8106L117.644 37.814L117.633 37.8257C113.308 42.2054 108.984 46.585 104.663 50.9683ZM91.6981 82.1711L91.698 82.1712L91.6912 82.1781L91.6806 82.1889C90.6607 83.2244 89.0415 83.1456 88.0006 82.1889C86.9597 81.2322 87.0438 79.4818 88.0006 78.5094C92.8765 73.5606 97.7576 68.617 102.639 63.6734L102.641 63.6707L102.647 63.6652C103.189 63.1147 103.901 62.8792 104.605 62.923C105.361 62.8675 106.148 63.1255 106.68 63.6668C111.558 68.6175 116.441 73.5629 121.324 78.5083L121.326 78.5109C122.346 79.5465 122.273 81.1602 121.326 82.1904C120.38 83.2207 118.603 83.1629 117.646 82.1904C113.322 77.8013 108.993 73.4162 104.664 69.0317C100.345 73.4139 96.0214 77.7925 91.6981 82.1711ZM77.4206 44.4379C76.1128 43.1161 73.9648 43.1161 72.657 44.4379L72.6565 44.4383L59.4414 57.7892L59.441 57.7896C58.1169 59.1284 58.1169 61.3511 59.441 62.6899L59.4414 62.6904L72.1781 75.5576L72.1786 75.5581C73.4864 76.8799 75.6344 76.8799 76.9422 75.5581L76.9427 75.5577L90.1577 62.2068L90.1582 62.2064C91.4825 60.8674 91.4823 58.6444 90.1577 57.3056L77.4211 44.4384L77.4206 44.4379ZM57.3867 64.7233L55.3317 66.7566C51.7781 63.165 51.7781 57.3146 55.3317 53.7229L55.3321 53.7225L68.5472 40.3717L68.5476 40.3712C72.118 36.7631 77.9596 36.7631 81.5299 40.3712L81.5304 40.3717L94.2671 53.2389L94.2675 53.2394C97.8211 56.831 97.8211 62.6814 94.2675 66.273L94.2671 66.2735L81.052 79.6243L81.0516 79.6248C77.4811 83.233 71.6391 83.2329 68.0688 79.6243L55.3321 66.7571L57.3867 64.7233ZM132.391 44.4374C133.699 43.1156 135.847 43.1156 137.154 44.4374L137.155 44.4379L149.892 57.3051C151.216 58.6439 151.216 60.867 149.892 62.2059L149.892 62.2064L136.677 75.5572L136.676 75.5576C135.368 76.8795 133.22 76.8795 131.912 75.5576L131.912 75.5572L119.175 62.6899L119.175 62.6895C117.851 61.3507 117.851 59.128 119.175 57.7892L119.175 57.7887L132.39 44.4379L132.391 44.4374ZM115.066 66.7562L117.12 64.723L115.066 66.7566L127.803 79.6239L127.803 79.6243C131.373 83.2324 137.215 83.2324 140.785 79.6243L140.786 79.6239L154.001 66.273L154.001 66.2726C157.555 62.681 157.555 56.8305 154.001 53.2389L154.001 53.2384L141.264 40.3712L141.264 40.3707C137.693 36.7627 131.852 36.7627 128.281 40.3708L128.281 40.3712L115.066 53.7221L115.066 53.7225C111.512 57.3141 111.512 63.1646 115.066 66.7562Z"
    fill="black"
  />
</svg>
