<svg
  width="210"
  height="120"
  viewBox="0 0 210 120"
  fill="none"
  xmlns="http://www.w3.org/2000/svg"
>
<path
    d="M68.6797 52.077L66.9504 53.8638C65.5117 52.4676 64.1053 51.7695 62.7312 51.7695C61.8986 51.7531 61.0927 52.0635 60.4863 52.6342C59.8641 53.2106 59.5526 53.883 59.5518 54.6513C59.5518 55.3315 59.8086 55.9785 60.3222 56.5925C60.8349 57.2204 61.9135 57.9552 63.5579 58.797C65.5599 59.834 66.9206 60.8333 67.6399 61.7952C68.3393 62.75 68.7098 63.9061 68.6956 65.0897C68.7108 65.902 68.5579 66.7087 68.2466 67.4592C67.9354 68.2097 67.4724 68.8878 66.8867 69.4509C65.6807 70.6422 64.1735 71.2378 62.365 71.2378C61.1686 71.2396 59.9874 70.9704 58.9101 70.4503C57.8443 69.9486 56.9116 69.2031 56.1875 68.274L57.8788 66.3524C59.2522 67.9037 60.7092 68.6793 62.2499 68.6793C63.2682 68.7026 64.2559 68.3304 65.0055 67.6408C65.7624 66.9484 66.1412 66.1352 66.142 65.2011C66.1472 64.4477 65.8807 63.7177 65.3913 63.1448C64.89 62.5553 63.7599 61.8123 62.0012 60.9158C60.1144 59.9426 58.8296 58.982 58.1471 58.034C57.4673 57.0889 57.1096 55.9501 57.1269 54.786C57.1269 53.1972 57.669 51.8777 58.7533 50.8277C59.8376 49.7777 61.2072 49.2527 62.8622 49.2527C64.7883 49.2527 66.7275 50.1941 68.6797 52.077ZM83.3408 49.2527C86.5602 49.2527 89.2293 50.4183 91.348 52.7493C93.2717 54.8722 94.2339 57.3894 94.2347 60.301C94.2347 63.2216 93.2178 65.7739 91.1839 67.958C89.1501 70.1421 86.5373 71.2341 83.3457 71.2341C80.1369 71.2341 77.5156 70.1421 75.4818 67.958C73.4479 65.7739 72.4285 63.2216 72.4236 60.301C72.4236 57.4057 73.3863 54.8951 75.3115 52.7689C77.4278 50.4248 80.1035 49.2527 83.3383 49.2527H83.3408ZM83.331 51.8847C81.0938 51.8847 79.1718 52.711 77.565 54.3635C75.9582 56.0161 75.1548 58.0144 75.1548 60.3586C75.1479 61.8397 75.5279 63.297 76.257 64.5863C76.9488 65.8498 77.9767 66.8972 79.227 67.6126C80.4831 68.3112 81.8967 68.6778 83.3341 68.6778C84.7714 68.6778 86.185 68.3112 87.4412 67.6126C88.6917 66.8975 89.7197 65.85 90.4111 64.5863C91.1403 63.297 91.5202 61.8397 91.5134 60.3586C91.5134 58.0144 90.7067 56.0161 89.0933 54.3635C87.4799 52.711 85.5584 51.8847 83.3285 51.8847H83.331ZM98.8654 49.7904H101.56V59.5515C101.56 61.934 101.688 63.5735 101.944 64.47C102.299 65.7098 103.08 66.7849 104.149 67.5061C105.233 68.2491 106.526 68.6206 108.026 68.6206C109.527 68.6206 110.798 68.2601 111.839 67.5391C112.856 66.853 113.617 65.8497 114.004 64.6855C114.274 63.8788 114.408 62.1687 114.408 59.5551V49.7941H117.155V60.0548C117.155 62.9362 116.819 65.1076 116.146 66.5691C115.505 67.9933 114.447 69.1891 113.111 69.9984C111.759 70.8255 110.065 71.2386 108.029 71.2378C105.992 71.237 104.292 70.8238 102.927 69.9984C101.576 69.1878 100.51 67.9798 99.8721 66.5398C99.1993 65.0603 98.8629 62.8345 98.8629 59.8625L98.8654 49.7904ZM122.115 49.7904H124.863V52.8424C125.679 51.6397 126.544 50.7416 127.458 50.148C128.296 49.5747 129.286 49.2639 130.302 49.2552C131.044 49.2552 131.838 49.492 132.684 49.9655L131.279 52.23C130.714 51.9851 130.242 51.8626 129.857 51.8626C128.959 51.8626 128.094 52.23 127.263 52.9649C126.432 53.6997 125.797 54.8428 125.36 56.3941C125.027 57.5854 124.86 59.994 124.86 63.62V70.6916H122.113L122.115 49.7904ZM155.261 54.1333L153.128 55.4584C151.286 53.009 148.772 51.7842 145.585 51.7842C143.039 51.7842 140.925 52.6032 139.242 54.241C137.559 55.8789 136.718 57.8683 136.719 60.2091C136.714 61.7217 137.113 63.2081 137.876 64.5141C138.626 65.8331 139.728 66.9165 141.061 67.642C142.41 68.3842 143.923 68.7553 145.6 68.7553C148.67 68.7553 151.178 67.5306 153.123 65.0811L155.256 66.4834C154.255 67.9921 152.865 69.2029 151.233 69.9886C149.548 70.8173 147.629 71.2321 145.477 71.2329C142.172 71.2329 139.431 70.1825 137.253 68.0817C135.075 65.9809 133.987 63.4253 133.987 60.4149C133.977 58.4335 134.505 56.4865 135.514 54.7811C136.512 53.0635 137.965 51.6554 139.714 50.7126C141.494 49.7394 143.486 49.2527 145.689 49.2527C147.05 49.249 148.403 49.4627 149.696 49.8859C150.872 50.2524 151.978 50.8111 152.971 51.5393C153.894 52.2478 154.671 53.1287 155.259 54.1333H155.261ZM178.03 63.7596L180.297 64.9513C179.553 66.4112 178.696 67.5893 177.725 68.4858C176.77 69.3715 175.653 70.0662 174.437 70.5324C173.218 71.0002 171.839 71.2341 170.301 71.2341C166.891 71.2341 164.225 70.1164 162.301 67.8808C160.377 65.6453 159.416 63.1187 159.416 60.301C159.391 57.726 160.256 55.2214 161.865 53.2111C163.928 50.5714 166.691 49.2519 170.154 49.2527C173.718 49.2527 176.564 50.604 178.693 53.3066C180.205 55.2155 180.974 57.598 181 60.4541H162.176C162.226 62.8831 163.002 64.8737 164.503 66.4258C166.005 67.978 167.858 68.7536 170.063 68.7528C171.124 68.7534 172.176 68.5656 173.17 68.198C174.11 67.8689 174.982 67.3708 175.742 66.7284C176.445 66.1144 177.207 65.1248 178.028 63.7596H178.03ZM178.03 58.1259C177.672 56.6913 177.149 55.545 176.462 54.6868C175.729 53.7922 174.797 53.0813 173.74 52.6109C172.626 52.0897 171.411 51.8208 170.181 51.8234C168.128 51.8234 166.365 52.4832 164.89 53.8026C163.812 54.7628 162.996 56.2039 162.441 58.1259H178.03Z"
    fill="black"
  />
<path
    d="M49.0977 63.074C49.0977 65.7391 48.039 68.2951 46.1545 70.1796C44.27 72.0641 41.714 73.1229 39.0489 73.1229C36.3838 73.1229 33.8278 72.0641 31.9433 70.1796C30.0588 68.2951 29 65.7391 29 63.074C29.0004 62.8548 29.0876 62.6447 29.2425 62.4898C29.3975 62.3348 29.6076 62.2476 29.8267 62.2473H32.9008C33.1199 62.2476 33.33 62.3348 33.485 62.4898C33.6399 62.6447 33.7271 62.8548 33.7275 63.074C33.7264 63.7728 33.8634 64.465 34.1308 65.1107C34.3981 65.7564 34.7905 66.3428 35.2853 66.8363L35.3233 66.878H35.3294C36.3201 67.8517 37.6536 68.3975 39.0428 68.3979H39.2314V68.3893C40.5765 68.3454 41.8546 67.7916 42.8063 66.84C43.3344 66.3116 43.7453 65.6779 44.0123 64.9802C44.2793 64.2824 44.3964 63.5363 44.3559 62.7904C44.3155 62.0444 44.1184 61.3153 43.7776 60.6505C43.4368 59.9857 42.9598 59.4002 42.3777 58.9319C42.0538 58.6759 41.7886 58.3535 41.6 57.9863C41.4113 57.6191 41.3036 57.2157 41.284 56.8034C41.2593 56.3702 41.11 55.9534 40.854 55.603C40.5981 55.2527 40.2464 54.9837 39.8412 54.8285C39.436 54.6732 38.9947 54.6383 38.5701 54.7279C38.1456 54.8176 37.756 55.0279 37.4482 55.3337C37.0279 55.757 36.792 56.3293 36.792 56.9258C36.792 57.5224 37.0279 58.0947 37.4482 58.518L37.578 58.649L37.5866 58.6405C37.9924 58.9854 38.5077 59.1747 39.0403 59.1744C39.5531 59.1728 40.0612 59.2727 40.5352 59.4684C41.0092 59.6641 41.4398 59.9517 41.8021 60.3147C42.1638 60.6758 42.4509 61.1048 42.6467 61.577C42.8425 62.0492 42.9433 62.5554 42.9433 63.0666C42.9433 63.5778 42.8425 64.084 42.6467 64.5562C42.4509 65.0285 42.1638 65.4574 41.8021 65.8186C41.2694 66.3486 40.5948 66.7134 39.8596 66.869C39.1245 67.0246 38.36 66.9643 37.6582 66.6956C36.9565 66.4268 36.3473 65.9609 35.9042 65.354C35.461 64.7471 35.2027 64.0251 35.1604 63.2748C35.1562 63.093 35.1109 62.9146 35.028 62.7528C34.945 62.5909 34.8266 62.45 34.6815 62.3404C33.9183 61.7275 33.2929 60.9606 32.846 60.0898C32.399 59.2189 32.1407 58.2636 32.0878 57.2862C32.0348 56.3089 32.1885 55.3313 32.5388 54.4173C32.8891 53.5032 33.428 52.6733 34.1206 51.9816C34.7672 51.3343 35.5351 50.8208 36.3803 50.4704C37.2255 50.1201 38.1315 49.9398 39.0464 49.9398C39.9614 49.9398 40.8673 50.1201 41.7126 50.4704C42.5578 50.8208 43.3256 51.3343 43.9723 51.9816C45.0373 53.0462 45.7287 54.4273 45.9428 55.9179L45.9661 56.0796H47.3954L47.3696 55.8689C47.2307 54.7484 46.8672 53.6675 46.301 52.6908C45.7347 51.714 44.9773 50.8615 44.074 50.1842C43.1707 49.5069 42.1401 49.0187 41.0438 48.7488C39.9475 48.4789 38.808 48.4329 37.6935 48.6136C36.579 48.7942 35.5124 49.1977 34.5575 49.8C33.6025 50.4023 32.7788 51.191 32.1357 52.1189C31.4925 53.0468 31.0431 54.0949 30.8143 55.2005C30.5855 56.3061 30.582 57.4465 30.8041 58.5535C30.9131 59.0973 30.8861 59.0642 31.098 59.5725C31.1813 59.7746 31.1811 60.0014 31.0975 60.2034C31.014 60.4053 30.8539 60.566 30.6522 60.6502C30.5518 60.6912 30.4446 60.7129 30.3362 60.7139C30.1731 60.7136 30.0138 60.6651 29.8783 60.5744C29.7427 60.4837 29.637 60.355 29.5744 60.2044C29.3185 59.5921 29.3123 59.5174 29.1838 58.8756C29.0596 58.2331 28.9981 57.5802 29 56.9258C29 54.2607 30.0588 51.7047 31.9433 49.8202C33.8278 47.9357 36.3838 46.877 39.0489 46.877C41.714 46.877 44.27 47.9357 46.1545 49.8202C48.039 51.7047 49.0977 54.2607 49.0977 56.9258C49.0974 57.145 49.0102 57.3551 48.8552 57.51C48.7003 57.665 48.4902 57.7522 48.271 57.7525H45.197C44.9778 57.7522 44.7677 57.665 44.6128 57.51C44.4578 57.3551 44.3706 57.145 44.3703 56.9258C44.3718 56.2271 44.2352 55.5349 43.9685 54.8891C43.7018 54.2432 43.3102 53.6564 42.8161 53.1623C41.817 52.1673 40.4644 51.6088 39.0544 51.6088C37.6444 51.6088 36.2918 52.1673 35.2927 53.1623C34.7639 53.6906 34.3524 54.3245 34.0849 55.0225C33.8175 55.7205 33.7001 56.4671 33.7404 57.2135C33.7808 57.9599 33.9779 58.6895 34.319 59.3547C34.6601 60.0198 35.1375 60.6057 35.7201 61.074C36.0435 61.3301 36.3085 61.6524 36.4971 62.0193C36.6857 62.3862 36.7937 62.7893 36.8138 63.2013C36.8385 63.6345 36.9878 64.0513 37.2437 64.4017C37.4997 64.752 37.8514 65.021 38.2566 65.1762C38.6617 65.3315 39.1031 65.3664 39.5276 65.2768C39.9522 65.1871 40.3418 64.9768 40.6496 64.671C41.0699 64.2477 41.3058 63.6754 41.3058 63.0789C41.3058 62.4823 41.0699 61.91 40.6496 61.4867C40.4404 61.2782 40.192 61.113 39.9188 61.0008C39.6456 60.8885 39.3528 60.8314 39.0575 60.8327C38.0364 60.834 37.0559 60.4326 36.3288 59.7158L36.3006 59.6876C35.939 59.3263 35.6521 58.8974 35.4563 58.4252C35.2606 57.953 35.1598 57.4468 35.1598 56.9356C35.1598 56.4245 35.2606 55.9183 35.4563 55.4461C35.6521 54.9739 35.939 54.5449 36.3006 54.1837C36.8329 53.6522 37.5075 53.2861 38.2431 53.1295C38.9788 52.9728 39.744 53.0323 40.4466 53.3008C41.1492 53.5693 41.7591 54.0354 42.2028 54.6427C42.6465 55.2501 42.905 55.9728 42.9472 56.7238C42.9514 56.9055 42.9967 57.084 43.0796 57.2458C43.1625 57.4076 43.281 57.5486 43.426 57.6582C44.189 58.2708 44.8143 59.0373 45.2611 59.9077C45.708 60.7782 45.9665 61.733 46.0196 62.71C46.0728 63.687 45.9194 64.6642 45.5696 65.578C45.2198 66.4917 44.6814 67.3215 43.9894 68.0133C42.7203 69.2845 41.0088 70.0156 39.213 70.0537H39.0428C37.221 70.0549 35.4713 69.3417 34.1696 68.0672C34.1524 68.053 34.136 68.0379 34.1206 68.0219C33.0527 66.9566 32.3602 65.5728 32.1476 64.0795L32.1243 63.9178H30.6902L30.7147 64.1113C30.9774 66.2327 32.0395 68.1739 33.6843 69.5392C35.329 70.9044 37.4326 71.5909 39.5661 71.4586C41.6995 71.3263 43.7022 70.3852 45.1657 68.8271C46.6292 67.2691 47.4432 65.2115 47.4419 63.074C47.4417 62.5217 47.3875 61.9709 47.2802 61.4292C47.1712 60.8854 47.1982 60.9184 46.9875 60.4126C46.9459 60.3127 46.9245 60.2055 46.9243 60.0972C46.9242 59.989 46.9453 59.8818 46.9866 59.7817C47.0279 59.6816 47.0885 59.5906 47.1649 59.514C47.2413 59.4373 47.3321 59.3764 47.4321 59.3349C47.5321 59.2933 47.6392 59.2718 47.7475 59.2717C47.8557 59.2715 47.963 59.2927 48.063 59.334C48.1631 59.3752 48.2541 59.4358 48.3308 59.5123C48.4074 59.5887 48.4683 59.6795 48.5098 59.7795C48.7658 60.3918 48.7719 60.4653 48.8993 61.1071C49.0302 61.7545 49.0967 62.4134 49.0977 63.074ZM39.0428 63.9056C39.1516 63.9052 39.2594 63.8833 39.3598 63.8413C39.4603 63.7993 39.5515 63.7379 39.6282 63.6606C39.7442 63.5447 39.8232 63.3969 39.8553 63.2361C39.8873 63.0752 39.871 62.9085 39.8082 62.7569C39.7455 62.6054 39.6392 62.4758 39.5029 62.3847C39.3665 62.2936 39.2062 62.2449 39.0421 62.2449C38.8781 62.2449 38.7178 62.2936 38.5814 62.3847C38.4451 62.4758 38.3388 62.6054 38.2761 62.7569C38.2133 62.9085 38.1969 63.0752 38.229 63.2361C38.261 63.3969 38.3401 63.5447 38.4561 63.6606C38.6115 63.8167 38.8225 63.9048 39.0428 63.9056ZM39.0428 56.0942C38.8513 56.0937 38.6655 56.1595 38.5171 56.2805C38.3687 56.4016 38.2668 56.5703 38.2288 56.758C38.1909 56.9457 38.2191 57.1407 38.3088 57.3099C38.3985 57.4791 38.5441 57.612 38.7207 57.6859C38.8974 57.7598 39.0942 57.7702 39.2777 57.7153C39.4611 57.6604 39.6199 57.5436 39.7269 57.3848C39.8339 57.226 39.8826 57.035 39.8646 56.8443C39.8465 56.6537 39.763 56.4752 39.6282 56.3392C39.4732 56.1833 39.2626 56.0952 39.0428 56.0942Z"
    fill="black"
  />
</svg>
